<svg width="475" height="168" viewBox="0 0 475 168" fill="none" xmlns="http://www.w3.org/2000/svg">
<g clip-path="url(#clip0_2_490)">
<path d="M0.657532 31.9999H11.5068C16.6514 31.9999 20.8219 27.8294 20.8219 22.6848H9.9726C4.82803 22.6848 0.657532 26.8553 0.657532 31.9999Z" fill="#F22BB2"/>
<path d="M1.14285 9.31507V23.0137C6.28742 23.0137 10.4579 18.8432 10.4579 13.6986V0C5.31335 0 1.14285 4.1705 1.14285 9.31507Z" fill="#8C30F5"/>
<path d="M31.3425 0H20.4931C15.3486 0 11.1781 4.1705 11.1781 9.31507H22.0274C27.172 9.31507 31.3425 5.14457 31.3425 0Z" fill="#FE9A22"/>
<path d="M31.3425 22.1371V8.43848C26.1979 8.43848 22.0274 12.609 22.0274 17.7535V31.4522C27.172 31.4522 31.3425 27.2817 31.3425 22.1371Z" fill="#2EC5CE"/>
</g>
<path d="M1.12 75H4.616C4.728 75 4.936 74.9973 5.24 74.992C5.544 74.9867 5.82933 74.9653 6.096 74.928C6.97067 74.8053 7.70133 74.4827 8.288 73.96C8.87467 73.432 9.31467 72.76 9.608 71.944C9.90133 71.1227 10.048 70.2213 10.048 69.24C10.048 68.2587 9.90133 67.36 9.608 66.544C9.31467 65.728 8.87467 65.056 8.288 64.528C7.70133 63.9947 6.97067 63.6693 6.096 63.552C5.81867 63.5147 5.53333 63.4933 5.24 63.488C4.94667 63.4827 4.73867 63.48 4.616 63.48H1.12V75ZM2.336 73.872V64.608H4.616C4.824 64.608 5.056 64.616 5.312 64.632C5.57333 64.6427 5.79467 64.6667 5.976 64.704C6.64267 64.8213 7.184 65.0933 7.6 65.52C8.016 65.9413 8.32 66.472 8.512 67.112C8.704 67.752 8.8 68.4613 8.8 69.24C8.8 70.0027 8.704 70.7067 8.512 71.352C8.32533 71.9973 8.024 72.5333 7.608 72.96C7.192 73.3867 6.648 73.6587 5.976 73.776C5.79467 73.8133 5.576 73.84 5.32 73.856C5.06933 73.8667 4.83467 73.872 4.616 73.872H2.336ZM15.478 75.24C16.3313 75.24 17.062 75.048 17.67 74.664C18.2833 74.28 18.7527 73.7467 19.078 73.064C19.4087 72.376 19.574 71.5787 19.574 70.672C19.574 69.7813 19.4113 68.9947 19.086 68.312C18.766 67.624 18.2993 67.088 17.686 66.704C17.078 66.3147 16.342 66.12 15.478 66.12C14.6353 66.12 13.9073 66.312 13.294 66.696C12.686 67.0747 12.2167 67.6053 11.886 68.288C11.5553 68.9707 11.39 69.7653 11.39 70.672C11.39 71.5627 11.55 72.352 11.87 73.04C12.1953 73.728 12.662 74.2667 13.27 74.656C13.8833 75.0453 14.6193 75.24 15.478 75.24ZM15.478 74.112C14.5447 74.112 13.838 73.8 13.358 73.176C12.878 72.5467 12.638 71.712 12.638 70.672C12.638 69.664 12.87 68.8427 13.334 68.208C13.798 67.568 14.5127 67.248 15.478 67.248C16.4327 67.248 17.1447 67.56 17.614 68.184C18.0887 68.8027 18.326 69.632 18.326 70.672C18.326 71.6907 18.0913 72.52 17.622 73.16C17.1527 73.7947 16.438 74.112 15.478 74.112ZM22.8663 75H23.8903L26.0423 68.12L28.2023 75H29.2263L31.8663 66.36H30.6983L28.6343 73.072L26.5783 66.36H25.5063L23.4503 73.072L21.4023 66.36L20.2263 66.352L22.8663 75ZM33.2995 75H34.4835V70.392C34.4835 69.416 34.7022 68.6507 35.1395 68.096C35.5768 67.5413 36.2115 67.264 37.0435 67.264C37.6462 67.264 38.1315 67.4107 38.4995 67.704C38.8675 67.992 39.1342 68.3867 39.2995 68.888C39.4648 69.3893 39.5475 69.9573 39.5475 70.592V75H40.7315V70.248C40.7315 69.7627 40.6702 69.2773 40.5475 68.792C40.4302 68.3067 40.2382 67.864 39.9715 67.464C39.7048 67.064 39.3502 66.744 38.9075 66.504C38.4648 66.264 37.9182 66.144 37.2675 66.144C36.6488 66.144 36.0888 66.264 35.5875 66.504C35.0915 66.7387 34.6835 67.0907 34.3635 67.56V66.36H33.2995V75ZM42.9675 75H44.1435V63.24H42.9675V75ZM50.1499 75.24C51.0032 75.24 51.7339 75.048 52.3419 74.664C52.9552 74.28 53.4245 73.7467 53.7499 73.064C54.0805 72.376 54.2459 71.5787 54.2459 70.672C54.2459 69.7813 54.0832 68.9947 53.7579 68.312C53.4379 67.624 52.9712 67.088 52.3579 66.704C51.7499 66.3147 51.0139 66.12 50.1499 66.12C49.3072 66.12 48.5792 66.312 47.9659 66.696C47.3579 67.0747 46.8885 67.6053 46.5579 68.288C46.2272 68.9707 46.0619 69.7653 46.0619 70.672C46.0619 71.5627 46.2219 72.352 46.5419 73.04C46.8672 73.728 47.3339 74.2667 47.9419 74.656C48.5552 75.0453 49.2912 75.24 50.1499 75.24ZM50.1499 74.112C49.2165 74.112 48.5099 73.8 48.0299 73.176C47.5499 72.5467 47.3099 71.712 47.3099 70.672C47.3099 69.664 47.5419 68.8427 48.0059 68.208C48.4699 67.568 49.1845 67.248 50.1499 67.248C51.1045 67.248 51.8165 67.56 52.2859 68.184C52.7605 68.8027 52.9979 69.632 52.9979 70.672C52.9979 71.6907 52.7632 72.52 52.2939 73.16C51.8245 73.7947 51.1099 74.112 50.1499 74.112ZM58.4826 75.24C59.992 75.24 61.088 74.6827 61.7706 73.568V75H62.8186V69.632C62.8186 69.312 62.8026 68.9973 62.7706 68.688C62.7386 68.3787 62.6693 68.0987 62.5626 67.848C62.3333 67.288 61.9413 66.8613 61.3866 66.568C60.8373 66.2693 60.168 66.12 59.3786 66.12C58.4293 66.12 57.656 66.3333 57.0586 66.76C56.4613 67.1867 56.0613 67.7867 55.8586 68.56L57.0026 68.896C57.168 68.32 57.4533 67.8987 57.8586 67.632C58.2693 67.3653 58.7706 67.232 59.3626 67.232C60.184 67.232 60.7706 67.424 61.1226 67.808C61.4746 68.1867 61.656 68.7653 61.6666 69.544C61.2826 69.5973 60.8586 69.6533 60.3946 69.712C59.936 69.7707 59.4746 69.8373 59.0106 69.912C58.5466 69.9867 58.12 70.072 57.7306 70.168C57.0853 70.3387 56.5573 70.624 56.1466 71.024C55.736 71.4187 55.5306 71.9707 55.5306 72.68C55.5306 73.1387 55.64 73.5627 55.8586 73.952C56.0773 74.3413 56.4053 74.6533 56.8426 74.888C57.2853 75.1227 57.832 75.24 58.4826 75.24ZM58.6186 74.224C58.1546 74.224 57.7813 74.1493 57.4986 74C57.2213 73.8453 57.0186 73.6507 56.8906 73.416C56.768 73.176 56.7066 72.9307 56.7066 72.68C56.7066 72.2107 56.864 71.8587 57.1786 71.624C57.4933 71.3893 57.8346 71.2187 58.2026 71.112C58.6773 70.984 59.2293 70.88 59.8586 70.8C60.488 70.72 61.0853 70.6453 61.6506 70.576C61.6506 70.7733 61.6426 71 61.6266 71.256C61.616 71.5067 61.5866 71.7387 61.5386 71.952C61.4266 72.6027 61.1173 73.144 60.6106 73.576C60.1093 74.008 59.4453 74.224 58.6186 74.224ZM68.2533 75.24C68.8826 75.24 69.4346 75.112 69.9093 74.856C70.3839 74.5947 70.7759 74.24 71.0853 73.792V75H72.1413V63.48H70.9573V67.376C70.6426 66.9813 70.2533 66.6747 69.7893 66.456C69.3306 66.232 68.8026 66.12 68.2053 66.12C67.4159 66.12 66.7386 66.32 66.1733 66.72C65.6079 67.12 65.1733 67.664 64.8693 68.352C64.5706 69.04 64.4213 69.8133 64.4213 70.672C64.4213 71.536 64.5706 72.312 64.8693 73C65.1733 73.688 65.6106 74.2347 66.1813 74.64C66.7573 75.04 67.4479 75.24 68.2533 75.24ZM68.3733 74.144C67.7759 74.144 67.2746 73.992 66.8693 73.688C66.4693 73.3787 66.1679 72.9627 65.9653 72.44C65.7679 71.9173 65.6693 71.328 65.6693 70.672C65.6693 70.0213 65.7679 69.4347 65.9653 68.912C66.1626 68.3893 66.4613 67.976 66.8613 67.672C67.2666 67.368 67.7786 67.216 68.3973 67.216C69.2986 67.216 69.9706 67.5387 70.4133 68.184C70.8613 68.824 71.0853 69.6533 71.0853 70.672C71.0853 71.3387 70.9866 71.9333 70.7893 72.456C70.5919 72.9787 70.2933 73.392 69.8933 73.696C69.4933 73.9947 68.9866 74.144 68.3733 74.144ZM77.5888 75H78.7728V65.552L85.1168 75H86.3008V63.48H85.1168V72.92L78.7728 63.48H77.5888V75ZM92.1499 75.24C93.0032 75.24 93.7339 75.048 94.3419 74.664C94.9552 74.28 95.4245 73.7467 95.7499 73.064C96.0805 72.376 96.2459 71.5787 96.2459 70.672C96.2459 69.7813 96.0832 68.9947 95.7579 68.312C95.4379 67.624 94.9712 67.088 94.3579 66.704C93.7499 66.3147 93.0139 66.12 92.1499 66.12C91.3072 66.12 90.5792 66.312 89.9659 66.696C89.3579 67.0747 88.8885 67.6053 88.5579 68.288C88.2272 68.9707 88.0619 69.7653 88.0619 70.672C88.0619 71.5627 88.2219 72.352 88.5419 73.04C88.8672 73.728 89.3339 74.2667 89.9419 74.656C90.5552 75.0453 91.2912 75.24 92.1499 75.24ZM92.1499 74.112C91.2165 74.112 90.5099 73.8 90.0299 73.176C89.5499 72.5467 89.3099 71.712 89.3099 70.672C89.3099 69.664 89.5419 68.8427 90.0059 68.208C90.4699 67.568 91.1845 67.248 92.1499 67.248C93.1045 67.248 93.8165 67.56 94.2859 68.184C94.7605 68.8027 94.9979 69.632 94.9979 70.672C94.9979 71.6907 94.7632 72.52 94.2939 73.16C93.8245 73.7947 93.1099 74.112 92.1499 74.112ZM99.5381 75H100.562L102.714 68.12L104.874 75H105.898L108.538 66.36H107.37L105.306 73.072L103.25 66.36H102.178L100.122 73.072L98.0741 66.36L96.8981 66.352L99.5381 75Z" fill="white"/>
<path d="M134.28 75H140.928V73.872H135.456V63.48H134.28V75ZM142.452 64.72H143.628V63.4H142.452V64.72ZM142.452 75H143.628V66.36H142.452V75ZM149.61 75.24C150.469 75.24 151.205 75.04 151.818 74.64C152.437 74.2347 152.909 73.648 153.234 72.88L152.05 72.528C151.613 73.584 150.8 74.112 149.61 74.112C148.682 74.112 147.984 73.8 147.514 73.176C147.045 72.5467 146.805 71.7147 146.794 70.68C146.805 69.672 147.037 68.848 147.49 68.208C147.949 67.568 148.656 67.248 149.61 67.248C150.176 67.248 150.677 67.392 151.114 67.68C151.557 67.9627 151.88 68.3627 152.082 68.88L153.234 68.512C152.994 67.7707 152.549 67.1867 151.898 66.76C151.253 66.3333 150.493 66.12 149.618 66.12C148.76 66.12 148.029 66.312 147.426 66.696C146.824 67.0747 146.362 67.608 146.042 68.296C145.722 68.9787 145.557 69.7733 145.546 70.68C145.557 71.5653 145.717 72.352 146.026 73.04C146.341 73.728 146.8 74.2667 147.402 74.656C148.005 75.0453 148.741 75.24 149.61 75.24ZM158.307 75.24C159.145 75.24 159.894 75.0347 160.555 74.624C161.222 74.2133 161.726 73.6293 162.067 72.872L160.971 72.448C160.422 73.5573 159.518 74.112 158.259 74.112C157.395 74.112 156.718 73.8427 156.227 73.304C155.742 72.7653 155.475 72 155.427 71.008H162.235C162.278 69.4827 161.945 68.288 161.235 67.424C160.531 66.5547 159.539 66.12 158.259 66.12C157.427 66.12 156.705 66.3067 156.091 66.68C155.483 67.0533 155.011 67.584 154.675 68.272C154.339 68.96 154.171 69.776 154.171 70.72C154.171 71.632 154.339 72.4267 154.675 73.104C155.017 73.7813 155.497 74.3067 156.115 74.68C156.739 75.0533 157.47 75.24 158.307 75.24ZM158.291 67.2C159.918 67.2 160.822 68.1413 161.003 70.024H155.451C155.542 69.112 155.83 68.4133 156.315 67.928C156.801 67.4427 157.459 67.2 158.291 67.2ZM163.768 75H164.952V70.392C164.952 69.416 165.171 68.6507 165.608 68.096C166.046 67.5413 166.68 67.264 167.512 67.264C168.115 67.264 168.6 67.4107 168.968 67.704C169.336 67.992 169.603 68.3867 169.768 68.888C169.934 69.3893 170.016 69.9573 170.016 70.592V75H171.2V70.248C171.2 69.7627 171.139 69.2773 171.016 68.792C170.899 68.3067 170.707 67.864 170.44 67.464C170.174 67.064 169.819 66.744 169.376 66.504C168.934 66.264 168.387 66.144 167.736 66.144C167.118 66.144 166.558 66.264 166.056 66.504C165.56 66.7387 165.152 67.0907 164.832 67.56V66.36H163.768V75ZM176.5 75.232C177.562 75.232 178.394 75 178.996 74.536C179.604 74.0667 179.908 73.424 179.908 72.608C179.908 72.16 179.812 71.784 179.62 71.48C179.434 71.176 179.111 70.912 178.652 70.688C178.199 70.464 177.575 70.2507 176.78 70.048C176.103 69.8773 175.58 69.72 175.212 69.576C174.85 69.432 174.599 69.28 174.46 69.12C174.322 68.9547 174.252 68.7573 174.252 68.528C174.252 68.1173 174.444 67.7893 174.828 67.544C175.212 67.2987 175.711 67.1813 176.324 67.192C176.975 67.2027 177.511 67.3573 177.932 67.656C178.354 67.9493 178.607 68.3493 178.692 68.856L179.892 68.64C179.834 68.1387 179.647 67.6987 179.332 67.32C179.018 66.9413 178.602 66.648 178.084 66.44C177.572 66.2267 176.991 66.12 176.34 66.12C175.69 66.12 175.116 66.224 174.62 66.432C174.13 66.6347 173.746 66.9227 173.468 67.296C173.196 67.664 173.06 68.0933 173.06 68.584C173.06 68.984 173.151 69.3253 173.332 69.608C173.519 69.8853 173.836 70.1333 174.284 70.352C174.732 70.5653 175.346 70.7787 176.124 70.992C176.855 71.1893 177.402 71.36 177.764 71.504C178.132 71.648 178.378 71.8053 178.5 71.976C178.623 72.1413 178.684 72.3573 178.684 72.624C178.684 73.0933 178.495 73.4667 178.116 73.744C177.738 74.0213 177.22 74.16 176.564 74.16C175.892 74.16 175.327 74.016 174.868 73.728C174.41 73.4347 174.119 73.0427 173.996 72.552L172.796 72.752C172.946 73.5307 173.346 74.1387 173.996 74.576C174.652 75.0133 175.487 75.232 176.5 75.232ZM185.339 75.24C186.176 75.24 186.925 75.0347 187.587 74.624C188.253 74.2133 188.757 73.6293 189.099 72.872L188.003 72.448C187.453 73.5573 186.549 74.112 185.291 74.112C184.427 74.112 183.749 73.8427 183.259 73.304C182.773 72.7653 182.507 72 182.459 71.008H189.267C189.309 69.4827 188.976 68.288 188.267 67.424C187.563 66.5547 186.571 66.12 185.291 66.12C184.459 66.12 183.736 66.3067 183.123 66.68C182.515 67.0533 182.043 67.584 181.707 68.272C181.371 68.96 181.203 69.776 181.203 70.72C181.203 71.632 181.371 72.4267 181.707 73.104C182.048 73.7813 182.528 74.3067 183.147 74.68C183.771 75.0533 184.501 75.24 185.339 75.24ZM185.323 67.2C186.949 67.2 187.853 68.1413 188.035 70.024H182.483C182.573 69.112 182.861 68.4133 183.347 67.928C183.832 67.4427 184.491 67.2 185.323 67.2Z" fill="white"/>
<path d="M0.32 113H1.544L2.504 110.208H7.624L8.592 113H9.816L5.848 101.48H4.288L0.32 113ZM2.888 109.104L5.056 102.808L7.24 109.104H2.888ZM11.2526 113H12.3086V111.792C12.618 112.24 13.01 112.595 13.4846 112.856C13.9593 113.112 14.5113 113.24 15.1406 113.24C15.9513 113.24 16.642 113.04 17.2126 112.64C17.7833 112.235 18.218 111.688 18.5166 111C18.8206 110.312 18.9726 109.536 18.9726 108.672C18.9726 107.813 18.8206 107.04 18.5166 106.352C18.218 105.664 17.786 105.12 17.2206 104.72C16.6553 104.32 15.978 104.12 15.1886 104.12C14.5913 104.12 14.0606 104.232 13.5966 104.456C13.138 104.675 12.7513 104.981 12.4366 105.376V101.48H11.2526V113ZM15.0206 112.144C14.4073 112.144 13.9006 111.995 13.5006 111.696C13.1006 111.392 12.802 110.979 12.6046 110.456C12.4073 109.933 12.3086 109.339 12.3086 108.672C12.3086 107.653 12.53 106.824 12.9726 106.184C13.4206 105.539 14.0953 105.216 14.9966 105.216C15.6153 105.216 16.1246 105.368 16.5246 105.672C16.93 105.976 17.2313 106.389 17.4286 106.912C17.626 107.435 17.7246 108.021 17.7246 108.672C17.7246 109.328 17.6233 109.917 17.4206 110.44C17.2233 110.963 16.9246 111.379 16.5246 111.688C16.1246 111.992 15.6233 112.144 15.0206 112.144ZM24.3374 113.24C25.1907 113.24 25.9214 113.048 26.5294 112.664C27.1427 112.28 27.612 111.747 27.9374 111.064C28.268 110.376 28.4334 109.579 28.4334 108.672C28.4334 107.781 28.2707 106.995 27.9454 106.312C27.6254 105.624 27.1587 105.088 26.5454 104.704C25.9374 104.315 25.2014 104.12 24.3374 104.12C23.4947 104.12 22.7667 104.312 22.1534 104.696C21.5454 105.075 21.076 105.605 20.7454 106.288C20.4147 106.971 20.2494 107.765 20.2494 108.672C20.2494 109.563 20.4094 110.352 20.7294 111.04C21.0547 111.728 21.5214 112.267 22.1294 112.656C22.7427 113.045 23.4787 113.24 24.3374 113.24ZM24.3374 112.112C23.404 112.112 22.6974 111.8 22.2174 111.176C21.7374 110.547 21.4974 109.712 21.4974 108.672C21.4974 107.664 21.7294 106.843 22.1934 106.208C22.6574 105.568 23.372 105.248 24.3374 105.248C25.292 105.248 26.004 105.56 26.4734 106.184C26.948 106.803 27.1854 107.632 27.1854 108.672C27.1854 109.691 26.9507 110.52 26.4814 111.16C26.012 111.795 25.2974 112.112 24.3374 112.112ZM33.5021 113.216C34.1208 113.216 34.6781 113.099 35.1741 112.864C35.6755 112.624 36.0861 112.269 36.4061 111.8V113H37.4621V104.36H36.2861V108.968C36.2861 109.944 36.0675 110.709 35.6301 111.264C35.1928 111.819 34.5581 112.096 33.7261 112.096C33.1235 112.096 32.6381 111.952 32.2701 111.664C31.9021 111.371 31.6355 110.973 31.4701 110.472C31.3048 109.971 31.2221 109.403 31.2221 108.768V104.36H30.0381V109.112C30.0381 109.597 30.0968 110.083 30.2141 110.568C30.3368 111.053 30.5315 111.496 30.7981 111.896C31.0648 112.296 31.4195 112.616 31.8621 112.856C32.3101 113.096 32.8568 113.216 33.5021 113.216ZM44.4021 113V111.968C43.7835 112.069 43.2635 112.085 42.8421 112.016C42.4261 111.947 42.1221 111.733 41.9301 111.376C41.8288 111.189 41.7728 110.976 41.7621 110.736C41.7568 110.491 41.7541 110.187 41.7541 109.824V105.368H44.4021V104.36H41.7541V101.96H40.5861V104.36H38.7381V105.368H40.5861V109.872C40.5861 110.293 40.5915 110.669 40.6021 111C40.6181 111.331 40.7035 111.653 40.8581 111.968C41.0501 112.352 41.3301 112.635 41.6981 112.816C42.0715 112.997 42.4928 113.099 42.9621 113.12C43.4368 113.141 43.9168 113.101 44.4021 113Z" fill="white"/>
<path d="M70.12 113H71.296V107.824H75.776V106.656H71.296V102.656H76.736V101.48H70.12V113ZM81.6041 113.24C82.4415 113.24 83.1908 113.035 83.8521 112.624C84.5188 112.213 85.0228 111.629 85.3641 110.872L84.2681 110.448C83.7188 111.557 82.8148 112.112 81.5561 112.112C80.6921 112.112 80.0148 111.843 79.5241 111.304C79.0388 110.765 78.7721 110 78.7241 109.008H85.5321C85.5748 107.483 85.2415 106.288 84.5321 105.424C83.8281 104.555 82.8361 104.12 81.5561 104.12C80.7241 104.12 80.0015 104.307 79.3881 104.68C78.7801 105.053 78.3081 105.584 77.9721 106.272C77.6361 106.96 77.4681 107.776 77.4681 108.72C77.4681 109.632 77.6361 110.427 77.9721 111.104C78.3135 111.781 78.7935 112.307 79.4121 112.68C80.0361 113.053 80.7668 113.24 81.6041 113.24ZM81.5881 105.2C83.2148 105.2 84.1188 106.141 84.3001 108.024H78.7481C78.8388 107.112 79.1268 106.413 79.6121 105.928C80.0975 105.443 80.7561 105.2 81.5881 105.2ZM89.6233 113.24C91.1326 113.24 92.2286 112.683 92.9113 111.568V113H93.9593V107.632C93.9593 107.312 93.9433 106.997 93.9113 106.688C93.8793 106.379 93.8099 106.099 93.7033 105.848C93.4739 105.288 93.0819 104.861 92.5273 104.568C91.9779 104.269 91.3086 104.12 90.5193 104.12C89.5699 104.12 88.7966 104.333 88.1993 104.76C87.6019 105.187 87.2019 105.787 86.9993 106.56L88.1432 106.896C88.3086 106.32 88.5939 105.899 88.9993 105.632C89.4099 105.365 89.9113 105.232 90.5033 105.232C91.3246 105.232 91.9113 105.424 92.2633 105.808C92.6153 106.187 92.7966 106.765 92.8073 107.544C92.4233 107.597 91.9993 107.653 91.5353 107.712C91.0766 107.771 90.6153 107.837 90.1513 107.912C89.6873 107.987 89.2606 108.072 88.8713 108.168C88.2259 108.339 87.6979 108.624 87.2873 109.024C86.8766 109.419 86.6713 109.971 86.6713 110.68C86.6713 111.139 86.7806 111.563 86.9993 111.952C87.2179 112.341 87.5459 112.653 87.9833 112.888C88.4259 113.123 88.9726 113.24 89.6233 113.24ZM89.7593 112.224C89.2953 112.224 88.9219 112.149 88.6393 112C88.3619 111.845 88.1593 111.651 88.0312 111.416C87.9086 111.176 87.8473 110.931 87.8473 110.68C87.8473 110.211 88.0046 109.859 88.3193 109.624C88.6339 109.389 88.9753 109.219 89.3433 109.112C89.8179 108.984 90.3699 108.88 90.9993 108.8C91.6286 108.72 92.2259 108.645 92.7913 108.576C92.7913 108.773 92.7833 109 92.7673 109.256C92.7566 109.507 92.7273 109.739 92.6793 109.952C92.5673 110.603 92.2579 111.144 91.7513 111.576C91.2499 112.008 90.5859 112.224 89.7593 112.224ZM100.746 113V111.968C100.127 112.069 99.6072 112.085 99.1859 112.016C98.7699 111.947 98.4659 111.733 98.2739 111.376C98.1725 111.189 98.1165 110.976 98.1059 110.736C98.1005 110.491 98.0979 110.187 98.0979 109.824V105.368H100.746V104.36H98.0979V101.96H96.9299V104.36H95.0819V105.368H96.9299V109.872C96.9299 110.293 96.9352 110.669 96.9459 111C96.9619 111.331 97.0472 111.653 97.2019 111.968C97.3939 112.352 97.6739 112.635 98.0419 112.816C98.4152 112.997 98.8365 113.099 99.3059 113.12C99.7805 113.141 100.261 113.101 100.746 113ZM105.752 113.216C106.371 113.216 106.928 113.099 107.424 112.864C107.925 112.624 108.336 112.269 108.656 111.8V113H109.712V104.36H108.536V108.968C108.536 109.944 108.317 110.709 107.88 111.264C107.443 111.819 106.808 112.096 105.976 112.096C105.373 112.096 104.888 111.952 104.52 111.664C104.152 111.371 103.885 110.973 103.72 110.472C103.555 109.971 103.472 109.403 103.472 108.768V104.36H102.288V109.112C102.288 109.597 102.347 110.083 102.464 110.568C102.587 111.053 102.781 111.496 103.048 111.896C103.315 112.296 103.669 112.616 104.112 112.856C104.56 113.096 105.107 113.216 105.752 113.216ZM111.948 113H113.124V108.688C113.124 108.171 113.183 107.656 113.3 107.144C113.423 106.627 113.7 106.197 114.132 105.856C114.447 105.6 114.788 105.453 115.156 105.416C115.529 105.373 115.876 105.389 116.196 105.464V104.36C115.817 104.264 115.388 104.261 114.908 104.352C114.428 104.437 114.017 104.629 113.676 104.928C113.42 105.12 113.196 105.387 113.004 105.728V104.36H111.948V113ZM121.214 113.24C122.051 113.24 122.8 113.035 123.462 112.624C124.128 112.213 124.632 111.629 124.974 110.872L123.878 110.448C123.328 111.557 122.424 112.112 121.166 112.112C120.302 112.112 119.624 111.843 119.134 111.304C118.648 110.765 118.382 110 118.334 109.008H125.142C125.184 107.483 124.851 106.288 124.142 105.424C123.438 104.555 122.446 104.12 121.166 104.12C120.334 104.12 119.611 104.307 118.998 104.68C118.39 105.053 117.918 105.584 117.582 106.272C117.246 106.96 117.078 107.776 117.078 108.72C117.078 109.632 117.246 110.427 117.582 111.104C117.923 111.781 118.403 112.307 119.022 112.68C119.646 113.053 120.376 113.24 121.214 113.24ZM121.198 105.2C122.824 105.2 123.728 106.141 123.91 108.024H118.358C118.448 107.112 118.736 106.413 119.222 105.928C119.707 105.443 120.366 105.2 121.198 105.2ZM130.141 113.232C131.202 113.232 132.034 113 132.637 112.536C133.245 112.067 133.549 111.424 133.549 110.608C133.549 110.16 133.453 109.784 133.261 109.48C133.074 109.176 132.752 108.912 132.293 108.688C131.84 108.464 131.216 108.251 130.421 108.048C129.744 107.877 129.221 107.72 128.853 107.576C128.49 107.432 128.24 107.28 128.101 107.12C127.962 106.955 127.893 106.757 127.893 106.528C127.893 106.117 128.085 105.789 128.469 105.544C128.853 105.299 129.352 105.181 129.965 105.192C130.616 105.203 131.152 105.357 131.573 105.656C131.994 105.949 132.248 106.349 132.333 106.856L133.533 106.64C133.474 106.139 133.288 105.699 132.973 105.32C132.658 104.941 132.242 104.648 131.725 104.44C131.213 104.227 130.632 104.12 129.981 104.12C129.33 104.12 128.757 104.224 128.261 104.432C127.77 104.635 127.386 104.923 127.109 105.296C126.837 105.664 126.701 106.093 126.701 106.584C126.701 106.984 126.792 107.325 126.973 107.608C127.16 107.885 127.477 108.133 127.925 108.352C128.373 108.565 128.986 108.779 129.765 108.992C130.496 109.189 131.042 109.36 131.405 109.504C131.773 109.648 132.018 109.805 132.141 109.976C132.264 110.141 132.325 110.357 132.325 110.624C132.325 111.093 132.136 111.467 131.757 111.744C131.378 112.021 130.861 112.16 130.205 112.16C129.533 112.16 128.968 112.016 128.509 111.728C128.05 111.435 127.76 111.043 127.637 110.552L126.437 110.752C126.586 111.531 126.986 112.139 127.637 112.576C128.293 113.013 129.128 113.232 130.141 113.232Z" fill="white"/>
<path d="M160.12 113H161.296V108.624H164.568C164.675 108.624 164.8 108.619 164.944 108.608C165.088 108.597 165.232 108.581 165.376 108.56C166.272 108.421 166.963 108.027 167.448 107.376C167.939 106.725 168.184 105.952 168.184 105.056C168.184 104.155 167.941 103.379 167.456 102.728C166.971 102.077 166.277 101.683 165.376 101.544C165.232 101.517 165.088 101.501 164.944 101.496C164.805 101.485 164.68 101.48 164.568 101.48H160.12V113ZM161.296 107.504V102.608H164.536C164.632 102.608 164.744 102.613 164.872 102.624C165.005 102.629 165.131 102.645 165.248 102.672C165.84 102.8 166.275 103.096 166.552 103.56C166.835 104.019 166.976 104.517 166.976 105.056C166.976 105.589 166.835 106.088 166.552 106.552C166.275 107.016 165.84 107.309 165.248 107.432C165.131 107.459 165.005 107.477 164.872 107.488C164.744 107.499 164.632 107.504 164.536 107.504H161.296ZM169.776 113H170.952V108.688C170.952 108.171 171.011 107.656 171.128 107.144C171.251 106.627 171.528 106.197 171.96 105.856C172.275 105.6 172.616 105.453 172.984 105.416C173.358 105.373 173.704 105.389 174.024 105.464V104.36C173.646 104.264 173.216 104.261 172.736 104.352C172.256 104.437 171.846 104.629 171.504 104.928C171.248 105.12 171.024 105.387 170.832 105.728V104.36H169.776V113ZM175.702 102.72H176.878V101.4H175.702V102.72ZM175.702 113H176.878V104.36H175.702V113ZM182.86 113.24C183.719 113.24 184.455 113.04 185.068 112.64C185.687 112.235 186.159 111.648 186.484 110.88L185.3 110.528C184.863 111.584 184.05 112.112 182.86 112.112C181.932 112.112 181.234 111.8 180.764 111.176C180.295 110.547 180.055 109.715 180.044 108.68C180.055 107.672 180.287 106.848 180.74 106.208C181.199 105.568 181.906 105.248 182.86 105.248C183.426 105.248 183.927 105.392 184.364 105.68C184.807 105.963 185.13 106.363 185.332 106.88L186.484 106.512C186.244 105.771 185.799 105.187 185.148 104.76C184.503 104.333 183.743 104.12 182.868 104.12C182.01 104.12 181.279 104.312 180.676 104.696C180.074 105.075 179.612 105.608 179.292 106.296C178.972 106.979 178.807 107.773 178.796 108.68C178.807 109.565 178.967 110.352 179.276 111.04C179.591 111.728 180.05 112.267 180.652 112.656C181.255 113.045 181.991 113.24 182.86 113.24ZM188.061 102.72H189.237V101.4H188.061V102.72ZM188.061 113H189.237V104.36H188.061V113ZM191.628 113H192.812V108.392C192.812 107.416 193.03 106.651 193.468 106.096C193.905 105.541 194.54 105.264 195.372 105.264C195.974 105.264 196.46 105.411 196.828 105.704C197.196 105.992 197.462 106.387 197.628 106.888C197.793 107.389 197.876 107.957 197.876 108.592V113H199.06V108.248C199.06 107.763 198.998 107.277 198.876 106.792C198.758 106.307 198.566 105.864 198.3 105.464C198.033 105.064 197.678 104.744 197.236 104.504C196.793 104.264 196.246 104.144 195.596 104.144C194.977 104.144 194.417 104.264 193.916 104.504C193.42 104.739 193.012 105.091 192.692 105.56V104.36H191.628V113ZM204.488 113.24C205.069 113.24 205.586 113.128 206.04 112.904C206.493 112.68 206.874 112.371 207.184 111.976V112.864C207.189 113.877 206.989 114.643 206.584 115.16C206.178 115.677 205.506 115.936 204.568 115.936C204.114 115.936 203.669 115.829 203.232 115.616C202.794 115.408 202.458 115.064 202.224 114.584L201.16 115.176C201.528 115.848 202.021 116.333 202.64 116.632C203.264 116.931 203.906 117.08 204.568 117.08C205.624 117.08 206.466 116.851 207.096 116.392C207.725 115.933 208.117 115.221 208.272 114.256C208.309 114.037 208.333 113.813 208.344 113.584C208.36 113.36 208.368 113.125 208.368 112.88V104.36H207.32V105.552C207.005 105.104 206.605 104.755 206.12 104.504C205.64 104.248 205.08 104.12 204.44 104.12C203.65 104.12 202.973 104.32 202.408 104.72C201.842 105.12 201.408 105.664 201.104 106.352C200.805 107.04 200.656 107.813 200.656 108.672C200.656 109.536 200.805 110.312 201.104 111C201.408 111.688 201.845 112.235 202.416 112.64C202.992 113.04 203.682 113.24 204.488 113.24ZM204.608 112.144C204.01 112.144 203.509 111.992 203.104 111.688C202.704 111.379 202.402 110.963 202.2 110.44C202.002 109.917 201.904 109.328 201.904 108.672C201.904 108.021 202.002 107.435 202.2 106.912C202.397 106.389 202.696 105.976 203.096 105.672C203.501 105.368 204.013 105.216 204.632 105.216C205.533 105.216 206.205 105.539 206.648 106.184C207.096 106.824 207.32 107.653 207.32 108.672C207.32 109.339 207.221 109.933 207.024 110.456C206.826 110.979 206.528 111.392 206.128 111.696C205.728 111.995 205.221 112.144 204.608 112.144Z" fill="white"/>
<path d="M239.784 113.24C241.123 113.24 242.216 112.899 243.064 112.216C243.912 111.528 244.493 110.608 244.808 109.456L243.608 109.144C243.363 110.051 242.923 110.773 242.288 111.312C241.653 111.845 240.819 112.112 239.784 112.112C238.883 112.112 238.128 111.907 237.52 111.496C236.917 111.08 236.464 110.507 236.16 109.776C235.861 109.045 235.715 108.2 235.72 107.24C235.731 106.28 235.885 105.435 236.184 104.704C236.483 103.968 236.931 103.395 237.528 102.984C238.131 102.573 238.883 102.368 239.784 102.368C240.819 102.368 241.653 102.637 242.288 103.176C242.923 103.709 243.363 104.429 243.608 105.336L244.808 105.024C244.493 103.872 243.912 102.955 243.064 102.272C242.216 101.584 241.123 101.24 239.784 101.24C238.637 101.24 237.669 101.493 236.88 102C236.091 102.507 235.493 103.211 235.088 104.112C234.683 105.013 234.48 106.056 234.48 107.24C234.48 108.419 234.683 109.461 235.088 110.368C235.493 111.269 236.091 111.973 236.88 112.48C237.669 112.987 238.637 113.24 239.784 113.24ZM249.045 113.24C250.554 113.24 251.65 112.683 252.333 111.568V113H253.381V107.632C253.381 107.312 253.365 106.997 253.333 106.688C253.301 106.379 253.232 106.099 253.125 105.848C252.896 105.288 252.504 104.861 251.949 104.568C251.4 104.269 250.73 104.12 249.941 104.12C248.992 104.12 248.218 104.333 247.621 104.76C247.024 105.187 246.624 105.787 246.421 106.56L247.565 106.896C247.73 106.32 248.016 105.899 248.421 105.632C248.832 105.365 249.333 105.232 249.925 105.232C250.746 105.232 251.333 105.424 251.685 105.808C252.037 106.187 252.218 106.765 252.229 107.544C251.845 107.597 251.421 107.653 250.957 107.712C250.498 107.771 250.037 107.837 249.573 107.912C249.109 107.987 248.682 108.072 248.293 108.168C247.648 108.339 247.12 108.624 246.709 109.024C246.298 109.419 246.093 109.971 246.093 110.68C246.093 111.139 246.202 111.563 246.421 111.952C246.64 112.341 246.968 112.653 247.405 112.888C247.848 113.123 248.394 113.24 249.045 113.24ZM249.181 112.224C248.717 112.224 248.344 112.149 248.061 112C247.784 111.845 247.581 111.651 247.453 111.416C247.33 111.176 247.269 110.931 247.269 110.68C247.269 110.211 247.426 109.859 247.741 109.624C248.056 109.389 248.397 109.219 248.765 109.112C249.24 108.984 249.792 108.88 250.421 108.8C251.05 108.72 251.648 108.645 252.213 108.576C252.213 108.773 252.205 109 252.189 109.256C252.178 109.507 252.149 109.739 252.101 109.952C251.989 110.603 251.68 111.144 251.173 111.576C250.672 112.008 250.008 112.224 249.181 112.224ZM255.464 113H256.64V108.688C256.64 108.171 256.698 107.656 256.816 107.144C256.938 106.627 257.216 106.197 257.648 105.856C257.962 105.6 258.304 105.453 258.672 105.416C259.045 105.373 259.392 105.389 259.712 105.464V104.36C259.333 104.264 258.904 104.261 258.424 104.352C257.944 104.437 257.533 104.629 257.192 104.928C256.936 105.12 256.712 105.387 256.52 105.728V104.36H255.464V113ZM264.729 113.24C265.566 113.24 266.316 113.035 266.977 112.624C267.644 112.213 268.148 111.629 268.489 110.872L267.393 110.448C266.844 111.557 265.94 112.112 264.681 112.112C263.817 112.112 263.14 111.843 262.649 111.304C262.164 110.765 261.897 110 261.849 109.008H268.657C268.7 107.483 268.366 106.288 267.657 105.424C266.953 104.555 265.961 104.12 264.681 104.12C263.849 104.12 263.126 104.307 262.513 104.68C261.905 105.053 261.433 105.584 261.097 106.272C260.761 106.96 260.593 107.776 260.593 108.72C260.593 109.632 260.761 110.427 261.097 111.104C261.438 111.781 261.918 112.307 262.537 112.68C263.161 113.053 263.892 113.24 264.729 113.24ZM264.713 105.2C266.34 105.2 267.244 106.141 267.425 108.024H261.873C261.964 107.112 262.252 106.413 262.737 105.928C263.222 105.443 263.881 105.2 264.713 105.2ZM274.089 113.24C274.926 113.24 275.675 113.035 276.337 112.624C277.003 112.213 277.507 111.629 277.849 110.872L276.753 110.448C276.203 111.557 275.299 112.112 274.041 112.112C273.177 112.112 272.499 111.843 272.009 111.304C271.523 110.765 271.257 110 271.209 109.008H278.017C278.059 107.483 277.726 106.288 277.017 105.424C276.313 104.555 275.321 104.12 274.041 104.12C273.209 104.12 272.486 104.307 271.873 104.68C271.265 105.053 270.793 105.584 270.457 106.272C270.121 106.96 269.953 107.776 269.953 108.72C269.953 109.632 270.121 110.427 270.457 111.104C270.798 111.781 271.278 112.307 271.897 112.68C272.521 113.053 273.251 113.24 274.089 113.24ZM274.073 105.2C275.699 105.2 276.603 106.141 276.785 108.024H271.233C271.323 107.112 271.611 106.413 272.097 105.928C272.582 105.443 273.241 105.2 274.073 105.2ZM279.792 113H280.968V108.688C280.968 108.171 281.027 107.656 281.144 107.144C281.267 106.627 281.544 106.197 281.976 105.856C282.291 105.6 282.632 105.453 283 105.416C283.373 105.373 283.72 105.389 284.04 105.464V104.36C283.661 104.264 283.232 104.261 282.752 104.352C282.272 104.437 281.861 104.629 281.52 104.928C281.264 105.12 281.04 105.387 280.848 105.728V104.36H279.792V113ZM288.469 113.232C289.53 113.232 290.362 113 290.965 112.536C291.573 112.067 291.877 111.424 291.877 110.608C291.877 110.16 291.781 109.784 291.589 109.48C291.402 109.176 291.08 108.912 290.621 108.688C290.168 108.464 289.544 108.251 288.749 108.048C288.072 107.877 287.549 107.72 287.181 107.576C286.818 107.432 286.568 107.28 286.429 107.12C286.29 106.955 286.221 106.757 286.221 106.528C286.221 106.117 286.413 105.789 286.797 105.544C287.181 105.299 287.68 105.181 288.293 105.192C288.944 105.203 289.48 105.357 289.901 105.656C290.322 105.949 290.576 106.349 290.661 106.856L291.861 106.64C291.802 106.139 291.616 105.699 291.301 105.32C290.986 104.941 290.57 104.648 290.053 104.44C289.541 104.227 288.96 104.12 288.309 104.12C287.658 104.12 287.085 104.224 286.589 104.432C286.098 104.635 285.714 104.923 285.437 105.296C285.165 105.664 285.029 106.093 285.029 106.584C285.029 106.984 285.12 107.325 285.301 107.608C285.488 107.885 285.805 108.133 286.253 108.352C286.701 108.565 287.314 108.779 288.093 108.992C288.824 109.189 289.37 109.36 289.733 109.504C290.101 109.648 290.346 109.805 290.469 109.976C290.592 110.141 290.653 110.357 290.653 110.624C290.653 111.093 290.464 111.467 290.085 111.744C289.706 112.021 289.189 112.16 288.533 112.16C287.861 112.16 287.296 112.016 286.837 111.728C286.378 111.435 286.088 111.043 285.965 110.552L284.765 110.752C284.914 111.531 285.314 112.139 285.965 112.576C286.621 113.013 287.456 113.232 288.469 113.232Z" fill="white"/>
<path d="M318.12 113H319.296V107.8H325.664V113H326.832V101.48H325.664V106.672H319.296V101.48H318.12V113ZM332.729 113.24C333.566 113.24 334.316 113.035 334.977 112.624C335.644 112.213 336.148 111.629 336.489 110.872L335.393 110.448C334.844 111.557 333.94 112.112 332.681 112.112C331.817 112.112 331.14 111.843 330.649 111.304C330.164 110.765 329.897 110 329.849 109.008H336.657C336.7 107.483 336.366 106.288 335.657 105.424C334.953 104.555 333.961 104.12 332.681 104.12C331.849 104.12 331.126 104.307 330.513 104.68C329.905 105.053 329.433 105.584 329.097 106.272C328.761 106.96 328.593 107.776 328.593 108.72C328.593 109.632 328.761 110.427 329.097 111.104C329.438 111.781 329.918 112.307 330.537 112.68C331.161 113.053 331.892 113.24 332.729 113.24ZM332.713 105.2C334.34 105.2 335.244 106.141 335.425 108.024H329.873C329.964 107.112 330.252 106.413 330.737 105.928C331.222 105.443 331.881 105.2 332.713 105.2ZM338.593 113H339.769V101.24H338.593V113ZM342.159 116.84H343.343V111.968C343.652 112.363 344.034 112.675 344.487 112.904C344.94 113.128 345.46 113.24 346.047 113.24C346.858 113.24 347.548 113.04 348.119 112.64C348.69 112.235 349.124 111.688 349.423 111C349.727 110.312 349.879 109.536 349.879 108.672C349.879 107.813 349.727 107.04 349.423 106.352C349.124 105.664 348.692 105.12 348.127 104.72C347.562 104.32 346.884 104.12 346.095 104.12C345.455 104.12 344.892 104.248 344.407 104.504C343.927 104.755 343.53 105.104 343.215 105.552V104.36H342.159V116.84ZM345.927 112.144C345.314 112.144 344.807 111.995 344.407 111.696C344.007 111.392 343.708 110.979 343.511 110.456C343.314 109.933 343.215 109.339 343.215 108.672C343.215 107.653 343.436 106.824 343.879 106.184C344.327 105.539 345.002 105.216 345.903 105.216C346.522 105.216 347.031 105.368 347.431 105.672C347.836 105.976 348.138 106.389 348.335 106.912C348.532 107.435 348.631 108.021 348.631 108.672C348.631 109.328 348.53 109.917 348.327 110.44C348.13 110.963 347.831 111.379 347.431 111.688C347.031 111.992 346.53 112.144 345.927 112.144Z" fill="white"/>
<path d="M376.12 113H377.296V108.624H380.568C380.675 108.624 380.8 108.619 380.944 108.608C381.088 108.597 381.232 108.581 381.376 108.56C382.272 108.421 382.963 108.027 383.448 107.376C383.939 106.725 384.184 105.952 384.184 105.056C384.184 104.155 383.941 103.379 383.456 102.728C382.971 102.077 382.277 101.683 381.376 101.544C381.232 101.517 381.088 101.501 380.944 101.496C380.805 101.485 380.68 101.48 380.568 101.48H376.12V113ZM377.296 107.504V102.608H380.536C380.632 102.608 380.744 102.613 380.872 102.624C381.005 102.629 381.131 102.645 381.248 102.672C381.84 102.8 382.275 103.096 382.552 103.56C382.835 104.019 382.976 104.517 382.976 105.056C382.976 105.589 382.835 106.088 382.552 106.552C382.275 107.016 381.84 107.309 381.248 107.432C381.131 107.459 381.005 107.477 380.872 107.488C380.744 107.499 380.632 107.504 380.536 107.504H377.296ZM385.776 113H386.952V108.688C386.952 108.171 387.011 107.656 387.128 107.144C387.251 106.627 387.528 106.197 387.96 105.856C388.275 105.6 388.616 105.453 388.984 105.416C389.358 105.373 389.704 105.389 390.024 105.464V104.36C389.646 104.264 389.216 104.261 388.736 104.352C388.256 104.437 387.846 104.629 387.504 104.928C387.248 105.12 387.024 105.387 386.832 105.728V104.36H385.776V113ZM391.702 102.72H392.878V101.4H391.702V102.72ZM391.702 113H392.878V104.36H391.702V113ZM397.612 113H398.828L401.964 104.36H400.756L398.22 111.464L395.668 104.36H394.476L397.612 113ZM405.389 113.24C406.898 113.24 407.994 112.683 408.677 111.568V113H409.725V107.632C409.725 107.312 409.709 106.997 409.677 106.688C409.645 106.379 409.576 106.099 409.469 105.848C409.24 105.288 408.848 104.861 408.293 104.568C407.744 104.269 407.074 104.12 406.285 104.12C405.336 104.12 404.562 104.333 403.965 104.76C403.368 105.187 402.968 105.787 402.765 106.56L403.909 106.896C404.074 106.32 404.36 105.899 404.765 105.632C405.176 105.365 405.677 105.232 406.269 105.232C407.09 105.232 407.677 105.424 408.029 105.808C408.381 106.187 408.562 106.765 408.573 107.544C408.189 107.597 407.765 107.653 407.301 107.712C406.842 107.771 406.381 107.837 405.917 107.912C405.453 107.987 405.026 108.072 404.637 108.168C403.992 108.339 403.464 108.624 403.053 109.024C402.642 109.419 402.437 109.971 402.437 110.68C402.437 111.139 402.546 111.563 402.765 111.952C402.984 112.341 403.312 112.653 403.749 112.888C404.192 113.123 404.738 113.24 405.389 113.24ZM405.525 112.224C405.061 112.224 404.688 112.149 404.405 112C404.128 111.845 403.925 111.651 403.797 111.416C403.674 111.176 403.613 110.931 403.613 110.68C403.613 110.211 403.77 109.859 404.085 109.624C404.4 109.389 404.741 109.219 405.109 109.112C405.584 108.984 406.136 108.88 406.765 108.8C407.394 108.72 407.992 108.645 408.557 108.576C408.557 108.773 408.549 109 408.533 109.256C408.522 109.507 408.493 109.739 408.445 109.952C408.333 110.603 408.024 111.144 407.517 111.576C407.016 112.008 406.352 112.224 405.525 112.224ZM415.391 113.24C416.25 113.24 416.986 113.04 417.6 112.64C418.218 112.235 418.69 111.648 419.016 110.88L417.832 110.528C417.394 111.584 416.581 112.112 415.391 112.112C414.464 112.112 413.765 111.8 413.296 111.176C412.826 110.547 412.586 109.715 412.576 108.68C412.586 107.672 412.818 106.848 413.272 106.208C413.73 105.568 414.437 105.248 415.391 105.248C415.957 105.248 416.458 105.392 416.896 105.68C417.338 105.963 417.661 106.363 417.864 106.88L419.016 106.512C418.776 105.771 418.33 105.187 417.68 104.76C417.034 104.333 416.274 104.12 415.4 104.12C414.541 104.12 413.81 104.312 413.208 104.696C412.605 105.075 412.144 105.608 411.824 106.296C411.504 106.979 411.338 107.773 411.328 108.68C411.338 109.565 411.498 110.352 411.808 111.04C412.122 111.728 412.581 112.267 413.184 112.656C413.786 113.045 414.522 113.24 415.391 113.24ZM421.586 116.84H422.762L427.402 104.36H426.202L423.586 111.464L420.746 104.36H419.498L423.01 112.976L421.586 116.84ZM431.995 113H433.171V108.624H436.443C436.55 108.624 436.675 108.619 436.819 108.608C436.963 108.597 437.107 108.581 437.251 108.56C438.147 108.421 438.838 108.027 439.323 107.376C439.814 106.725 440.059 105.952 440.059 105.056C440.059 104.155 439.816 103.379 439.331 102.728C438.846 102.077 438.152 101.683 437.251 101.544C437.107 101.517 436.963 101.501 436.819 101.496C436.68 101.485 436.555 101.48 436.443 101.48H431.995V113ZM433.171 107.504V102.608H436.411C436.507 102.608 436.619 102.613 436.747 102.624C436.88 102.629 437.006 102.645 437.123 102.672C437.715 102.8 438.15 103.096 438.427 103.56C438.71 104.019 438.851 104.517 438.851 105.056C438.851 105.589 438.71 106.088 438.427 106.552C438.15 107.016 437.715 107.309 437.123 107.432C437.006 107.459 436.88 107.477 436.747 107.488C436.619 107.499 436.507 107.504 436.411 107.504H433.171ZM445.197 113.24C446.05 113.24 446.781 113.048 447.389 112.664C448.002 112.28 448.471 111.747 448.797 111.064C449.127 110.376 449.293 109.579 449.293 108.672C449.293 107.781 449.13 106.995 448.805 106.312C448.485 105.624 448.018 105.088 447.405 104.704C446.797 104.315 446.061 104.12 445.197 104.12C444.354 104.12 443.626 104.312 443.013 104.696C442.405 105.075 441.935 105.605 441.605 106.288C441.274 106.971 441.109 107.765 441.109 108.672C441.109 109.563 441.269 110.352 441.589 111.04C441.914 111.728 442.381 112.267 442.989 112.656C443.602 113.045 444.338 113.24 445.197 113.24ZM445.197 112.112C444.263 112.112 443.557 111.8 443.077 111.176C442.597 110.547 442.357 109.712 442.357 108.672C442.357 107.664 442.589 106.843 443.053 106.208C443.517 105.568 444.231 105.248 445.197 105.248C446.151 105.248 446.863 105.56 447.333 106.184C447.807 106.803 448.045 107.632 448.045 108.672C448.045 109.691 447.81 110.52 447.341 111.16C446.871 111.795 446.157 112.112 445.197 112.112ZM451.218 113H452.394V101.24H451.218V113ZM454.952 102.72H456.128V101.4H454.952V102.72ZM454.952 113H456.128V104.36H454.952V113ZM462.11 113.24C462.969 113.24 463.705 113.04 464.318 112.64C464.937 112.235 465.409 111.648 465.734 110.88L464.55 110.528C464.113 111.584 463.3 112.112 462.11 112.112C461.182 112.112 460.484 111.8 460.014 111.176C459.545 110.547 459.305 109.715 459.294 108.68C459.305 107.672 459.537 106.848 459.99 106.208C460.449 105.568 461.156 105.248 462.11 105.248C462.676 105.248 463.177 105.392 463.614 105.68C464.057 105.963 464.38 106.363 464.582 106.88L465.734 106.512C465.494 105.771 465.049 105.187 464.398 104.76C463.753 104.333 462.993 104.12 462.118 104.12C461.26 104.12 460.529 104.312 459.926 104.696C459.324 105.075 458.862 105.608 458.542 106.296C458.222 106.979 458.057 107.773 458.046 108.68C458.057 109.565 458.217 110.352 458.526 111.04C458.841 111.728 459.3 112.267 459.902 112.656C460.505 113.045 461.241 113.24 462.11 113.24ZM468.305 116.84H469.481L474.121 104.36H472.921L470.305 111.464L467.465 104.36H466.217L469.729 112.976L468.305 116.84Z" fill="white"/>
<path d="M5.621 161.371C6.33967 161.371 7.014 161.238 7.644 160.972C8.274 160.701 8.827 160.328 9.303 159.852C9.779 159.376 10.1523 158.823 10.423 158.193C10.6937 157.563 10.829 156.889 10.829 156.17C10.829 155.451 10.6937 154.777 10.423 154.147C10.1523 153.517 9.779 152.964 9.303 152.488C8.827 152.012 8.274 151.641 7.644 151.375C7.014 151.104 6.33967 150.969 5.621 150.969C4.90233 150.969 4.228 151.104 3.598 151.375C2.97267 151.641 2.422 152.012 1.946 152.488C1.47 152.964 1.09667 153.517 0.826 154.147C0.555333 154.777 0.42 155.451 0.42 156.17C0.42 156.889 0.555333 157.563 0.826 158.193C1.09667 158.823 1.47 159.376 1.946 159.852C2.422 160.328 2.97267 160.701 3.598 160.972C4.228 161.238 4.90233 161.371 5.621 161.371ZM5.621 160.37C5.03767 160.37 4.49167 160.263 3.983 160.048C3.47433 159.829 3.02633 159.528 2.639 159.145C2.25633 158.758 1.95533 158.31 1.736 157.801C1.52133 157.292 1.414 156.746 1.414 156.163C1.414 155.584 1.52133 155.043 1.736 154.539C1.95533 154.03 2.25633 153.585 2.639 153.202C3.02633 152.815 3.47433 152.514 3.983 152.299C4.49167 152.08 5.03767 151.97 5.621 151.97C6.19967 151.97 6.741 152.08 7.245 152.299C7.75367 152.514 8.19933 152.815 8.582 153.202C8.96933 153.585 9.27033 154.03 9.485 154.539C9.70433 155.043 9.814 155.584 9.814 156.163C9.814 156.746 9.70433 157.292 9.485 157.801C9.27033 158.31 8.96933 158.758 8.582 159.145C8.19933 159.528 7.75367 159.829 7.245 160.048C6.741 160.263 6.19967 160.37 5.621 160.37ZM5.684 159.117C6.26267 159.117 6.762 158.977 7.182 158.697C7.35467 158.576 7.52033 158.419 7.679 158.228C7.83767 158.032 7.96833 157.799 8.071 157.528L7.189 157.29C7.12833 157.439 7.05367 157.577 6.965 157.703C6.87633 157.824 6.76433 157.932 6.629 158.025C6.36767 158.202 6.055 158.291 5.691 158.291C5.11233 158.291 4.67367 158.081 4.375 157.661C4.23033 157.465 4.123 157.234 4.053 156.968C3.98767 156.702 3.955 156.427 3.955 156.142C3.955 155.881 3.98533 155.617 4.046 155.351C4.10667 155.085 4.21633 154.852 4.375 154.651C4.70167 154.236 5.14033 154.028 5.691 154.028C5.85433 154.028 6.01533 154.051 6.174 154.098C6.33733 154.14 6.48433 154.208 6.615 154.301C6.88567 154.497 7.084 154.754 7.21 155.071L8.071 154.812C7.99633 154.537 7.87267 154.294 7.7 154.084C7.52733 153.874 7.329 153.699 7.105 153.559C6.88567 153.424 6.664 153.33 6.44 153.279C6.216 153.228 5.978 153.202 5.726 153.202C4.83933 153.202 4.151 153.508 3.661 154.119C3.43233 154.404 3.269 154.723 3.171 155.078C3.07767 155.428 3.02867 155.785 3.024 156.149C3.024 156.504 3.06833 156.858 3.157 157.213C3.25033 157.568 3.41833 157.899 3.661 158.207C3.913 158.52 4.207 158.751 4.543 158.9C4.879 159.045 5.25933 159.117 5.684 159.117ZM14.7547 160.993H21.3347V160.006H16.3227L19.9067 156.772C20.3967 156.333 20.756 155.909 20.9847 155.498C21.218 155.087 21.3347 154.565 21.3347 153.93C21.3347 153.328 21.1924 152.784 20.9077 152.299C20.6277 151.814 20.2427 151.429 19.7527 151.144C19.2674 150.855 18.719 150.71 18.1077 150.71C17.487 150.71 16.927 150.85 16.4277 151.13C15.933 151.405 15.541 151.786 15.2517 152.271C14.9624 152.752 14.8177 153.3 14.8177 153.916H15.8677C15.863 153.519 15.9564 153.153 16.1477 152.817C16.3437 152.481 16.6097 152.21 16.9457 152.005C17.2817 151.8 17.6644 151.697 18.0937 151.697C18.509 151.697 18.8824 151.797 19.2137 151.998C19.545 152.194 19.8064 152.46 19.9977 152.796C20.1937 153.132 20.2917 153.508 20.2917 153.923C20.2917 154.273 20.2264 154.609 20.0957 154.931C19.965 155.253 19.706 155.589 19.3187 155.939L14.7617 160.055L14.7547 160.993ZM26.3091 161.21C26.9344 161.21 27.4944 161.065 27.9891 160.776C28.4837 160.487 28.8757 160.095 29.1651 159.6C29.4544 159.101 29.5991 158.541 29.5991 157.92V154C29.5991 153.375 29.4544 152.815 29.1651 152.32C28.8757 151.825 28.4837 151.433 27.9891 151.144C27.4944 150.855 26.9344 150.71 26.3091 150.71C25.6884 150.71 25.1284 150.855 24.6291 151.144C24.1344 151.433 23.7424 151.825 23.4531 152.32C23.1637 152.815 23.0191 153.375 23.0191 154V157.92C23.0191 158.541 23.1637 159.101 23.4531 159.6C23.7424 160.095 24.1344 160.487 24.6291 160.776C25.1284 161.065 25.6884 161.21 26.3091 161.21ZM26.3091 160.216C25.8984 160.216 25.5227 160.116 25.1821 159.915C24.8414 159.71 24.5684 159.437 24.3631 159.096C24.1624 158.755 24.0621 158.38 24.0621 157.969V153.951C24.0621 153.536 24.1624 153.158 24.3631 152.817C24.5684 152.476 24.8414 152.206 25.1821 152.005C25.5227 151.8 25.8984 151.697 26.3091 151.697C26.7244 151.697 27.1001 151.8 27.4361 152.005C27.7767 152.206 28.0474 152.476 28.2481 152.817C28.4534 153.158 28.5561 153.536 28.5561 153.951V157.969C28.5561 158.38 28.4534 158.755 28.2481 159.096C28.0474 159.437 27.7767 159.71 27.4361 159.915C27.1001 160.116 26.7244 160.216 26.3091 160.216ZM31.284 160.993H37.864V160.006H32.852L36.436 156.772C36.926 156.333 37.2853 155.909 37.514 155.498C37.7473 155.087 37.864 154.565 37.864 153.93C37.864 153.328 37.7217 152.784 37.437 152.299C37.157 151.814 36.772 151.429 36.282 151.144C35.7967 150.855 35.2483 150.71 34.637 150.71C34.0163 150.71 33.4563 150.85 32.957 151.13C32.4623 151.405 32.0703 151.786 31.781 152.271C31.4917 152.752 31.347 153.3 31.347 153.916H32.397C32.3923 153.519 32.4857 153.153 32.677 152.817C32.873 152.481 33.139 152.21 33.475 152.005C33.811 151.8 34.1937 151.697 34.623 151.697C35.0383 151.697 35.4117 151.797 35.743 151.998C36.0743 152.194 36.3357 152.46 36.527 152.796C36.723 153.132 36.821 153.508 36.821 153.923C36.821 154.273 36.7557 154.609 36.625 154.931C36.4943 155.253 36.2353 155.589 35.848 155.939L31.291 160.055L31.284 160.993ZM42.8384 161.21C43.4637 161.21 44.0237 161.065 44.5184 160.776C45.013 160.487 45.405 160.095 45.6944 159.6C45.9837 159.101 46.1284 158.541 46.1284 157.92V154C46.1284 153.375 45.9837 152.815 45.6944 152.32C45.405 151.825 45.013 151.433 44.5184 151.144C44.0237 150.855 43.4637 150.71 42.8384 150.71C42.2177 150.71 41.6577 150.855 41.1584 151.144C40.6637 151.433 40.2717 151.825 39.9824 152.32C39.693 152.815 39.5484 153.375 39.5484 154V157.92C39.5484 158.541 39.693 159.101 39.9824 159.6C40.2717 160.095 40.6637 160.487 41.1584 160.776C41.6577 161.065 42.2177 161.21 42.8384 161.21ZM42.8384 160.216C42.4277 160.216 42.052 160.116 41.7114 159.915C41.3707 159.71 41.0977 159.437 40.8924 159.096C40.6917 158.755 40.5914 158.38 40.5914 157.969V153.951C40.5914 153.536 40.6917 153.158 40.8924 152.817C41.0977 152.476 41.3707 152.206 41.7114 152.005C42.052 151.8 42.4277 151.697 42.8384 151.697C43.2537 151.697 43.6294 151.8 43.9654 152.005C44.306 152.206 44.5767 152.476 44.7774 152.817C44.9827 153.158 45.0854 153.536 45.0854 153.951V157.969C45.0854 158.38 44.9827 158.755 44.7774 159.096C44.5767 159.437 44.306 159.71 43.9654 159.915C43.6294 160.116 43.2537 160.216 42.8384 160.216ZM51.036 161H56.853V160.013H52.065V150.92H51.036V161ZM60.2094 161.21C61.5301 161.21 62.4891 160.722 63.0864 159.747V161H64.0034V156.303C64.0034 156.023 63.9894 155.748 63.9614 155.477C63.9334 155.206 63.8727 154.961 63.7794 154.742C63.5787 154.252 63.2357 153.879 62.7504 153.622C62.2697 153.361 61.6841 153.23 60.9934 153.23C60.1627 153.23 59.4861 153.417 58.9634 153.79C58.4407 154.163 58.0907 154.688 57.9134 155.365L58.9144 155.659C59.0591 155.155 59.3087 154.786 59.6634 154.553C60.0227 154.32 60.4614 154.203 60.9794 154.203C61.6981 154.203 62.2114 154.371 62.5194 154.707C62.8274 155.038 62.9861 155.545 62.9954 156.226C62.6594 156.273 62.2884 156.322 61.8824 156.373C61.4811 156.424 61.0774 156.483 60.6714 156.548C60.2654 156.613 59.8921 156.688 59.5514 156.772C58.9867 156.921 58.5247 157.171 58.1654 157.521C57.8061 157.866 57.6264 158.349 57.6264 158.97C57.6264 159.371 57.7221 159.742 57.9134 160.083C58.1047 160.424 58.3917 160.697 58.7744 160.902C59.1617 161.107 59.6401 161.21 60.2094 161.21ZM60.3284 160.321C59.9224 160.321 59.5957 160.256 59.3484 160.125C59.1057 159.99 58.9284 159.819 58.8164 159.614C58.7091 159.404 58.6554 159.189 58.6554 158.97C58.6554 158.559 58.7931 158.251 59.0684 158.046C59.3437 157.841 59.6424 157.691 59.9644 157.598C60.3797 157.486 60.8627 157.395 61.4134 157.325C61.9641 157.255 62.4867 157.19 62.9814 157.129C62.9814 157.302 62.9744 157.5 62.9604 157.724C62.9511 157.943 62.9254 158.146 62.8834 158.333C62.7854 158.902 62.5147 159.376 62.0714 159.754C61.6327 160.132 61.0517 160.321 60.3284 160.321ZM65.8187 161H66.8547V156.968C66.8547 156.114 67.046 155.444 67.4287 154.959C67.8114 154.474 68.3667 154.231 69.0947 154.231C69.622 154.231 70.0467 154.359 70.3687 154.616C70.6907 154.868 70.924 155.213 71.0687 155.652C71.2134 156.091 71.2857 156.588 71.2857 157.143V161H72.3217V156.842C72.3217 156.417 72.268 155.993 72.1607 155.568C72.058 155.143 71.89 154.756 71.6567 154.406C71.4234 154.056 71.113 153.776 70.7257 153.566C70.3384 153.356 69.86 153.251 69.2907 153.251C68.7494 153.251 68.2594 153.356 67.8207 153.566C67.3867 153.771 67.0297 154.079 66.7497 154.49V153.44H65.8187V161ZM77.0165 161.21C77.5672 161.21 78.0502 161.098 78.4655 160.874C78.8808 160.645 79.2238 160.335 79.4945 159.943V161H80.4185V150.92H79.3825V154.329C79.1072 153.984 78.7665 153.715 78.3605 153.524C77.9592 153.328 77.4972 153.23 76.9745 153.23C76.2838 153.23 75.6912 153.405 75.1965 153.755C74.7018 154.105 74.3215 154.581 74.0555 155.183C73.7942 155.785 73.6635 156.462 73.6635 157.213C73.6635 157.969 73.7942 158.648 74.0555 159.25C74.3215 159.852 74.7042 160.33 75.2035 160.685C75.7075 161.035 76.3118 161.21 77.0165 161.21ZM77.1215 160.251C76.5988 160.251 76.1602 160.118 75.8055 159.852C75.4555 159.581 75.1918 159.217 75.0145 158.76C74.8418 158.303 74.7555 157.787 74.7555 157.213C74.7555 156.644 74.8418 156.13 75.0145 155.673C75.1872 155.216 75.4485 154.854 75.7985 154.588C76.1532 154.322 76.6012 154.189 77.1425 154.189C77.9312 154.189 78.5192 154.471 78.9065 155.036C79.2985 155.596 79.4945 156.322 79.4945 157.213C79.4945 157.796 79.4082 158.317 79.2355 158.774C79.0628 159.231 78.8015 159.593 78.4515 159.859C78.1015 160.12 77.6582 160.251 77.1215 160.251ZM82.5223 152.005H83.5513V150.85H82.5223V152.005ZM82.5223 161H83.5513V153.44H82.5223V161ZM86.3989 161H87.4279V154.322H89.4929V153.44H87.4279V152.768C87.4279 151.975 87.8176 151.578 88.5969 151.578H89.4929V150.71H88.5269C88.2376 150.71 87.9459 150.74 87.6519 150.801C87.3579 150.862 87.0966 151.016 86.8679 151.263C86.6626 151.487 86.5319 151.741 86.4759 152.026C86.4246 152.306 86.3989 152.591 86.3989 152.88V153.44H85.0899V154.322H86.3989V161ZM91.6908 164.36H92.7198L96.7798 153.44H95.7298L93.4408 159.656L90.9558 153.44H89.8638L92.9368 160.979L91.6908 164.36ZM104.732 161.21C105.502 161.21 106.181 161.051 106.769 160.734C107.362 160.412 107.826 159.962 108.162 159.383C108.498 158.804 108.666 158.13 108.666 157.36V150.92H107.63V157.227C107.63 157.75 107.542 158.202 107.364 158.585C107.192 158.963 106.961 159.276 106.671 159.523C106.387 159.766 106.074 159.945 105.733 160.062C105.393 160.179 105.059 160.237 104.732 160.237C104.41 160.237 104.079 160.179 103.738 160.062C103.398 159.945 103.083 159.766 102.793 159.523C102.509 159.276 102.278 158.963 102.1 158.585C101.923 158.202 101.834 157.75 101.834 157.227V150.92L100.798 150.927V157.36C100.798 158.135 100.966 158.811 101.302 159.39C101.638 159.969 102.103 160.417 102.695 160.734C103.288 161.051 103.967 161.21 104.732 161.21ZM110.768 161H111.797V150.92H110.768V161ZM116.699 161H117.728V155.96L122.684 161H124.028L118.946 155.785L123.643 150.92H122.327L117.728 155.68V150.92H116.699V161ZM125.151 152.005H126.18V150.85H125.151V152.005ZM125.151 161H126.18V153.44H125.151V161ZM132.395 161V160.097C131.853 160.186 131.398 160.2 131.03 160.139C130.666 160.078 130.4 159.892 130.232 159.579C130.143 159.416 130.094 159.229 130.085 159.019C130.08 158.804 130.078 158.538 130.078 158.221V154.322H132.395V153.44H130.078V151.34H129.056V153.44H127.439V154.322H129.056V158.263C129.056 158.632 129.06 158.961 129.07 159.25C129.084 159.539 129.158 159.822 129.294 160.097C129.462 160.433 129.707 160.68 130.029 160.839C130.355 160.998 130.724 161.086 131.135 161.105C131.55 161.124 131.97 161.089 132.395 161ZM134.08 161H135.277V159.803H134.08V161ZM139.542 161H140.613L141.453 158.557H145.933L146.78 161H147.851L144.379 150.92H143.014L139.542 161ZM141.789 157.591L143.686 152.082L145.597 157.591H141.789ZM149.255 161H150.284V150.71H149.255V161ZM152.522 161H153.551V150.71H152.522V161ZM158.453 161H159.482V157.227C159.482 156.774 159.533 156.324 159.636 155.876C159.743 155.423 159.986 155.048 160.364 154.749C160.639 154.525 160.938 154.397 161.26 154.364C161.586 154.327 161.89 154.341 162.17 154.406V153.44C161.838 153.356 161.463 153.354 161.043 153.433C160.623 153.508 160.263 153.676 159.965 153.937C159.741 154.105 159.545 154.338 159.377 154.637V153.44H158.453V161ZM163.638 152.005H164.667V150.85H163.638V152.005ZM163.638 161H164.667V153.44H163.638V161ZM169.698 161.21C170.207 161.21 170.659 161.112 171.056 160.916C171.453 160.72 171.786 160.449 172.057 160.104V160.881C172.062 161.768 171.887 162.437 171.532 162.89C171.177 163.343 170.589 163.569 169.768 163.569C169.371 163.569 168.982 163.476 168.599 163.289C168.216 163.107 167.922 162.806 167.717 162.386L166.786 162.904C167.108 163.492 167.54 163.917 168.081 164.178C168.627 164.439 169.189 164.57 169.768 164.57C170.692 164.57 171.429 164.369 171.98 163.968C172.531 163.567 172.874 162.944 173.009 162.099C173.042 161.908 173.063 161.712 173.072 161.511C173.086 161.315 173.093 161.11 173.093 160.895V153.44H172.176V154.483C171.901 154.091 171.551 153.785 171.126 153.566C170.706 153.342 170.216 153.23 169.656 153.23C168.965 153.23 168.373 153.405 167.878 153.755C167.383 154.105 167.003 154.581 166.737 155.183C166.476 155.785 166.345 156.462 166.345 157.213C166.345 157.969 166.476 158.648 166.737 159.25C167.003 159.852 167.386 160.33 167.885 160.685C168.389 161.035 168.993 161.21 169.698 161.21ZM169.803 160.251C169.28 160.251 168.842 160.118 168.487 159.852C168.137 159.581 167.873 159.217 167.696 158.76C167.523 158.303 167.437 157.787 167.437 157.213C167.437 156.644 167.523 156.13 167.696 155.673C167.869 155.216 168.13 154.854 168.48 154.588C168.835 154.322 169.283 154.189 169.824 154.189C170.613 154.189 171.201 154.471 171.588 155.036C171.98 155.596 172.176 156.322 172.176 157.213C172.176 157.796 172.09 158.317 171.917 158.774C171.744 159.231 171.483 159.593 171.133 159.859C170.783 160.12 170.34 160.251 169.803 160.251ZM175.043 161H176.079V156.968C176.079 156.114 176.271 155.444 176.653 154.959C177.036 154.474 177.591 154.231 178.319 154.231C178.847 154.231 179.271 154.359 179.593 154.616C179.915 154.868 180.149 155.213 180.293 155.652C180.438 156.091 180.51 156.588 180.51 157.143V161H181.546V156.842C181.546 156.417 181.493 155.993 181.385 155.568C181.283 155.143 181.115 154.756 180.881 154.406C180.648 154.056 180.338 153.776 179.95 153.566C179.563 153.356 179.085 153.251 178.515 153.251C177.974 153.251 177.484 153.356 177.045 153.566C176.611 153.771 176.254 154.079 175.974 154.49V150.92H175.043V161ZM187.479 161V160.097C186.937 160.186 186.482 160.2 186.114 160.139C185.75 160.078 185.484 159.892 185.316 159.579C185.227 159.416 185.178 159.229 185.169 159.019C185.164 158.804 185.162 158.538 185.162 158.221V154.322H187.479V153.44H185.162V151.34H184.14V153.44H182.523V154.322H184.14V158.263C184.14 158.632 184.144 158.961 184.154 159.25C184.168 159.539 184.242 159.822 184.378 160.097C184.546 160.433 184.791 160.68 185.113 160.839C185.439 160.998 185.808 161.086 186.219 161.105C186.634 161.124 187.054 161.089 187.479 161ZM191.789 161.203C192.718 161.203 193.446 161 193.973 160.594C194.505 160.183 194.771 159.621 194.771 158.907C194.771 158.515 194.687 158.186 194.519 157.92C194.356 157.654 194.074 157.423 193.672 157.227C193.276 157.031 192.73 156.844 192.034 156.667C191.442 156.518 190.984 156.38 190.662 156.254C190.345 156.128 190.126 155.995 190.004 155.855C189.883 155.71 189.822 155.538 189.822 155.337C189.822 154.978 189.99 154.691 190.326 154.476C190.662 154.261 191.099 154.159 191.635 154.168C192.205 154.177 192.674 154.313 193.042 154.574C193.411 154.831 193.633 155.181 193.707 155.624L194.757 155.435C194.706 154.996 194.543 154.611 194.267 154.28C193.992 153.949 193.628 153.692 193.175 153.51C192.727 153.323 192.219 153.23 191.649 153.23C191.08 153.23 190.578 153.321 190.144 153.503C189.715 153.68 189.379 153.932 189.136 154.259C188.898 154.581 188.779 154.957 188.779 155.386C188.779 155.736 188.859 156.035 189.017 156.282C189.181 156.525 189.458 156.742 189.85 156.933C190.242 157.12 190.779 157.306 191.46 157.493C192.1 157.666 192.578 157.815 192.895 157.941C193.217 158.067 193.432 158.205 193.539 158.354C193.647 158.499 193.7 158.688 193.7 158.921C193.7 159.332 193.535 159.658 193.203 159.901C192.872 160.144 192.419 160.265 191.845 160.265C191.257 160.265 190.763 160.139 190.361 159.887C189.96 159.63 189.706 159.287 189.598 158.858L188.548 159.033C188.679 159.714 189.029 160.246 189.598 160.629C190.172 161.012 190.903 161.203 191.789 161.203ZM199.126 161H200.155V157.227C200.155 156.774 200.207 156.324 200.309 155.876C200.417 155.423 200.659 155.048 201.037 154.749C201.313 154.525 201.611 154.397 201.933 154.364C202.26 154.327 202.563 154.341 202.843 154.406V153.44C202.512 153.356 202.136 153.354 201.716 153.433C201.296 153.508 200.937 153.676 200.638 153.937C200.414 154.105 200.218 154.338 200.05 154.637V153.44H199.126V161ZM207.234 161.21C207.966 161.21 208.622 161.03 209.201 160.671C209.784 160.312 210.225 159.801 210.524 159.138L209.565 158.767C209.084 159.738 208.293 160.223 207.192 160.223C206.436 160.223 205.843 159.987 205.414 159.516C204.989 159.045 204.756 158.375 204.714 157.507H210.671C210.708 156.172 210.416 155.127 209.796 154.371C209.18 153.61 208.312 153.23 207.192 153.23C206.464 153.23 205.831 153.393 205.295 153.72C204.763 154.047 204.35 154.511 204.056 155.113C203.762 155.715 203.615 156.429 203.615 157.255C203.615 158.053 203.762 158.748 204.056 159.341C204.354 159.934 204.774 160.393 205.316 160.72C205.862 161.047 206.501 161.21 207.234 161.21ZM207.22 154.175C208.643 154.175 209.434 154.999 209.593 156.646H204.735C204.814 155.848 205.066 155.237 205.491 154.812C205.915 154.387 206.492 154.175 207.22 154.175ZM215.045 161.203C215.974 161.203 216.702 161 217.229 160.594C217.761 160.183 218.027 159.621 218.027 158.907C218.027 158.515 217.943 158.186 217.775 157.92C217.612 157.654 217.329 157.423 216.928 157.227C216.531 157.031 215.985 156.844 215.29 156.667C214.697 156.518 214.24 156.38 213.918 156.254C213.601 156.128 213.381 155.995 213.26 155.855C213.139 155.71 213.078 155.538 213.078 155.337C213.078 154.978 213.246 154.691 213.582 154.476C213.918 154.261 214.354 154.159 214.891 154.168C215.46 154.177 215.929 154.313 216.298 154.574C216.667 154.831 216.888 155.181 216.963 155.624L218.013 155.435C217.962 154.996 217.798 154.611 217.523 154.28C217.248 153.949 216.884 153.692 216.431 153.51C215.983 153.323 215.474 153.23 214.905 153.23C214.336 153.23 213.834 153.321 213.4 153.503C212.971 153.68 212.635 153.932 212.392 154.259C212.154 154.581 212.035 154.957 212.035 155.386C212.035 155.736 212.114 156.035 212.273 156.282C212.436 156.525 212.714 156.742 213.106 156.933C213.498 157.12 214.035 157.306 214.716 157.493C215.355 157.666 215.834 157.815 216.151 157.941C216.473 158.067 216.688 158.205 216.795 158.354C216.902 158.499 216.956 158.688 216.956 158.921C216.956 159.332 216.79 159.658 216.459 159.901C216.128 160.144 215.675 160.265 215.101 160.265C214.513 160.265 214.018 160.139 213.617 159.887C213.216 159.63 212.961 159.287 212.854 158.858L211.804 159.033C211.935 159.714 212.285 160.246 212.854 160.629C213.428 161.012 214.158 161.203 215.045 161.203ZM222.779 161.21C223.511 161.21 224.167 161.03 224.746 160.671C225.329 160.312 225.77 159.801 226.069 159.138L225.11 158.767C224.629 159.738 223.838 160.223 222.737 160.223C221.981 160.223 221.388 159.987 220.959 159.516C220.534 159.045 220.301 158.375 220.259 157.507H226.216C226.253 156.172 225.961 155.127 225.341 154.371C224.725 153.61 223.857 153.23 222.737 153.23C222.009 153.23 221.376 153.393 220.84 153.72C220.308 154.047 219.895 154.511 219.601 155.113C219.307 155.715 219.16 156.429 219.16 157.255C219.16 158.053 219.307 158.748 219.601 159.341C219.899 159.934 220.319 160.393 220.861 160.72C221.407 161.047 222.046 161.21 222.779 161.21ZM222.765 154.175C224.188 154.175 224.979 154.999 225.138 156.646H220.28C220.359 155.848 220.611 155.237 221.036 154.812C221.46 154.387 222.037 154.175 222.765 154.175ZM227.769 161H228.798V157.227C228.798 156.774 228.849 156.324 228.952 155.876C229.059 155.423 229.302 155.048 229.68 154.749C229.955 154.525 230.254 154.397 230.576 154.364C230.903 154.327 231.206 154.341 231.486 154.406V153.44C231.155 153.356 230.779 153.354 230.359 153.433C229.939 153.508 229.58 153.676 229.281 153.937C229.057 154.105 228.861 154.338 228.693 154.637V153.44H227.769V161ZM234.858 161H235.922L238.666 153.44H237.609L235.39 159.656L233.157 153.44H232.114L234.858 161ZM242.849 161.21C243.582 161.21 244.237 161.03 244.816 160.671C245.399 160.312 245.84 159.801 246.139 159.138L245.18 158.767C244.699 159.738 243.908 160.223 242.807 160.223C242.051 160.223 241.458 159.987 241.029 159.516C240.604 159.045 240.371 158.375 240.329 157.507H246.286C246.323 156.172 246.032 155.127 245.411 154.371C244.795 153.61 243.927 153.23 242.807 153.23C242.079 153.23 241.447 153.393 240.91 153.72C240.378 154.047 239.965 154.511 239.671 155.113C239.377 155.715 239.23 156.429 239.23 157.255C239.23 158.053 239.377 158.748 239.671 159.341C239.97 159.934 240.39 160.393 240.931 160.72C241.477 161.047 242.116 161.21 242.849 161.21ZM242.835 154.175C244.258 154.175 245.049 154.999 245.208 156.646H240.35C240.429 155.848 240.681 155.237 241.106 154.812C241.531 154.387 242.107 154.175 242.835 154.175ZM250.772 161.21C251.323 161.21 251.806 161.098 252.221 160.874C252.637 160.645 252.98 160.335 253.25 159.943V161H254.174V150.92H253.138V154.329C252.863 153.984 252.522 153.715 252.116 153.524C251.715 153.328 251.253 153.23 250.73 153.23C250.04 153.23 249.447 153.405 248.952 153.755C248.458 154.105 248.077 154.581 247.811 155.183C247.55 155.785 247.419 156.462 247.419 157.213C247.419 157.969 247.55 158.648 247.811 159.25C248.077 159.852 248.46 160.33 248.959 160.685C249.463 161.035 250.068 161.21 250.772 161.21ZM250.877 160.251C250.355 160.251 249.916 160.118 249.561 159.852C249.211 159.581 248.948 159.217 248.77 158.76C248.598 158.303 248.511 157.787 248.511 157.213C248.511 156.644 248.598 156.13 248.77 155.673C248.943 155.216 249.204 154.854 249.554 154.588C249.909 154.322 250.357 154.189 250.898 154.189C251.687 154.189 252.275 154.471 252.662 155.036C253.054 155.596 253.25 156.322 253.25 157.213C253.25 157.796 253.164 158.317 252.991 158.774C252.819 159.231 252.557 159.593 252.207 159.859C251.857 160.12 251.414 160.251 250.877 160.251Z" fill="#D9DBE1"/>
<defs>
<clipPath id="clip0_2_490">
<rect width="32" height="32" fill="white"/>
</clipPath>
</defs>
</svg>
