<svg width="445" height="168" viewBox="0 0 445 168" fill="none" xmlns="http://www.w3.org/2000/svg">
<path d="M3.36 50H9.888V38.288H17.16L22.848 50H30.24L24 37.184C25.968 36.288 27.416 34.936 28.344 33.128C29.288 31.304 29.76 29.216 29.76 26.864C29.76 23.952 29.048 21.472 27.624 19.424C26.2 17.376 23.936 16.112 20.832 15.632C20.384 15.552 19.872 15.504 19.296 15.488C18.736 15.456 18.288 15.44 17.952 15.44H3.36V50ZM9.888 32.192V21.536H17.664C18 21.536 18.368 21.552 18.768 21.584C19.168 21.616 19.536 21.68 19.872 21.776C20.752 22.016 21.432 22.424 21.912 23C22.392 23.56 22.72 24.192 22.896 24.896C23.088 25.584 23.184 26.24 23.184 26.864C23.184 27.488 23.088 28.152 22.896 28.856C22.72 29.544 22.392 30.176 21.912 30.752C21.432 31.312 20.752 31.712 19.872 31.952C19.536 32.048 19.168 32.112 18.768 32.144C18.368 32.176 18 32.192 17.664 32.192H9.888ZM47.5643 50.72C50.0603 50.72 52.3563 50.064 54.4523 48.752C56.5643 47.44 58.1083 45.6 59.0843 43.232L52.5563 41.36C51.5643 43.536 49.7723 44.624 47.1803 44.624C45.4043 44.624 44.0043 44.128 42.9803 43.136C41.9723 42.144 41.3483 40.72 41.1083 38.864H59.3003C59.5723 35.728 59.2523 33 58.3403 30.68C57.4283 28.36 56.0203 26.56 54.1163 25.28C52.2123 24 49.9003 23.36 47.1803 23.36C44.6203 23.36 42.3563 23.944 40.3883 25.112C38.4203 26.264 36.8763 27.888 35.7563 29.984C34.6363 32.08 34.0763 34.544 34.0763 37.376C34.0763 39.968 34.6443 42.272 35.7803 44.288C36.9323 46.288 38.5163 47.864 40.5323 49.016C42.5643 50.152 44.9083 50.72 47.5643 50.72ZM47.4683 29.024C49.0363 29.024 50.2363 29.416 51.0683 30.2C51.9163 30.984 52.4603 32.256 52.7003 34.016H41.2763C41.9643 30.688 44.0283 29.024 47.4683 29.024ZM71.4506 50.72C73.4506 50.72 75.1306 50.416 76.4906 49.808C77.8666 49.184 79.1306 48.192 80.2826 46.832V50H85.9946V34.16C85.9946 32.976 85.9466 31.904 85.8506 30.944C85.7546 29.984 85.4506 29.024 84.9386 28.064C84.0266 26.336 82.6826 25.12 80.9066 24.416C79.1306 23.712 77.0986 23.36 74.8106 23.36C71.6906 23.36 69.2266 24.032 67.4186 25.376C65.6106 26.72 64.3786 28.464 63.7226 30.608L69.6266 32.48C70.0426 31.296 70.7706 30.472 71.8106 30.008C72.8506 29.544 73.8506 29.312 74.8106 29.312C76.3466 29.312 77.4906 29.6 78.2426 30.176C78.9946 30.736 79.4346 31.624 79.5626 32.84C77.1306 33.192 74.9866 33.536 73.1306 33.872C71.2746 34.192 69.7226 34.576 68.4746 35.024C66.3946 35.792 64.9306 36.84 64.0826 38.168C63.2346 39.48 62.8106 41.04 62.8106 42.848C62.8106 44.288 63.1386 45.608 63.7946 46.808C64.4666 47.992 65.4426 48.944 66.7226 49.664C68.0186 50.368 69.5946 50.72 71.4506 50.72ZM72.8426 45.584C71.7226 45.584 70.8346 45.336 70.1786 44.84C69.5226 44.328 69.1946 43.632 69.1946 42.752C69.1946 42.096 69.4026 41.536 69.8186 41.072C70.2346 40.592 70.9226 40.16 71.8826 39.776C72.6186 39.504 73.5226 39.256 74.5946 39.032C75.6826 38.792 77.3226 38.488 79.5146 38.12C79.4986 38.744 79.4506 39.432 79.3706 40.184C79.2906 40.92 79.1146 41.568 78.8426 42.128C78.6666 42.496 78.3306 42.952 77.8346 43.496C77.3546 44.04 76.6986 44.528 75.8666 44.96C75.0506 45.376 74.0426 45.584 72.8426 45.584ZM92.715 50H99.243V14.72H92.715V50ZM129.104 50.72C130.864 50.72 132.568 50.496 134.216 50.048C135.88 49.6 137.368 48.928 138.68 48.032C139.992 47.12 141.032 45.976 141.8 44.6C142.584 43.208 142.976 41.584 142.976 39.728C142.976 37.984 142.648 36.544 141.992 35.408C141.352 34.272 140.528 33.36 139.52 32.672C138.528 31.968 137.488 31.424 136.4 31.04C135.312 30.64 134.32 30.32 133.424 30.08L127.424 28.448C126.688 28.256 125.968 28.016 125.264 27.728C124.56 27.44 123.976 27.064 123.512 26.6C123.048 26.12 122.816 25.504 122.816 24.752C122.816 23.936 123.096 23.232 123.656 22.64C124.232 22.048 124.968 21.6 125.864 21.296C126.776 20.976 127.744 20.832 128.768 20.864C130.336 20.912 131.776 21.376 133.088 22.256C134.4 23.136 135.248 24.416 135.632 26.096L142.688 24.896C141.856 21.648 140.24 19.16 137.84 17.432C135.44 15.704 132.448 14.816 128.864 14.768C126.496 14.752 124.336 15.12 122.384 15.872C120.432 16.624 118.872 17.768 117.704 19.304C116.536 20.84 115.952 22.768 115.952 25.088C115.952 26.736 116.224 28.104 116.768 29.192C117.328 30.264 118.024 31.128 118.855 31.784C119.688 32.44 120.544 32.944 121.424 33.296C122.32 33.648 123.104 33.92 123.776 34.112L132.752 36.752C134.096 37.152 134.992 37.656 135.44 38.264C135.888 38.856 136.112 39.504 136.112 40.208C136.112 41.168 135.784 41.976 135.128 42.632C134.488 43.288 133.664 43.784 132.656 44.12C131.648 44.456 130.608 44.624 129.536 44.624C127.616 44.624 125.904 44.088 124.4 43.016C122.896 41.944 121.904 40.416 121.424 38.432L114.608 39.44C114.96 41.776 115.792 43.792 117.104 45.488C118.432 47.168 120.12 48.464 122.168 49.376C124.232 50.272 126.544 50.72 129.104 50.72ZM163.803 50V44.576C162.267 44.784 160.867 44.848 159.603 44.768C158.339 44.688 157.419 44.192 156.843 43.28C156.539 42.8 156.371 42.16 156.339 41.36C156.323 40.544 156.315 39.632 156.315 38.624V29.12H163.803V24.08H156.315V16.88H149.787V24.08H145.371V29.12H149.787V39.008C149.787 40.56 149.803 41.952 149.835 43.184C149.867 44.4 150.203 45.6 150.843 46.784C151.547 48.048 152.571 48.968 153.915 49.544C155.275 50.104 156.811 50.4 158.523 50.432C160.251 50.48 162.011 50.336 163.803 50ZM179.79 50.72C182.382 50.72 184.662 50.144 186.63 48.992C188.614 47.824 190.158 46.216 191.262 44.168C192.382 42.104 192.942 39.728 192.942 37.04C192.942 34.368 192.39 32.008 191.286 29.96C190.182 27.896 188.638 26.28 186.654 25.112C184.686 23.944 182.398 23.36 179.79 23.36C177.23 23.36 174.966 23.936 172.998 25.088C171.03 26.24 169.486 27.848 168.366 29.912C167.246 31.96 166.686 34.336 166.686 37.04C166.686 39.712 167.23 42.08 168.318 44.144C169.422 46.192 170.958 47.8 172.926 48.968C174.894 50.136 177.182 50.72 179.79 50.72ZM179.79 44.624C177.758 44.624 176.214 43.944 175.158 42.584C174.118 41.208 173.598 39.36 173.598 37.04C173.598 34.784 174.094 32.96 175.086 31.568C176.094 30.16 177.662 29.456 179.79 29.456C181.854 29.456 183.406 30.144 184.446 31.52C185.502 32.896 186.03 34.736 186.03 37.04C186.03 39.264 185.51 41.088 184.47 42.512C183.446 43.92 181.886 44.624 179.79 44.624ZM198.219 50H204.795V36.752C204.795 33.744 205.979 31.696 208.347 30.608C209.115 30.24 209.971 30.024 210.915 29.96C211.875 29.88 212.715 29.952 213.435 30.176V24.08C212.267 23.936 211.099 23.968 209.931 24.176C208.763 24.368 207.707 24.752 206.763 25.328C206.155 25.68 205.619 26.104 205.155 26.6C204.707 27.096 204.315 27.648 203.979 28.256V24.08H198.219V50ZM218.481 20.48H225.009V14.72H218.481V20.48ZM218.481 50H225.009V24.08H218.481V50ZM244.252 50.72C246.748 50.72 249.044 50.064 251.14 48.752C253.252 47.44 254.796 45.6 255.772 43.232L249.244 41.36C248.252 43.536 246.46 44.624 243.868 44.624C242.092 44.624 240.692 44.128 239.668 43.136C238.66 42.144 238.036 40.72 237.796 38.864H255.988C256.26 35.728 255.94 33 255.028 30.68C254.116 28.36 252.708 26.56 250.804 25.28C248.9 24 246.588 23.36 243.868 23.36C241.308 23.36 239.044 23.944 237.076 25.112C235.108 26.264 233.564 27.888 232.444 29.984C231.324 32.08 230.764 34.544 230.764 37.376C230.764 39.968 231.332 42.272 232.468 44.288C233.62 46.288 235.204 47.864 237.22 49.016C239.252 50.152 241.596 50.72 244.252 50.72ZM244.156 29.024C245.724 29.024 246.924 29.416 247.756 30.2C248.604 30.984 249.148 32.256 249.388 34.016H237.964C238.652 30.688 240.716 29.024 244.156 29.024ZM271.535 50.72C274.927 50.72 277.583 49.96 279.503 48.44C281.423 46.92 282.383 44.832 282.383 42.176C282.383 40.16 281.759 38.568 280.511 37.4C279.279 36.232 277.183 35.264 274.223 34.496C272.207 33.984 270.703 33.568 269.711 33.248C268.735 32.928 268.087 32.616 267.767 32.312C267.463 32.008 267.311 31.632 267.311 31.184C267.311 30.432 267.671 29.856 268.391 29.456C269.127 29.056 270.095 28.896 271.295 28.976C273.839 29.168 275.231 30.256 275.471 32.24L282.143 31.04C281.807 28.688 280.655 26.824 278.687 25.448C276.719 24.056 274.207 23.36 271.151 23.36C268.015 23.36 265.511 24.096 263.639 25.568C261.767 27.04 260.831 29.024 260.831 31.52C260.831 33.504 261.479 35.072 262.775 36.224C264.071 37.36 266.303 38.336 269.471 39.152C271.343 39.648 272.719 40.048 273.599 40.352C274.495 40.656 275.071 40.968 275.327 41.288C275.583 41.592 275.711 42 275.711 42.512C275.711 43.328 275.391 43.968 274.751 44.432C274.111 44.88 273.199 45.104 272.015 45.104C270.575 45.104 269.383 44.76 268.439 44.072C267.511 43.384 266.911 42.432 266.639 41.216L259.967 42.224C260.399 44.928 261.615 47.024 263.615 48.512C265.631 49.984 268.271 50.72 271.535 50.72ZM299.426 50H305.954V29.12H311.954V24.08H305.954V22.64C305.954 21.92 306.202 21.304 306.698 20.792C307.194 20.264 307.954 20 308.978 20H311.954V14.72H308.738C308.114 14.72 307.362 14.736 306.482 14.768C305.602 14.784 304.69 14.96 303.746 15.296C302.818 15.616 301.954 16.224 301.154 17.12C300.546 17.792 300.122 18.544 299.882 19.376C299.642 20.208 299.506 21.04 299.474 21.872C299.442 22.688 299.426 23.424 299.426 24.08H295.346V29.12H299.426V50ZM315.782 50H322.358V36.752C322.358 33.744 323.542 31.696 325.91 30.608C326.678 30.24 327.534 30.024 328.478 29.96C329.438 29.88 330.278 29.952 330.998 30.176V24.08C329.83 23.936 328.662 23.968 327.494 24.176C326.326 24.368 325.27 24.752 324.326 25.328C323.718 25.68 323.182 26.104 322.718 26.6C322.27 27.096 321.878 27.648 321.542 28.256V24.08H315.782V50ZM346.758 50.72C349.35 50.72 351.63 50.144 353.598 48.992C355.582 47.824 357.126 46.216 358.23 44.168C359.35 42.104 359.91 39.728 359.91 37.04C359.91 34.368 359.358 32.008 358.254 29.96C357.15 27.896 355.606 26.28 353.622 25.112C351.654 23.944 349.366 23.36 346.758 23.36C344.198 23.36 341.934 23.936 339.966 25.088C337.998 26.24 336.454 27.848 335.334 29.912C334.214 31.96 333.654 34.336 333.654 37.04C333.654 39.712 334.198 42.08 335.286 44.144C336.39 46.192 337.926 47.8 339.894 48.968C341.862 50.136 344.15 50.72 346.758 50.72ZM346.758 44.624C344.726 44.624 343.182 43.944 342.126 42.584C341.086 41.208 340.566 39.36 340.566 37.04C340.566 34.784 341.062 32.96 342.054 31.568C343.062 30.16 344.63 29.456 346.758 29.456C348.822 29.456 350.374 30.144 351.414 31.52C352.47 32.896 352.998 34.736 352.998 37.04C352.998 39.264 352.478 41.088 351.438 42.512C350.414 43.92 348.854 44.624 346.758 44.624ZM365.14 50H371.716V34.304C371.716 32.816 372.124 31.608 372.94 30.68C373.772 29.736 374.868 29.264 376.228 29.264C377.652 29.264 378.764 29.744 379.564 30.704C380.38 31.648 380.788 32.976 380.788 34.688V50H387.316V34.304C387.316 32.816 387.724 31.608 388.54 30.68C389.372 29.736 390.468 29.264 391.828 29.264C393.252 29.264 394.364 29.744 395.164 30.704C395.98 31.648 396.388 32.976 396.388 34.688V50H402.916V32.96C402.916 30.128 402.156 27.84 400.636 26.096C399.132 24.336 396.9 23.456 393.94 23.456C392.276 23.456 390.748 23.816 389.356 24.536C387.964 25.256 386.852 26.24 386.02 27.488C385.348 26.272 384.388 25.296 383.14 24.56C381.892 23.824 380.34 23.456 378.484 23.456C376.916 23.456 375.476 23.768 374.164 24.392C372.852 25 371.764 25.84 370.9 26.912V24.08H365.14V50ZM3.36 114H9.888V102.288H17.16L22.848 114H30.24L24 101.184C25.968 100.288 27.416 98.936 28.344 97.128C29.288 95.304 29.76 93.216 29.76 90.864C29.76 87.952 29.048 85.472 27.624 83.424C26.2 81.376 23.936 80.112 20.832 79.632C20.384 79.552 19.872 79.504 19.296 79.488C18.736 79.456 18.288 79.44 17.952 79.44H3.36V114ZM9.888 96.192V85.536H17.664C18 85.536 18.368 85.552 18.768 85.584C19.168 85.616 19.536 85.68 19.872 85.776C20.752 86.016 21.432 86.424 21.912 87C22.392 87.56 22.72 88.192 22.896 88.896C23.088 89.584 23.184 90.24 23.184 90.864C23.184 91.488 23.088 92.152 22.896 92.856C22.72 93.544 22.392 94.176 21.912 94.752C21.432 95.312 20.752 95.712 19.872 95.952C19.536 96.048 19.168 96.112 18.768 96.144C18.368 96.176 18 96.192 17.664 96.192H9.888ZM47.5643 114.72C50.0603 114.72 52.3563 114.064 54.4523 112.752C56.5643 111.44 58.1083 109.6 59.0843 107.232L52.5563 105.36C51.5643 107.536 49.7723 108.624 47.1803 108.624C45.4043 108.624 44.0043 108.128 42.9803 107.136C41.9723 106.144 41.3483 104.72 41.1083 102.864H59.3003C59.5723 99.728 59.2523 97 58.3403 94.68C57.4283 92.36 56.0203 90.56 54.1163 89.28C52.2123 88 49.9003 87.36 47.1803 87.36C44.6203 87.36 42.3563 87.944 40.3883 89.112C38.4203 90.264 36.8763 91.888 35.7563 93.984C34.6363 96.08 34.0763 98.544 34.0763 101.376C34.0763 103.968 34.6443 106.272 35.7803 108.288C36.9323 110.288 38.5163 111.864 40.5323 113.016C42.5643 114.152 44.9083 114.72 47.5643 114.72ZM47.4683 93.024C49.0363 93.024 50.2363 93.416 51.0683 94.2C51.9163 94.984 52.4603 96.256 52.7003 98.016H41.2763C41.9643 94.688 44.0283 93.024 47.4683 93.024ZM71.4506 114.72C73.4506 114.72 75.1306 114.416 76.4906 113.808C77.8666 113.184 79.1306 112.192 80.2826 110.832V114H85.9946V98.16C85.9946 96.976 85.9466 95.904 85.8506 94.944C85.7546 93.984 85.4506 93.024 84.9386 92.064C84.0266 90.336 82.6826 89.12 80.9066 88.416C79.1306 87.712 77.0986 87.36 74.8106 87.36C71.6906 87.36 69.2266 88.032 67.4186 89.376C65.6106 90.72 64.3786 92.464 63.7226 94.608L69.6266 96.48C70.0426 95.296 70.7706 94.472 71.8106 94.008C72.8506 93.544 73.8506 93.312 74.8106 93.312C76.3466 93.312 77.4906 93.6 78.2426 94.176C78.9946 94.736 79.4346 95.624 79.5626 96.84C77.1306 97.192 74.9866 97.536 73.1306 97.872C71.2746 98.192 69.7226 98.576 68.4746 99.024C66.3946 99.792 64.9306 100.84 64.0826 102.168C63.2346 103.48 62.8106 105.04 62.8106 106.848C62.8106 108.288 63.1386 109.608 63.7946 110.808C64.4666 111.992 65.4426 112.944 66.7226 113.664C68.0186 114.368 69.5946 114.72 71.4506 114.72ZM72.8426 109.584C71.7226 109.584 70.8346 109.336 70.1786 108.84C69.5226 108.328 69.1946 107.632 69.1946 106.752C69.1946 106.096 69.4026 105.536 69.8186 105.072C70.2346 104.592 70.9226 104.16 71.8826 103.776C72.6186 103.504 73.5226 103.256 74.5946 103.032C75.6826 102.792 77.3226 102.488 79.5146 102.12C79.4986 102.744 79.4506 103.432 79.3706 104.184C79.2906 104.92 79.1146 105.568 78.8426 106.128C78.6666 106.496 78.3306 106.952 77.8346 107.496C77.3546 108.04 76.6986 108.528 75.8666 108.96C75.0506 109.376 74.0426 109.584 72.8426 109.584ZM92.715 114H99.243V78.72H92.715V114ZM130.88 114.72C134.848 114.72 138.176 113.736 140.864 111.768C143.568 109.8 145.472 107.136 146.576 103.776L140 101.952C139.36 104.032 138.28 105.656 136.76 106.824C135.24 107.992 133.28 108.576 130.88 108.576C127.6 108.576 125.128 107.504 123.464 105.36C121.816 103.2 120.992 100.32 120.992 96.72C120.992 93.12 121.816 90.248 123.464 88.104C125.128 85.944 127.6 84.864 130.88 84.864C133.28 84.864 135.24 85.448 136.76 86.616C138.28 87.768 139.36 89.392 140 91.488L146.576 89.664C145.472 86.304 143.568 83.64 140.864 81.672C138.176 79.704 134.848 78.72 130.88 78.72C127.424 78.72 124.44 79.472 121.928 80.976C119.432 82.48 117.504 84.584 116.144 87.288C114.8 89.992 114.128 93.136 114.128 96.72C114.128 100.304 114.8 103.448 116.144 106.152C117.504 108.856 119.432 110.96 121.928 112.464C124.44 113.968 127.424 114.72 130.88 114.72ZM161.508 114.768C163.38 114.768 165.012 114.456 166.404 113.832C167.796 113.208 168.964 112.376 169.908 111.336V114H175.668V88.08H169.092V101.232C169.092 102.832 168.908 104.128 168.54 105.12C168.188 106.096 167.732 106.84 167.172 107.352C166.612 107.848 166.012 108.184 165.372 108.36C164.732 108.536 164.132 108.624 163.572 108.624C162.18 108.624 161.1 108.312 160.332 107.688C159.58 107.064 159.036 106.288 158.7 105.36C158.364 104.432 158.164 103.512 158.1 102.6C158.036 101.672 158.004 100.912 158.004 100.32V88.08H151.38V102.624C151.38 103.056 151.412 103.744 151.476 104.688C151.54 105.632 151.724 106.68 152.028 107.832C152.332 108.968 152.836 110.064 153.54 111.12C154.26 112.176 155.26 113.048 156.54 113.736C157.82 114.424 159.476 114.768 161.508 114.768ZM192.504 114.72C195.896 114.72 198.552 113.96 200.472 112.44C202.392 110.92 203.352 108.832 203.352 106.176C203.352 104.16 202.728 102.568 201.48 101.4C200.248 100.232 198.152 99.264 195.192 98.496C193.176 97.984 191.672 97.568 190.68 97.248C189.704 96.928 189.056 96.616 188.736 96.312C188.432 96.008 188.28 95.632 188.28 95.184C188.28 94.432 188.64 93.856 189.36 93.456C190.096 93.056 191.064 92.896 192.264 92.976C194.808 93.168 196.2 94.256 196.44 96.24L203.112 95.04C202.776 92.688 201.624 90.824 199.656 89.448C197.688 88.056 195.176 87.36 192.12 87.36C188.984 87.36 186.48 88.096 184.608 89.568C182.736 91.04 181.8 93.024 181.8 95.52C181.8 97.504 182.448 99.072 183.744 100.224C185.04 101.36 187.272 102.336 190.44 103.152C192.312 103.648 193.688 104.048 194.568 104.352C195.464 104.656 196.04 104.968 196.296 105.288C196.552 105.592 196.68 106 196.68 106.512C196.68 107.328 196.36 107.968 195.72 108.432C195.08 108.88 194.168 109.104 192.984 109.104C191.544 109.104 190.352 108.76 189.408 108.072C188.48 107.384 187.88 106.432 187.608 105.216L180.936 106.224C181.368 108.928 182.584 111.024 184.584 112.512C186.6 113.984 189.24 114.72 192.504 114.72ZM224.178 114V108.576C222.642 108.784 221.242 108.848 219.978 108.768C218.714 108.688 217.794 108.192 217.218 107.28C216.914 106.8 216.746 106.16 216.714 105.36C216.698 104.544 216.69 103.632 216.69 102.624V93.12H224.178V88.08H216.69V80.88H210.162V88.08H205.746V93.12H210.162V103.008C210.162 104.56 210.178 105.952 210.21 107.184C210.242 108.4 210.578 109.6 211.218 110.784C211.922 112.048 212.946 112.968 214.29 113.544C215.65 114.104 217.186 114.4 218.898 114.432C220.626 114.48 222.386 114.336 224.178 114ZM240.165 114.72C242.757 114.72 245.037 114.144 247.005 112.992C248.989 111.824 250.533 110.216 251.637 108.168C252.757 106.104 253.317 103.728 253.317 101.04C253.317 98.368 252.765 96.008 251.661 93.96C250.557 91.896 249.013 90.28 247.029 89.112C245.061 87.944 242.773 87.36 240.165 87.36C237.605 87.36 235.341 87.936 233.373 89.088C231.405 90.24 229.861 91.848 228.741 93.912C227.621 95.96 227.061 98.336 227.061 101.04C227.061 103.712 227.605 106.08 228.693 108.144C229.797 110.192 231.333 111.8 233.301 112.968C235.269 114.136 237.557 114.72 240.165 114.72ZM240.165 108.624C238.133 108.624 236.589 107.944 235.533 106.584C234.493 105.208 233.973 103.36 233.973 101.04C233.973 98.784 234.469 96.96 235.461 95.568C236.469 94.16 238.037 93.456 240.165 93.456C242.229 93.456 243.781 94.144 244.821 95.52C245.877 96.896 246.405 98.736 246.405 101.04C246.405 103.264 245.885 105.088 244.845 106.512C243.821 107.92 242.261 108.624 240.165 108.624ZM258.546 114H265.122V98.304C265.122 96.816 265.53 95.608 266.346 94.68C267.178 93.736 268.274 93.264 269.634 93.264C271.058 93.264 272.17 93.744 272.97 94.704C273.786 95.648 274.194 96.976 274.194 98.688V114H280.722V98.304C280.722 96.816 281.13 95.608 281.946 94.68C282.778 93.736 283.874 93.264 285.234 93.264C286.658 93.264 287.77 93.744 288.57 94.704C289.386 95.648 289.794 96.976 289.794 98.688V114H296.322V96.96C296.322 94.128 295.562 91.84 294.042 90.096C292.538 88.336 290.306 87.456 287.346 87.456C285.682 87.456 284.154 87.816 282.762 88.536C281.37 89.256 280.258 90.24 279.426 91.488C278.754 90.272 277.794 89.296 276.546 88.56C275.298 87.824 273.746 87.456 271.89 87.456C270.322 87.456 268.882 87.768 267.57 88.392C266.258 89 265.17 89.84 264.306 90.912V88.08H258.546V114ZM314.142 114.72C316.638 114.72 318.934 114.064 321.03 112.752C323.142 111.44 324.686 109.6 325.662 107.232L319.134 105.36C318.142 107.536 316.35 108.624 313.758 108.624C311.982 108.624 310.582 108.128 309.558 107.136C308.55 106.144 307.926 104.72 307.686 102.864H325.878C326.15 99.728 325.83 97 324.918 94.68C324.006 92.36 322.598 90.56 320.694 89.28C318.79 88 316.478 87.36 313.758 87.36C311.198 87.36 308.934 87.944 306.966 89.112C304.998 90.264 303.454 91.888 302.334 93.984C301.214 96.08 300.654 98.544 300.654 101.376C300.654 103.968 301.222 106.272 302.358 108.288C303.51 110.288 305.094 111.864 307.11 113.016C309.142 114.152 311.486 114.72 314.142 114.72ZM314.046 93.024C315.614 93.024 316.814 93.416 317.646 94.2C318.494 94.984 319.038 96.256 319.278 98.016H307.854C308.542 94.688 310.606 93.024 314.046 93.024ZM331.298 114H337.874V100.752C337.874 97.744 339.058 95.696 341.426 94.608C342.194 94.24 343.05 94.024 343.994 93.96C344.954 93.88 345.794 93.952 346.514 94.176V88.08C345.346 87.936 344.178 87.968 343.01 88.176C341.842 88.368 340.786 88.752 339.842 89.328C339.234 89.68 338.698 90.104 338.234 90.6C337.786 91.096 337.394 91.648 337.058 92.256V88.08H331.298V114ZM360.269 114.72C363.661 114.72 366.317 113.96 368.237 112.44C370.157 110.92 371.117 108.832 371.117 106.176C371.117 104.16 370.493 102.568 369.245 101.4C368.013 100.232 365.917 99.264 362.957 98.496C360.941 97.984 359.437 97.568 358.445 97.248C357.469 96.928 356.821 96.616 356.501 96.312C356.197 96.008 356.045 95.632 356.045 95.184C356.045 94.432 356.405 93.856 357.125 93.456C357.861 93.056 358.829 92.896 360.029 92.976C362.573 93.168 363.965 94.256 364.205 96.24L370.877 95.04C370.541 92.688 369.389 90.824 367.421 89.448C365.453 88.056 362.941 87.36 359.885 87.36C356.749 87.36 354.245 88.096 352.373 89.568C350.501 91.04 349.565 93.024 349.565 95.52C349.565 97.504 350.213 99.072 351.509 100.224C352.805 101.36 355.037 102.336 358.205 103.152C360.077 103.648 361.453 104.048 362.333 104.352C363.229 104.656 363.805 104.968 364.061 105.288C364.317 105.592 364.445 106 364.445 106.512C364.445 107.328 364.125 107.968 363.485 108.432C362.845 108.88 361.933 109.104 360.749 109.104C359.309 109.104 358.117 108.76 357.173 108.072C356.245 107.384 355.645 106.432 355.373 105.216L348.701 106.224C349.133 108.928 350.349 111.024 352.349 112.512C354.365 113.984 357.005 114.72 360.269 114.72Z" fill="#18191F"/>
<path d="M6.453 159.27C7.725 159.27 8.781 159.006 9.621 158.478C10.467 157.944 11.1 157.215 11.52 156.291C11.94 155.367 12.15 154.323 12.15 153.159C12.15 153.093 12.147 152.985 12.141 152.835C12.135 152.679 12.126 152.532 12.114 152.394H7.74V153.528H10.728C10.662 154.908 10.29 156 9.612 156.804C8.934 157.608 7.899 158.007 6.507 158.001C5.493 157.995 4.644 157.761 3.96 157.299C3.282 156.837 2.775 156.195 2.439 155.373C2.103 154.551 1.938 153.6 1.944 152.52C1.956 151.44 2.13 150.489 2.466 149.667C2.802 148.845 3.306 148.203 3.978 147.741C4.65 147.279 5.493 147.051 6.507 147.057C7.461 147.057 8.259 147.294 8.901 147.768C9.549 148.242 10.017 148.875 10.305 149.667L11.637 149.343C11.295 148.257 10.689 147.393 9.819 146.751C8.955 146.103 7.833 145.779 6.453 145.779C5.217 145.779 4.158 146.058 3.276 146.616C2.394 147.174 1.716 147.957 1.242 148.965C0.774 149.973 0.54 151.158 0.54 152.52C0.54 153.888 0.777 155.079 1.251 156.093C1.731 157.101 2.412 157.884 3.294 158.442C4.176 158.994 5.229 159.27 6.453 159.27ZM18.0644 159.27C19.0064 159.27 19.8494 159.039 20.5934 158.577C21.3434 158.115 21.9104 157.458 22.2944 156.606L21.0614 156.129C20.4434 157.377 19.4264 158.001 18.0104 158.001C17.0384 158.001 16.2764 157.698 15.7244 157.092C15.1784 156.486 14.8784 155.625 14.8244 154.509H22.4834C22.5314 152.793 22.1564 151.449 21.3584 150.477C20.5664 149.499 19.4504 149.01 18.0104 149.01C17.0744 149.01 16.2614 149.22 15.5714 149.64C14.8874 150.06 14.3564 150.657 13.9784 151.431C13.6004 152.205 13.4114 153.123 13.4114 154.185C13.4114 155.211 13.6004 156.105 13.9784 156.867C14.3624 157.629 14.9024 158.22 15.5984 158.64C16.3004 159.06 17.1224 159.27 18.0644 159.27ZM18.0464 150.225C19.8764 150.225 20.8934 151.284 21.0974 153.402H14.8514C14.9534 152.376 15.2774 151.59 15.8234 151.044C16.3694 150.498 17.1104 150.225 18.0464 150.225ZM29.7727 159V157.839C29.0767 157.953 28.4917 157.971 28.0177 157.893C27.5497 157.815 27.2077 157.575 26.9917 157.173C26.8777 156.963 26.8147 156.723 26.8027 156.453C26.7967 156.177 26.7937 155.835 26.7937 155.427V150.414H29.7727V149.28H26.7937V146.58H25.4797V149.28H23.4007V150.414H25.4797V155.481C25.4797 155.955 25.4857 156.378 25.4977 156.75C25.5157 157.122 25.6117 157.485 25.7857 157.839C26.0017 158.271 26.3167 158.589 26.7307 158.793C27.1507 158.997 27.6247 159.111 28.1527 159.135C28.6867 159.159 29.2267 159.114 29.7727 159ZM35.4713 147.435H36.7943V145.95H35.4713V147.435ZM35.4713 159H36.7943V149.28H35.4713V159ZM39.4834 159H40.8154V153.816C40.8154 152.718 41.0614 151.857 41.5534 151.233C42.0454 150.609 42.7594 150.297 43.6954 150.297C44.3734 150.297 44.9194 150.462 45.3334 150.792C45.7474 151.116 46.0474 151.56 46.2334 152.124C46.4194 152.688 46.5124 153.327 46.5124 154.041V159H47.8444V153.654C47.8444 153.108 47.7754 152.562 47.6374 152.016C47.5054 151.47 47.2894 150.972 46.9894 150.522C46.6894 150.072 46.2904 149.712 45.7924 149.442C45.2944 149.172 44.6794 149.037 43.9474 149.037C43.2514 149.037 42.6214 149.172 42.0574 149.442C41.4994 149.706 41.0404 150.102 40.6804 150.63V149.28H39.4834V159ZM53.8069 159.261C55.0009 159.261 55.9369 159 56.6149 158.478C57.2989 157.95 57.6409 157.227 57.6409 156.309C57.6409 155.805 57.5329 155.382 57.3169 155.04C57.1069 154.698 56.7439 154.401 56.2279 154.149C55.7179 153.897 55.0159 153.657 54.1219 153.429C53.3599 153.237 52.7719 153.06 52.3579 152.898C51.9499 152.736 51.6679 152.565 51.5119 152.385C51.3559 152.199 51.2779 151.977 51.2779 151.719C51.2779 151.257 51.4939 150.888 51.9259 150.612C52.3579 150.336 52.9189 150.204 53.6089 150.216C54.3409 150.228 54.9439 150.402 55.4179 150.738C55.8919 151.068 56.1769 151.518 56.2729 152.088L57.6229 151.845C57.5569 151.281 57.3469 150.786 56.9929 150.36C56.6389 149.934 56.1709 149.604 55.5889 149.37C55.0129 149.13 54.3589 149.01 53.6269 149.01C52.8949 149.01 52.2499 149.127 51.6919 149.361C51.1399 149.589 50.7079 149.913 50.3959 150.333C50.0899 150.747 49.9369 151.23 49.9369 151.782C49.9369 152.232 50.0389 152.616 50.2429 152.934C50.4529 153.246 50.8099 153.525 51.3139 153.771C51.8179 154.011 52.5079 154.251 53.3839 154.491C54.2059 154.713 54.8209 154.905 55.2289 155.067C55.6429 155.229 55.9189 155.406 56.0569 155.598C56.1949 155.784 56.2639 156.027 56.2639 156.327C56.2639 156.855 56.0509 157.275 55.6249 157.587C55.1989 157.899 54.6169 158.055 53.8789 158.055C53.1229 158.055 52.4869 157.893 51.9709 157.569C51.4549 157.239 51.1279 156.798 50.9899 156.246L49.6399 156.471C49.8079 157.347 50.2579 158.031 50.9899 158.523C51.7279 159.015 52.6669 159.261 53.8069 159.261ZM59.628 163.32H60.96V157.839C61.308 158.283 61.737 158.634 62.247 158.892C62.757 159.144 63.342 159.27 64.002 159.27C64.914 159.27 65.691 159.045 66.333 158.595C66.975 158.139 67.464 157.524 67.8 156.75C68.142 155.976 68.313 155.103 68.313 154.131C68.313 153.165 68.142 152.295 67.8 151.521C67.464 150.747 66.978 150.135 66.342 149.685C65.706 149.235 64.944 149.01 64.056 149.01C63.336 149.01 62.703 149.154 62.157 149.442C61.617 149.724 61.17 150.117 60.816 150.621V149.28H59.628V163.32ZM63.867 158.037C63.177 158.037 62.607 157.869 62.157 157.533C61.707 157.191 61.371 156.726 61.149 156.138C60.927 155.55 60.816 154.881 60.816 154.131C60.816 152.985 61.065 152.052 61.563 151.332C62.067 150.606 62.826 150.243 63.84 150.243C64.536 150.243 65.109 150.414 65.559 150.756C66.015 151.098 66.354 151.563 66.576 152.151C66.798 152.739 66.909 153.399 66.909 154.131C66.909 154.869 66.795 155.532 66.567 156.12C66.345 156.708 66.009 157.176 65.559 157.524C65.109 157.866 64.545 158.037 63.867 158.037ZM70.4693 147.435H71.7923V145.95H70.4693V147.435ZM70.4693 159H71.7923V149.28H70.4693V159ZM74.4905 159H75.8135V154.149C75.8135 153.567 75.8795 152.988 76.0115 152.412C76.1495 151.83 76.4615 151.347 76.9475 150.963C77.3015 150.675 77.6855 150.51 78.0995 150.468C78.5195 150.42 78.9095 150.438 79.2695 150.522V149.28C78.8435 149.172 78.3605 149.169 77.8205 149.271C77.2805 149.367 76.8185 149.583 76.4345 149.919C76.1465 150.135 75.8945 150.435 75.6785 150.819V149.28H74.4905V159ZM84.914 159.27C85.856 159.27 86.699 159.039 87.443 158.577C88.193 158.115 88.76 157.458 89.144 156.606L87.911 156.129C87.293 157.377 86.276 158.001 84.86 158.001C83.888 158.001 83.126 157.698 82.574 157.092C82.028 156.486 81.728 155.625 81.674 154.509H89.333C89.381 152.793 89.006 151.449 88.208 150.477C87.416 149.499 86.3 149.01 84.86 149.01C83.924 149.01 83.111 149.22 82.421 149.64C81.737 150.06 81.206 150.657 80.828 151.431C80.45 152.205 80.261 153.123 80.261 154.185C80.261 155.211 80.45 156.105 80.828 156.867C81.212 157.629 81.752 158.22 82.448 158.64C83.15 159.06 83.972 159.27 84.914 159.27ZM84.896 150.225C86.726 150.225 87.743 151.284 87.947 153.402H81.701C81.803 152.376 82.127 151.59 82.673 151.044C83.219 150.498 83.96 150.225 84.896 150.225ZM95.1013 159.27C95.8093 159.27 96.4303 159.126 96.9643 158.838C97.4983 158.544 97.9393 158.145 98.2873 157.641V159H99.4753V146.04H98.1433V150.423C97.7893 149.979 97.3513 149.634 96.8293 149.388C96.3133 149.136 95.7193 149.01 95.0473 149.01C94.1593 149.01 93.3973 149.235 92.7613 149.685C92.1253 150.135 91.6363 150.747 91.2943 151.521C90.9583 152.295 90.7903 153.165 90.7903 154.131C90.7903 155.103 90.9583 155.976 91.2943 156.75C91.6363 157.524 92.1283 158.139 92.7703 158.595C93.4183 159.045 94.1953 159.27 95.1013 159.27ZM95.2363 158.037C94.5643 158.037 94.0003 157.866 93.5443 157.524C93.0943 157.176 92.7553 156.708 92.5273 156.12C92.3053 155.532 92.1943 154.869 92.1943 154.131C92.1943 153.399 92.3053 152.739 92.5273 152.151C92.7493 151.563 93.0853 151.098 93.5353 150.756C93.9913 150.414 94.5673 150.243 95.2633 150.243C96.2773 150.243 97.0333 150.606 97.5313 151.332C98.0353 152.052 98.2873 152.985 98.2873 154.131C98.2873 154.881 98.1763 155.55 97.9543 156.138C97.7323 156.726 97.3963 157.191 96.9463 157.533C96.4963 157.869 95.9263 158.037 95.2363 158.037ZM105.595 159H106.783V157.641C107.131 158.145 107.572 158.544 108.106 158.838C108.64 159.126 109.261 159.27 109.969 159.27C110.881 159.27 111.658 159.045 112.3 158.595C112.942 158.139 113.431 157.524 113.767 156.75C114.109 155.976 114.28 155.103 114.28 154.131C114.28 153.165 114.109 152.295 113.767 151.521C113.431 150.747 112.945 150.135 112.309 149.685C111.673 149.235 110.911 149.01 110.023 149.01C109.351 149.01 108.754 149.136 108.232 149.388C107.716 149.634 107.281 149.979 106.927 150.423V146.04H105.595V159ZM109.834 158.037C109.144 158.037 108.574 157.869 108.124 157.533C107.674 157.191 107.338 156.726 107.116 156.138C106.894 155.55 106.783 154.881 106.783 154.131C106.783 152.985 107.032 152.052 107.53 151.332C108.034 150.606 108.793 150.243 109.807 150.243C110.503 150.243 111.076 150.414 111.526 150.756C111.982 151.098 112.321 151.563 112.543 152.151C112.765 152.739 112.876 153.399 112.876 154.131C112.876 154.869 112.762 155.532 112.534 156.12C112.312 156.708 111.976 157.176 111.526 157.524C111.076 157.866 110.512 158.037 109.834 158.037ZM117.167 163.32H118.49L123.71 149.28H122.36L119.417 157.272L116.222 149.28H114.818L118.769 158.973L117.167 163.32ZM134.169 159V157.839C133.473 157.953 132.888 157.971 132.414 157.893C131.946 157.815 131.604 157.575 131.388 157.173C131.274 156.963 131.211 156.723 131.199 156.453C131.193 156.177 131.19 155.835 131.19 155.427V150.414H134.169V149.28H131.19V146.58H129.876V149.28H127.797V150.414H129.876V155.481C129.876 155.955 129.882 156.378 129.894 156.75C129.912 157.122 130.008 157.485 130.182 157.839C130.398 158.271 130.713 158.589 131.127 158.793C131.547 158.997 132.021 159.111 132.549 159.135C133.083 159.159 133.623 159.114 134.169 159ZM136.075 159H137.407V153.816C137.407 152.718 137.653 151.857 138.145 151.233C138.637 150.609 139.351 150.297 140.287 150.297C140.965 150.297 141.511 150.462 141.925 150.792C142.339 151.116 142.639 151.56 142.825 152.124C143.011 152.688 143.104 153.327 143.104 154.041V159H144.436V153.654C144.436 153.108 144.367 152.562 144.229 152.016C144.097 151.47 143.881 150.972 143.581 150.522C143.281 150.072 142.882 149.712 142.384 149.442C141.886 149.172 141.271 149.037 140.539 149.037C139.843 149.037 139.213 149.172 138.649 149.442C138.091 149.706 137.632 150.102 137.272 150.63V146.04H136.075V159ZM150.885 159.27C151.827 159.27 152.67 159.039 153.414 158.577C154.164 158.115 154.731 157.458 155.115 156.606L153.882 156.129C153.264 157.377 152.247 158.001 150.831 158.001C149.859 158.001 149.097 157.698 148.545 157.092C147.999 156.486 147.699 155.625 147.645 154.509H155.304C155.352 152.793 154.977 151.449 154.179 150.477C153.387 149.499 152.271 149.01 150.831 149.01C149.895 149.01 149.082 149.22 148.392 149.64C147.708 150.06 147.177 150.657 146.799 151.431C146.421 152.205 146.232 153.123 146.232 154.185C146.232 155.211 146.421 156.105 146.799 156.867C147.183 157.629 147.723 158.22 148.419 158.64C149.121 159.06 149.943 159.27 150.885 159.27ZM150.867 150.225C152.697 150.225 153.714 151.284 153.918 153.402H147.672C147.774 152.376 148.098 151.59 148.644 151.044C149.19 150.498 149.931 150.225 150.867 150.225ZM160.928 159.261C162.122 159.261 163.058 159 163.736 158.478C164.42 157.95 164.762 157.227 164.762 156.309C164.762 155.805 164.654 155.382 164.438 155.04C164.228 154.698 163.865 154.401 163.349 154.149C162.839 153.897 162.137 153.657 161.243 153.429C160.481 153.237 159.893 153.06 159.479 152.898C159.071 152.736 158.789 152.565 158.633 152.385C158.477 152.199 158.399 151.977 158.399 151.719C158.399 151.257 158.615 150.888 159.047 150.612C159.479 150.336 160.04 150.204 160.73 150.216C161.462 150.228 162.065 150.402 162.539 150.738C163.013 151.068 163.298 151.518 163.394 152.088L164.744 151.845C164.678 151.281 164.468 150.786 164.114 150.36C163.76 149.934 163.292 149.604 162.71 149.37C162.134 149.13 161.48 149.01 160.748 149.01C160.016 149.01 159.371 149.127 158.813 149.361C158.261 149.589 157.829 149.913 157.517 150.333C157.211 150.747 157.058 151.23 157.058 151.782C157.058 152.232 157.16 152.616 157.364 152.934C157.574 153.246 157.931 153.525 158.435 153.771C158.939 154.011 159.629 154.251 160.505 154.491C161.327 154.713 161.942 154.905 162.35 155.067C162.764 155.229 163.04 155.406 163.178 155.598C163.316 155.784 163.385 156.027 163.385 156.327C163.385 156.855 163.172 157.275 162.746 157.587C162.32 157.899 161.738 158.055 161 158.055C160.244 158.055 159.608 157.893 159.092 157.569C158.576 157.239 158.249 156.798 158.111 156.246L156.761 156.471C156.929 157.347 157.379 158.031 158.111 158.523C158.849 159.015 159.788 159.261 160.928 159.261ZM170.871 159.27C171.813 159.27 172.656 159.039 173.4 158.577C174.15 158.115 174.717 157.458 175.101 156.606L173.868 156.129C173.25 157.377 172.233 158.001 170.817 158.001C169.845 158.001 169.083 157.698 168.531 157.092C167.985 156.486 167.685 155.625 167.631 154.509H175.29C175.338 152.793 174.963 151.449 174.165 150.477C173.373 149.499 172.257 149.01 170.817 149.01C169.881 149.01 169.068 149.22 168.378 149.64C167.694 150.06 167.163 150.657 166.785 151.431C166.407 152.205 166.218 153.123 166.218 154.185C166.218 155.211 166.407 156.105 166.785 156.867C167.169 157.629 167.709 158.22 168.405 158.64C169.107 159.06 169.929 159.27 170.871 159.27ZM170.853 150.225C172.683 150.225 173.7 151.284 173.904 153.402H167.658C167.76 152.376 168.084 151.59 168.63 151.044C169.176 150.498 169.917 150.225 170.853 150.225ZM184.518 159.261C185.712 159.261 186.648 159 187.326 158.478C188.01 157.95 188.352 157.227 188.352 156.309C188.352 155.805 188.244 155.382 188.028 155.04C187.818 154.698 187.455 154.401 186.939 154.149C186.429 153.897 185.727 153.657 184.833 153.429C184.071 153.237 183.483 153.06 183.069 152.898C182.661 152.736 182.379 152.565 182.223 152.385C182.067 152.199 181.989 151.977 181.989 151.719C181.989 151.257 182.205 150.888 182.637 150.612C183.069 150.336 183.63 150.204 184.32 150.216C185.052 150.228 185.655 150.402 186.129 150.738C186.603 151.068 186.888 151.518 186.984 152.088L188.334 151.845C188.268 151.281 188.058 150.786 187.704 150.36C187.35 149.934 186.882 149.604 186.3 149.37C185.724 149.13 185.07 149.01 184.338 149.01C183.606 149.01 182.961 149.127 182.403 149.361C181.851 149.589 181.419 149.913 181.107 150.333C180.801 150.747 180.648 151.23 180.648 151.782C180.648 152.232 180.75 152.616 180.954 152.934C181.164 153.246 181.521 153.525 182.025 153.771C182.529 154.011 183.219 154.251 184.095 154.491C184.917 154.713 185.532 154.905 185.94 155.067C186.354 155.229 186.63 155.406 186.768 155.598C186.906 155.784 186.975 156.027 186.975 156.327C186.975 156.855 186.762 157.275 186.336 157.587C185.91 157.899 185.328 158.055 184.59 158.055C183.834 158.055 183.198 157.893 182.682 157.569C182.166 157.239 181.839 156.798 181.701 156.246L180.351 156.471C180.519 157.347 180.969 158.031 181.701 158.523C182.439 159.015 183.378 159.261 184.518 159.261ZM195.64 159V157.839C194.944 157.953 194.359 157.971 193.885 157.893C193.417 157.815 193.075 157.575 192.859 157.173C192.745 156.963 192.682 156.723 192.67 156.453C192.664 156.177 192.661 155.835 192.661 155.427V150.414H195.64V149.28H192.661V146.58H191.347V149.28H189.268V150.414H191.347V155.481C191.347 155.955 191.353 156.378 191.365 156.75C191.383 157.122 191.479 157.485 191.653 157.839C191.869 158.271 192.184 158.589 192.598 158.793C193.018 158.997 193.492 159.111 194.02 159.135C194.554 159.159 195.094 159.114 195.64 159ZM201.262 159.27C202.222 159.27 203.044 159.054 203.728 158.622C204.418 158.19 204.946 157.59 205.312 156.822C205.684 156.048 205.87 155.151 205.87 154.131C205.87 153.129 205.687 152.244 205.321 151.476C204.961 150.702 204.436 150.099 203.746 149.667C203.062 149.229 202.234 149.01 201.262 149.01C200.314 149.01 199.495 149.226 198.805 149.658C198.121 150.084 197.593 150.681 197.221 151.449C196.849 152.217 196.663 153.111 196.663 154.131C196.663 155.133 196.843 156.021 197.203 156.795C197.569 157.569 198.094 158.175 198.778 158.613C199.468 159.051 200.296 159.27 201.262 159.27ZM201.262 158.001C200.212 158.001 199.417 157.65 198.877 156.948C198.337 156.24 198.067 155.301 198.067 154.131C198.067 152.997 198.328 152.073 198.85 151.359C199.372 150.639 200.176 150.279 201.262 150.279C202.336 150.279 203.137 150.63 203.665 151.332C204.199 152.028 204.466 152.961 204.466 154.131C204.466 155.277 204.202 156.21 203.674 156.93C203.146 157.644 202.342 158.001 201.262 158.001ZM207.856 159H209.179V154.149C209.179 153.567 209.245 152.988 209.377 152.412C209.515 151.83 209.827 151.347 210.313 150.963C210.667 150.675 211.051 150.51 211.465 150.468C211.885 150.42 212.275 150.438 212.635 150.522V149.28C212.209 149.172 211.726 149.169 211.186 149.271C210.646 149.367 210.184 149.583 209.8 149.919C209.512 150.135 209.26 150.435 209.044 150.819V149.28H207.856V159ZM214.522 147.435H215.845V145.95H214.522V147.435ZM214.522 159H215.845V149.28H214.522V159ZM222.656 159.27C223.598 159.27 224.441 159.039 225.185 158.577C225.935 158.115 226.502 157.458 226.886 156.606L225.653 156.129C225.035 157.377 224.018 158.001 222.602 158.001C221.63 158.001 220.868 157.698 220.316 157.092C219.77 156.486 219.47 155.625 219.416 154.509H227.075C227.123 152.793 226.748 151.449 225.95 150.477C225.158 149.499 224.042 149.01 222.602 149.01C221.666 149.01 220.853 149.22 220.163 149.64C219.479 150.06 218.948 150.657 218.57 151.431C218.192 152.205 218.003 153.123 218.003 154.185C218.003 155.211 218.192 156.105 218.57 156.867C218.954 157.629 219.494 158.22 220.19 158.64C220.892 159.06 221.714 159.27 222.656 159.27ZM222.638 150.225C224.468 150.225 225.485 151.284 225.689 153.402H219.443C219.545 152.376 219.869 151.59 220.415 151.044C220.961 150.498 221.702 150.225 222.638 150.225ZM232.7 159.261C233.894 159.261 234.83 159 235.508 158.478C236.192 157.95 236.534 157.227 236.534 156.309C236.534 155.805 236.426 155.382 236.21 155.04C236 154.698 235.637 154.401 235.121 154.149C234.611 153.897 233.909 153.657 233.015 153.429C232.253 153.237 231.665 153.06 231.251 152.898C230.843 152.736 230.561 152.565 230.405 152.385C230.249 152.199 230.171 151.977 230.171 151.719C230.171 151.257 230.387 150.888 230.819 150.612C231.251 150.336 231.812 150.204 232.502 150.216C233.234 150.228 233.837 150.402 234.311 150.738C234.785 151.068 235.07 151.518 235.166 152.088L236.516 151.845C236.45 151.281 236.24 150.786 235.886 150.36C235.532 149.934 235.064 149.604 234.482 149.37C233.906 149.13 233.252 149.01 232.52 149.01C231.788 149.01 231.143 149.127 230.585 149.361C230.033 149.589 229.601 149.913 229.289 150.333C228.983 150.747 228.83 151.23 228.83 151.782C228.83 152.232 228.932 152.616 229.135 152.934C229.346 153.246 229.703 153.525 230.207 153.771C230.711 154.011 231.401 154.251 232.277 154.491C233.099 154.713 233.714 154.905 234.122 155.067C234.536 155.229 234.812 155.406 234.95 155.598C235.088 155.784 235.157 156.027 235.157 156.327C235.157 156.855 234.944 157.275 234.518 157.587C234.092 157.899 233.51 158.055 232.771 158.055C232.016 158.055 231.38 157.893 230.864 157.569C230.348 157.239 230.021 156.798 229.883 156.246L228.533 156.471C228.701 157.347 229.151 158.031 229.883 158.523C230.621 159.015 231.56 159.261 232.7 159.261ZM238.782 159H240.321V157.461H238.782V159Z" fill="#18191F"/>
</svg>
