<svg width="350" height="276" viewBox="0 0 350 276" fill="none" xmlns="http://www.w3.org/2000/svg">
<rect width="350" height="276" rx="8" fill="white"/>
<path fill-rule="evenodd" clip-rule="evenodd" d="M116.104 44.227L113.925 40.573L110.058 42.4L107.879 38.7352L104.011 40.573L101.843 36.8973L97.9759 38.7352L95.7971 35.0703L91.9296 36.9081L89.7616 33.2325L85.8833 35.0703L77.6798 61.5784L87.6481 64.6054C88.0236 63.4106 88.8174 62.3885 89.8861 61.7238C90.9547 61.0591 92.2277 60.7957 93.475 60.9811C94.7223 61.1665 95.8616 61.7885 96.6871 62.7347C97.5125 63.681 97.9697 64.889 97.9759 66.1406V66.2487C97.9977 66.7243 97.9433 67.2 97.8016 67.6757L107.933 70.7568L116.104 44.227Z" fill="#D61920"/>
<path fill-rule="evenodd" clip-rule="evenodd" d="M86.2319 59.3946C85.9799 59.3532 85.7512 59.2236 85.5873 59.0292C85.4234 58.8348 85.3351 58.5886 85.3385 58.3351V45.3622C85.3371 45.2198 85.3643 45.0786 85.4185 44.9468C85.4727 44.8149 85.5529 44.6952 85.6544 44.5945C85.7558 44.4938 85.8765 44.4143 86.0093 44.3604C86.1422 44.3066 86.2845 44.2796 86.428 44.2811H95.8733C96.4299 44.2797 96.9812 44.387 97.4959 44.5971C98.0106 44.8071 98.4786 45.1157 98.8732 45.5052C99.2677 45.8947 99.5811 46.3575 99.7954 46.8672C100.01 47.3768 100.121 47.9234 100.122 48.4757V58.3351C100.122 58.4944 100.086 58.6516 100.017 58.7955C99.9489 58.9394 99.8491 59.0665 99.7252 59.1677C99.6014 59.269 99.4565 59.3418 99.301 59.381C99.1455 59.4202 98.9832 59.4249 98.8257 59.3946C98.5757 59.3509 98.3496 59.2203 98.1878 59.0262C98.0261 58.832 97.9394 58.587 97.9433 58.3351V48.4865C97.9433 47.9417 97.7252 47.4193 97.337 47.0341C96.9488 46.6489 96.4223 46.4324 95.8733 46.4324H93.8143V58.3243C93.8152 58.4692 93.7867 58.6127 93.7305 58.7464C93.6744 58.8802 93.5917 59.0013 93.4875 59.1027C93.3634 59.2248 93.2114 59.3151 93.0444 59.366C92.8774 59.4168 92.7005 59.4266 92.5288 59.3946C92.2768 59.3532 92.0481 59.2236 91.8842 59.0292C91.7203 58.8348 91.632 58.5886 91.6355 58.3351V46.4324H87.5174V58.3243C87.5184 58.4834 87.4841 58.6407 87.4168 58.785C87.3495 58.9293 87.251 59.0572 87.1282 59.1594C87.0054 59.2616 86.8614 59.3357 86.7065 59.3763C86.5516 59.417 86.3895 59.4232 86.2319 59.3946ZM101.941 65.0487C101.688 65.007 101.457 64.8758 101.293 64.6792C101.129 64.4825 101.042 64.2337 101.048 63.9784C101.049 63.6948 101.163 63.423 101.364 63.2216C101.565 63.0179 101.839 62.9014 102.127 62.8973C103.053 62.8973 103.848 62.3135 104.109 61.4378L105.232 57.7297L101.56 45.546C101.516 45.4097 101.5 45.2662 101.513 45.1237C101.525 44.9812 101.566 44.8426 101.633 44.7159C101.7 44.5892 101.791 44.4769 101.902 44.3856C102.013 44.2943 102.141 44.2257 102.279 44.1838C102.554 44.1083 102.847 44.1402 103.098 44.273C103.35 44.4058 103.54 44.6293 103.63 44.8973L106.354 53.9784L109.121 44.8973C109.252 44.4 109.807 44.0649 110.374 44.173L110.45 44.1838C111.038 44.3676 111.365 44.9838 111.191 45.5568L107.41 58.0541L106.212 62.0541C105.943 62.9149 105.41 63.6708 104.687 64.2162C103.951 64.7636 103.057 65.0595 102.138 65.0595C102.072 65.062 102.006 65.0584 101.941 65.0487Z" fill="#FEFEFE"/>
<path fill-rule="evenodd" clip-rule="evenodd" d="M35.3554 57.0271H37.4907C38.0599 57.0271 38.6058 56.8027 39.0083 56.4033C39.4108 56.0039 39.6369 55.4622 39.6369 54.8973V48.6595C39.6383 48.3798 39.5843 48.1026 39.4777 47.8437C39.3712 47.5847 39.2143 47.3492 39.016 47.1504C38.8177 46.9516 38.582 46.7936 38.3221 46.6852C38.0623 46.5769 37.7835 46.5204 37.5016 46.519H35.3554V57.0055V57.0271ZM34.0154 59.2541C33.7539 59.2103 33.5167 59.075 33.3469 58.8727C33.177 58.6705 33.0857 58.4146 33.0894 58.1514V38.7784C33.0875 38.6302 33.1154 38.4831 33.1715 38.3457C33.2277 38.2083 33.3109 38.0835 33.4163 37.9784C33.5438 37.847 33.7019 37.7487 33.8766 37.6922C34.0514 37.6356 34.2375 37.6226 34.4185 37.6541C34.9633 37.7622 35.3554 38.2163 35.3554 38.7676V44.2811H37.4907C38.0696 44.2797 38.6431 44.3916 39.1784 44.6105C39.7136 44.8293 40.2001 45.1508 40.61 45.5565C41.0198 45.9622 41.345 46.4442 41.5669 46.9748C41.7887 47.5054 41.9029 48.0742 41.9029 48.6487V54.8865C41.9001 56.044 41.4354 57.1533 40.6106 57.9717C39.7859 58.7902 38.668 59.2512 37.5016 59.2541H34.2224C34.1496 59.2584 34.0766 59.2548 34.0046 59.2433L34.0154 59.2541Z" fill="#333545"/>
<path fill-rule="evenodd" clip-rule="evenodd" d="M49.5834 46.4325C49.4611 46.4112 49.3372 46.4004 49.213 46.4C48.9304 46.3971 48.65 46.4502 48.3883 46.5562C48.1266 46.6623 47.8888 46.819 47.6889 47.0174C47.4891 47.2157 47.3311 47.4516 47.2243 47.7113C47.1174 47.971 47.0639 48.2493 47.0668 48.5298V55.027C47.0654 55.3071 47.1199 55.5847 47.2272 55.8438C47.3346 56.1028 47.4926 56.3381 47.6922 56.5362C47.8918 56.7342 48.129 56.8911 48.39 56.9976C48.651 57.1041 48.9308 57.1582 49.213 57.1568C49.7822 57.1568 50.3281 56.9324 50.7306 56.533C51.1331 56.1336 51.3592 55.5919 51.3592 55.027V48.5406C51.3592 47.4919 50.6075 46.6162 49.5834 46.4325ZM48.4395 59.3514C47.4181 59.1731 46.4929 58.6425 45.8272 57.8533C45.1614 57.0642 44.798 56.067 44.8008 55.0379V48.5406C44.7989 47.9655 44.9126 47.3959 45.1352 46.865C45.3578 46.3341 45.6848 45.8526 46.0972 45.4487C46.5063 45.0428 46.9921 44.7212 47.5268 44.5023C48.0615 44.2834 48.6346 44.1715 49.213 44.173C50.3803 44.173 51.4998 44.6332 52.3252 45.4522C53.1506 46.2713 53.6143 47.3822 53.6143 48.5406V55.0379C53.6143 56.2054 53.1567 57.3081 52.3179 58.1406C51.9105 58.5456 51.4265 58.8668 50.8936 59.0857C50.3608 59.3046 49.7897 59.4169 49.213 59.4162C48.9537 59.4173 48.6949 59.3956 48.4395 59.3514ZM61.2948 46.4433C61.1725 46.422 61.0486 46.4112 60.9244 46.4108C60.6417 46.4079 60.3613 46.4611 60.0996 46.5671C59.8379 46.6731 59.6002 46.8298 59.4003 47.0282C59.2004 47.2265 59.0425 47.4624 58.9356 47.7221C58.8288 47.9818 58.7753 48.2601 58.7782 48.5406V55.0379C58.7768 55.3179 58.8313 55.5955 58.9386 55.8546C59.046 56.1136 59.204 56.349 59.4036 56.547C59.6032 56.7451 59.8403 56.9019 60.1014 57.0084C60.3624 57.1149 60.6421 57.169 60.9244 57.1676C61.2066 57.169 61.4864 57.1149 61.7474 57.0084C62.0084 56.9019 62.2456 56.7451 62.4452 56.547C62.6448 56.349 62.8028 56.1136 62.9101 55.8546C63.0175 55.5955 63.072 55.3179 63.0706 55.0379V48.5406C63.0706 47.5027 62.3189 46.6271 61.2948 46.4433ZM60.1509 59.3514C59.1314 59.1708 58.2088 58.6393 57.5453 57.8503C56.8817 57.0613 56.5198 56.0655 56.5231 55.0379V48.5406C56.5248 47.9034 56.6666 47.2743 56.9386 46.6972C57.2107 46.1201 57.6063 45.6088 58.098 45.1991C58.5897 44.7894 59.1656 44.4911 59.7855 44.3251C60.4054 44.1591 61.0543 44.1293 61.687 44.2379C62.7086 44.4136 63.6349 44.9416 64.3025 45.7287C64.9702 46.5159 65.3364 47.5117 65.3366 48.5406V55.0379C65.3379 55.6154 65.223 56.1873 64.9985 56.7201C64.774 57.2529 64.4444 57.7359 64.0293 58.1406C63.6218 58.5456 63.1378 58.8668 62.605 59.0857C62.0722 59.3046 61.5011 59.4169 60.9244 59.4162C60.6629 59.4162 60.4015 59.3946 60.1509 59.3514ZM69.1605 59.3946C68.8989 59.3508 68.6617 59.2155 68.4919 59.0133C68.3221 58.811 68.2308 58.5551 68.2345 58.2919V38.7784C68.2345 38.4757 68.3434 38.1838 68.5613 37.9784C68.6898 37.8525 68.847 37.7593 69.0196 37.7066C69.1922 37.6539 69.3751 37.6433 69.5527 37.6757C70.0974 37.7622 70.5005 38.2271 70.5005 38.7784V50.3243L75.708 44.5298C75.9694 44.2487 76.3616 44.1189 76.7538 44.1838C76.9516 44.2166 77.1368 44.3015 77.2903 44.4294C77.4439 44.5574 77.56 44.7238 77.6268 44.9115C77.6935 45.0991 77.7083 45.301 77.6698 45.4962C77.6312 45.6915 77.5406 45.8729 77.4075 46.0216L73.4746 50.3784L77.5382 57.7622C77.6114 57.8867 77.6587 58.0245 77.6774 58.1675C77.6961 58.3104 77.6858 58.4557 77.6471 58.5946C77.605 58.7378 77.5341 58.8711 77.4386 58.9863C77.3431 59.1015 77.225 59.1963 77.0915 59.2649C76.8609 59.3965 76.5906 59.4425 76.3289 59.3946C76.1662 59.3673 76.0115 59.3047 75.8759 59.2113C75.7403 59.1178 75.6272 58.9959 75.5445 58.8541L71.8841 52.173L70.4896 53.6973V58.2919C70.4896 58.5901 70.3702 58.8761 70.1577 59.0869C69.9453 59.2978 69.6571 59.4162 69.3566 59.4162C69.2803 59.4162 69.2149 59.4162 69.1387 59.3946H69.1605ZM119.067 59.3838C118.455 59.282 117.873 59.0457 117.364 58.6922C116.855 58.3387 116.432 57.8769 116.126 57.3406C115.976 57.0778 115.937 56.767 116.017 56.4757C116.104 56.1946 116.289 55.9568 116.54 55.8054C116.772 55.6793 117.042 55.6373 117.302 55.6865C117.629 55.7406 117.923 55.9352 118.087 56.227C118.381 56.7243 118.849 57.0487 119.427 57.146C119.725 57.1973 120.03 57.1812 120.321 57.0988C120.611 57.0164 120.879 56.8699 121.105 56.6703C121.54 56.2703 121.758 55.6973 121.704 55.1352C121.692 54.847 121.611 54.5657 121.469 54.3141C121.327 54.0624 121.128 53.8474 120.887 53.6865L117.836 51.5352C117.339 51.1889 116.925 50.738 116.624 50.2148C116.323 49.6916 116.142 49.1088 116.093 48.5081C116.054 47.9021 116.154 47.295 116.386 46.7331C116.618 46.1712 116.976 45.6691 117.433 45.2649C117.879 44.8537 118.411 44.5463 118.992 44.3649C119.572 44.1835 120.186 44.1327 120.789 44.2162C122.074 44.4325 123.12 45.1676 123.719 46.2054C123.864 46.4648 123.901 46.7696 123.824 47.0558C123.747 47.342 123.561 47.5874 123.305 47.7406C123.075 47.8722 122.804 47.9181 122.543 47.8703C122.38 47.843 122.225 47.7804 122.09 47.687C121.954 47.5935 121.841 47.4716 121.758 47.3298C121.622 47.1004 121.435 46.9039 121.213 46.7544C120.991 46.6048 120.738 46.506 120.473 46.4649C120.201 46.4161 119.922 46.4308 119.657 46.5077C119.393 46.5847 119.15 46.7218 118.947 46.9081C118.75 47.0929 118.596 47.3184 118.496 47.5687C118.397 47.8191 118.354 48.0881 118.37 48.3568C118.392 48.8865 118.697 49.4054 119.154 49.7081L122.205 51.8162C122.723 52.176 123.151 52.6484 123.457 53.1973C123.763 53.7463 123.938 54.3573 123.97 54.9838C124.02 55.6074 123.923 56.234 123.687 56.8139C123.451 57.3938 123.081 57.911 122.608 58.3243C122.148 58.7487 121.598 59.0659 120.999 59.2529C120.399 59.4399 119.766 59.492 119.144 59.4054L119.056 59.3838H119.067ZM127.815 59.4162C127.554 59.3706 127.317 59.2352 127.145 59.0336C126.974 58.8321 126.88 58.5772 126.879 58.3135V38.8C126.877 38.652 126.905 38.5051 126.962 38.3681C127.018 38.231 127.102 38.1065 127.207 38.0018C127.313 37.8971 127.438 37.8143 127.576 37.7583C127.714 37.7024 127.862 37.6743 128.012 37.6757L128.229 37.6865C128.774 37.7946 129.145 38.2379 129.145 38.8V44.3135H131.291C131.869 44.3121 132.442 44.4241 132.977 44.6431C133.511 44.8621 133.997 45.1837 134.406 45.5896C134.815 45.9954 135.139 46.4775 135.36 47.008C135.581 47.5386 135.693 48.1071 135.692 48.6811V58.3027C135.693 58.466 135.658 58.6274 135.589 58.7756C135.52 58.9238 135.419 59.0552 135.293 59.1604C135.167 59.2656 135.02 59.3421 134.861 59.3845C134.702 59.4268 134.536 59.434 134.374 59.4054C133.829 59.3081 133.437 58.8433 133.437 58.2919V48.6703C133.437 48.3911 133.381 48.1147 133.273 47.8569C133.165 47.5991 133.007 47.3651 132.808 47.1682C132.608 46.9713 132.372 46.8154 132.111 46.7096C131.851 46.6037 131.572 46.55 131.291 46.5514H129.145V58.3027C129.146 58.4671 129.11 58.6296 129.041 58.7788C128.971 58.9279 128.869 59.0599 128.742 59.1653C128.615 59.2707 128.466 59.3469 128.306 59.3884C128.146 59.4299 127.978 59.4357 127.815 59.4054V59.4162ZM143.373 46.4541C143.064 46.3985 142.747 46.4111 142.443 46.491C142.14 46.5709 141.858 46.7161 141.618 46.9163C141.378 47.1166 141.185 47.3669 141.053 47.6495C140.921 47.9321 140.854 48.24 140.856 48.5514V55.0487C140.854 55.3278 140.909 55.6045 141.015 55.8629C141.122 56.1212 141.279 56.3561 141.477 56.554C141.676 56.7519 141.912 56.9089 142.172 57.0161C142.431 57.1232 142.71 57.1784 142.991 57.1784C143.558 57.1784 144.102 56.9622 144.506 56.5622C144.707 56.3645 144.867 56.1288 144.976 55.8688C145.084 55.6089 145.139 55.33 145.137 55.0487V48.5406C145.137 47.5027 144.397 46.6162 143.362 46.4433L143.373 46.4541ZM142.218 59.3406C141.199 59.1623 140.277 58.6329 139.613 57.8458C138.949 57.0586 138.587 56.0642 138.59 55.0379V48.5406C138.59 47.9025 138.731 47.2722 139.002 46.6938C139.273 46.1153 139.669 45.6027 140.161 45.1918C140.653 44.7809 141.229 44.4817 141.85 44.315C142.47 44.1484 143.12 44.1183 143.754 44.2271C144.777 44.4031 145.705 44.9326 146.373 45.7221C147.041 46.5115 147.406 47.5098 147.403 48.5406V55.0379C147.404 55.6136 147.289 56.1837 147.064 56.7147C146.84 57.2456 146.51 57.7267 146.096 58.1298C145.596 58.6277 144.983 58.998 144.307 59.2088C143.632 59.4197 142.915 59.4649 142.218 59.3406Z" fill="#333545"/>
<path fill-rule="evenodd" clip-rule="evenodd" d="M164.802 45.5568C164.839 45.4194 164.848 45.2762 164.83 45.1352C164.811 44.9942 164.764 44.8583 164.693 44.7352C164.61 44.6039 164.502 44.4904 164.375 44.4013C164.248 44.3122 164.104 44.2492 163.952 44.2162C163.671 44.1635 163.38 44.2192 163.139 44.3719C162.899 44.5246 162.725 44.7628 162.655 45.0379C162.655 45.0919 161.435 49.9676 160.477 53.6757L160.455 53.7514L160.433 53.6757L158.254 45.0487C158.212 44.8381 158.106 44.6453 157.95 44.4965C157.794 44.3476 157.596 44.2498 157.383 44.2162C157.318 44.2036 157.252 44.1964 157.187 44.1946C156.685 44.1946 156.25 44.5406 156.108 45.0379C156.097 45.0919 154.877 49.9676 153.929 53.6757L153.907 53.7514L153.886 53.6757C152.96 49.9676 151.707 45.0919 151.707 45.0379C151.655 44.8309 151.545 44.6432 151.388 44.4974C151.231 44.3516 151.036 44.2539 150.824 44.2162C150.643 44.1844 150.456 44.1978 150.282 44.2553C150.107 44.3127 149.949 44.4124 149.823 44.5453C149.696 44.6783 149.605 44.8403 149.557 45.0169C149.51 45.1934 149.507 45.3789 149.55 45.5568L152.829 58.5622C152.891 58.8005 153.03 59.0121 153.225 59.1644C153.42 59.3167 153.659 59.4014 153.907 59.4054C154.441 59.4054 154.866 59.0595 154.975 58.5622L157.154 49.9243L157.187 49.8487L157.208 49.9243C158.167 53.6757 159.387 58.573 159.387 58.573C159.452 58.8067 159.591 59.0136 159.783 59.1634C159.975 59.3132 160.211 59.398 160.455 59.4054C160.706 59.4132 160.952 59.3329 161.149 59.1787C161.346 59.0244 161.482 58.8062 161.533 58.5622L164.802 45.5568Z" fill="#333545"/>
<g opacity="0.3" clip-path="url(#clip0_2_249)">
<path fill-rule="evenodd" clip-rule="evenodd" d="M47.9298 106.187C45.5439 107.401 44.351 108.829 44.351 110.469C45.3679 110.59 46.2088 111.02 46.8738 111.759C47.5387 112.498 47.8712 113.354 47.8712 114.325C47.8712 115.358 47.5485 116.228 46.9031 116.937C46.2577 117.646 45.4461 118 44.4683 118C43.3731 118 42.4246 117.539 41.6228 116.618C40.821 115.697 40.4201 114.578 40.4201 113.262C40.4201 109.315 42.5517 106.227 46.8151 104L47.9298 106.187ZM39.5098 106.187C37.1043 107.401 35.9016 108.829 35.9016 110.469C36.9381 110.59 37.7888 111.02 38.4537 111.759C39.1186 112.498 39.4511 113.354 39.4511 114.325C39.4511 115.358 39.1235 116.228 38.4684 116.937C37.8132 117.646 36.9967 118 36.0189 118C34.9237 118 33.9801 117.539 33.1881 116.618C32.396 115.697 32 114.578 32 113.262C32 109.315 34.1219 106.227 38.3657 104L39.5098 106.187Z" fill="#2EC5CE"/>
</g>
<path d="M65.44 127H72.919V125.731H66.763V114.04H65.44V127ZM77.2344 127.27C78.9324 127.27 80.1654 126.643 80.9334 125.389V127H82.1124V120.961C82.1124 120.601 82.0944 120.247 82.0584 119.899C82.0224 119.551 81.9444 119.236 81.8244 118.954C81.5664 118.324 81.1254 117.844 80.5014 117.514C79.8834 117.178 79.1304 117.01 78.2424 117.01C77.1744 117.01 76.3044 117.25 75.6324 117.73C74.9604 118.21 74.5104 118.885 74.2824 119.755L75.5694 120.133C75.7554 119.485 76.0764 119.011 76.5324 118.711C76.9944 118.411 77.5584 118.261 78.2244 118.261C79.1484 118.261 79.8084 118.477 80.2044 118.909C80.6004 119.335 80.8044 119.986 80.8164 120.862C80.3844 120.922 79.9074 120.985 79.3854 121.051C78.8694 121.117 78.3504 121.192 77.8284 121.276C77.3064 121.36 76.8264 121.456 76.3884 121.564C75.6624 121.756 75.0684 122.077 74.6064 122.527C74.1444 122.971 73.9134 123.592 73.9134 124.39C73.9134 124.906 74.0364 125.383 74.2824 125.821C74.5284 126.259 74.8974 126.61 75.3894 126.874C75.8874 127.138 76.5024 127.27 77.2344 127.27ZM77.3874 126.127C76.8654 126.127 76.4454 126.043 76.1274 125.875C75.8154 125.701 75.5874 125.482 75.4434 125.218C75.3054 124.948 75.2364 124.672 75.2364 124.39C75.2364 123.862 75.4134 123.466 75.7674 123.202C76.1214 122.938 76.5054 122.746 76.9194 122.626C77.4534 122.482 78.0744 122.365 78.7824 122.275C79.4904 122.185 80.1624 122.101 80.7984 122.023C80.7984 122.245 80.7894 122.5 80.7714 122.788C80.7594 123.07 80.7264 123.331 80.6724 123.571C80.5464 124.303 80.1984 124.912 79.6284 125.398C79.0644 125.884 78.3174 126.127 77.3874 126.127ZM84.4463 127H85.7783V121.816C85.7783 120.718 86.0243 119.857 86.5163 119.233C87.0083 118.609 87.7223 118.297 88.6583 118.297C89.3363 118.297 89.8823 118.462 90.2963 118.792C90.7103 119.116 91.0103 119.56 91.1963 120.124C91.3823 120.688 91.4753 121.327 91.4753 122.041V127H92.8073V121.654C92.8073 121.108 92.7383 120.562 92.6003 120.016C92.4683 119.47 92.2523 118.972 91.9523 118.522C91.6523 118.072 91.2533 117.712 90.7553 117.442C90.2573 117.172 89.6423 117.037 88.9103 117.037C88.2143 117.037 87.5843 117.172 87.0203 117.442C86.4623 117.706 86.0033 118.102 85.6433 118.63V117.28H84.4463V127ZM98.8435 127.27C99.5515 127.27 100.173 127.126 100.707 126.838C101.241 126.544 101.682 126.145 102.03 125.641V127H103.218V114.04H101.886V118.423C101.532 117.979 101.094 117.634 100.572 117.388C100.056 117.136 99.4615 117.01 98.7895 117.01C97.9015 117.01 97.1395 117.235 96.5035 117.685C95.8675 118.135 95.3785 118.747 95.0365 119.521C94.7005 120.295 94.5325 121.165 94.5325 122.131C94.5325 123.103 94.7005 123.976 95.0365 124.75C95.3785 125.524 95.8705 126.139 96.5125 126.595C97.1605 127.045 97.9375 127.27 98.8435 127.27ZM98.9785 126.037C98.3065 126.037 97.7425 125.866 97.2865 125.524C96.8365 125.176 96.4975 124.708 96.2695 124.12C96.0475 123.532 95.9365 122.869 95.9365 122.131C95.9365 121.399 96.0475 120.739 96.2695 120.151C96.4915 119.563 96.8275 119.098 97.2775 118.756C97.7335 118.414 98.3095 118.243 99.0055 118.243C100.02 118.243 100.776 118.606 101.274 119.332C101.778 120.052 102.03 120.985 102.03 122.131C102.03 122.881 101.919 123.55 101.697 124.138C101.475 124.726 101.139 125.191 100.689 125.533C100.239 125.869 99.6685 126.037 98.9785 126.037ZM105.922 115.435H107.245V113.95H105.922V115.435ZM105.922 127H107.245V117.28H105.922V127ZM110.907 127H112.23V118.414H114.885V117.28H112.23V116.416C112.23 115.396 112.731 114.886 113.733 114.886H114.885V113.77H113.643C113.271 113.77 112.896 113.809 112.518 113.887C112.14 113.965 111.804 114.163 111.51 114.481C111.246 114.769 111.078 115.096 111.006 115.462C110.94 115.822 110.907 116.188 110.907 116.56V117.28H109.224V118.414H110.907V127ZM117.71 131.32H119.033L124.253 117.28H122.903L119.96 125.272L116.765 117.28H115.361L119.312 126.973L117.71 131.32ZM133.047 127.261C134.241 127.261 135.177 127 135.855 126.478C136.539 125.95 136.881 125.227 136.881 124.309C136.881 123.805 136.773 123.382 136.557 123.04C136.347 122.698 135.984 122.401 135.468 122.149C134.958 121.897 134.256 121.657 133.362 121.429C132.6 121.237 132.012 121.06 131.598 120.898C131.19 120.736 130.908 120.565 130.752 120.385C130.596 120.199 130.518 119.977 130.518 119.719C130.518 119.257 130.734 118.888 131.166 118.612C131.598 118.336 132.159 118.204 132.849 118.216C133.581 118.228 134.184 118.402 134.658 118.738C135.132 119.068 135.417 119.518 135.513 120.088L136.863 119.845C136.797 119.281 136.587 118.786 136.233 118.36C135.879 117.934 135.411 117.604 134.829 117.37C134.253 117.13 133.599 117.01 132.867 117.01C132.135 117.01 131.49 117.127 130.932 117.361C130.38 117.589 129.948 117.913 129.636 118.333C129.33 118.747 129.177 119.23 129.177 119.782C129.177 120.232 129.279 120.616 129.483 120.934C129.693 121.246 130.05 121.525 130.554 121.771C131.058 122.011 131.748 122.251 132.624 122.491C133.446 122.713 134.061 122.905 134.469 123.067C134.883 123.229 135.159 123.406 135.297 123.598C135.435 123.784 135.504 124.027 135.504 124.327C135.504 124.855 135.291 125.275 134.865 125.587C134.439 125.899 133.857 126.055 133.119 126.055C132.363 126.055 131.727 125.893 131.211 125.569C130.695 125.239 130.368 124.798 130.23 124.246L128.88 124.471C129.048 125.347 129.498 126.031 130.23 126.523C130.968 127.015 131.907 127.261 133.047 127.261ZM141.658 127.27C143.356 127.27 144.589 126.643 145.357 125.389V127H146.536V120.961C146.536 120.601 146.518 120.247 146.482 119.899C146.446 119.551 146.368 119.236 146.248 118.954C145.99 118.324 145.549 117.844 144.925 117.514C144.307 117.178 143.554 117.01 142.666 117.01C141.598 117.01 140.728 117.25 140.056 117.73C139.384 118.21 138.934 118.885 138.706 119.755L139.993 120.133C140.179 119.485 140.5 119.011 140.956 118.711C141.418 118.411 141.982 118.261 142.648 118.261C143.572 118.261 144.232 118.477 144.628 118.909C145.024 119.335 145.228 119.986 145.24 120.862C144.808 120.922 144.331 120.985 143.809 121.051C143.293 121.117 142.774 121.192 142.252 121.276C141.73 121.36 141.25 121.456 140.812 121.564C140.086 121.756 139.492 122.077 139.03 122.527C138.568 122.971 138.337 123.592 138.337 124.39C138.337 124.906 138.46 125.383 138.706 125.821C138.952 126.259 139.321 126.61 139.813 126.874C140.311 127.138 140.926 127.27 141.658 127.27ZM141.811 126.127C141.289 126.127 140.869 126.043 140.551 125.875C140.239 125.701 140.011 125.482 139.867 125.218C139.729 124.948 139.66 124.672 139.66 124.39C139.66 123.862 139.837 123.466 140.191 123.202C140.545 122.938 140.929 122.746 141.343 122.626C141.877 122.482 142.498 122.365 143.206 122.275C143.914 122.185 144.586 122.101 145.222 122.023C145.222 122.245 145.213 122.5 145.195 122.788C145.183 123.07 145.15 123.331 145.096 123.571C144.97 124.303 144.622 124.912 144.052 125.398C143.488 125.884 142.741 126.127 141.811 126.127ZM151.156 127H152.524L156.052 117.28H154.693L151.84 125.272L148.969 117.28H147.628L151.156 127ZM161.43 127.27C162.372 127.27 163.215 127.039 163.959 126.577C164.709 126.115 165.276 125.458 165.66 124.606L164.427 124.129C163.809 125.377 162.792 126.001 161.376 126.001C160.404 126.001 159.642 125.698 159.09 125.092C158.544 124.486 158.244 123.625 158.19 122.509H165.849C165.897 120.793 165.522 119.449 164.724 118.477C163.932 117.499 162.816 117.01 161.376 117.01C160.44 117.01 159.627 117.22 158.937 117.64C158.253 118.06 157.722 118.657 157.344 119.431C156.966 120.205 156.777 121.123 156.777 122.185C156.777 123.211 156.966 124.105 157.344 124.867C157.728 125.629 158.268 126.22 158.964 126.64C159.666 127.06 160.488 127.27 161.43 127.27ZM161.412 118.225C163.242 118.225 164.259 119.284 164.463 121.402H158.217C158.319 120.376 158.643 119.59 159.189 119.044C159.735 118.498 160.476 118.225 161.412 118.225ZM171.617 127.27C172.325 127.27 172.946 127.126 173.48 126.838C174.014 126.544 174.455 126.145 174.803 125.641V127H175.991V114.04H174.659V118.423C174.305 117.979 173.867 117.634 173.345 117.388C172.829 117.136 172.235 117.01 171.563 117.01C170.675 117.01 169.913 117.235 169.277 117.685C168.641 118.135 168.152 118.747 167.81 119.521C167.474 120.295 167.306 121.165 167.306 122.131C167.306 123.103 167.474 123.976 167.81 124.75C168.152 125.524 168.644 126.139 169.286 126.595C169.934 127.045 170.711 127.27 171.617 127.27ZM171.752 126.037C171.08 126.037 170.516 125.866 170.06 125.524C169.61 125.176 169.271 124.708 169.043 124.12C168.821 123.532 168.71 122.869 168.71 122.131C168.71 121.399 168.821 120.739 169.043 120.151C169.265 119.563 169.601 119.098 170.051 118.756C170.507 118.414 171.083 118.243 171.779 118.243C172.793 118.243 173.549 118.606 174.047 119.332C174.551 120.052 174.803 120.985 174.803 122.131C174.803 122.881 174.692 123.55 174.47 124.138C174.248 124.726 173.912 125.191 173.462 125.533C173.012 125.869 172.442 126.037 171.752 126.037ZM186.178 127.27C187.138 127.27 187.96 127.054 188.644 126.622C189.334 126.19 189.862 125.59 190.228 124.822C190.6 124.048 190.786 123.151 190.786 122.131C190.786 121.129 190.603 120.244 190.237 119.476C189.877 118.702 189.352 118.099 188.662 117.667C187.978 117.229 187.15 117.01 186.178 117.01C185.23 117.01 184.411 117.226 183.721 117.658C183.037 118.084 182.509 118.681 182.137 119.449C181.765 120.217 181.579 121.111 181.579 122.131C181.579 123.133 181.759 124.021 182.119 124.795C182.485 125.569 183.01 126.175 183.694 126.613C184.384 127.051 185.212 127.27 186.178 127.27ZM186.178 126.001C185.128 126.001 184.333 125.65 183.793 124.948C183.253 124.24 182.983 123.301 182.983 122.131C182.983 120.997 183.244 120.073 183.766 119.359C184.288 118.639 185.092 118.279 186.178 118.279C187.252 118.279 188.053 118.63 188.581 119.332C189.115 120.028 189.382 120.961 189.382 122.131C189.382 123.277 189.118 124.21 188.59 124.93C188.062 125.644 187.258 126.001 186.178 126.001ZM196.489 127.243C197.185 127.243 197.812 127.111 198.37 126.847C198.934 126.577 199.396 126.178 199.756 125.65V127H200.944V117.28H199.621V122.464C199.621 123.562 199.375 124.423 198.883 125.047C198.391 125.671 197.677 125.983 196.741 125.983C196.063 125.983 195.517 125.821 195.103 125.497C194.689 125.167 194.389 124.72 194.203 124.156C194.017 123.592 193.924 122.953 193.924 122.239V117.28H192.592V122.626C192.592 123.172 192.658 123.718 192.79 124.264C192.928 124.81 193.147 125.308 193.447 125.758C193.747 126.208 194.146 126.568 194.644 126.838C195.148 127.108 195.763 127.243 196.489 127.243ZM203.459 127H204.782V122.149C204.782 121.567 204.848 120.988 204.98 120.412C205.118 119.83 205.43 119.347 205.916 118.963C206.27 118.675 206.654 118.51 207.068 118.468C207.488 118.42 207.878 118.438 208.238 118.522V117.28C207.812 117.172 207.329 117.169 206.789 117.271C206.249 117.367 205.787 117.583 205.403 117.919C205.115 118.135 204.863 118.435 204.647 118.819V117.28H203.459V127ZM218.841 127V125.839C218.145 125.953 217.56 125.971 217.086 125.893C216.618 125.815 216.276 125.575 216.06 125.173C215.946 124.963 215.883 124.723 215.871 124.453C215.865 124.177 215.862 123.835 215.862 123.427V118.414H218.841V117.28H215.862V114.58H214.548V117.28H212.469V118.414H214.548V123.481C214.548 123.955 214.554 124.378 214.566 124.75C214.584 125.122 214.68 125.485 214.854 125.839C215.07 126.271 215.385 126.589 215.799 126.793C216.219 126.997 216.693 127.111 217.221 127.135C217.755 127.159 218.295 127.114 218.841 127ZM220.936 115.435H222.259V113.95H220.936V115.435ZM220.936 127H222.259V117.28H220.936V127ZM224.948 127H226.28V120.727C226.28 119.965 226.487 119.356 226.901 118.9C227.315 118.438 227.858 118.207 228.53 118.207C229.202 118.207 229.742 118.432 230.15 118.882C230.564 119.326 230.771 119.935 230.771 120.709L230.762 127H232.067L232.076 120.727C232.076 120.121 232.187 119.635 232.409 119.269C232.637 118.897 232.925 118.627 233.273 118.459C233.621 118.291 233.978 118.207 234.344 118.207C234.986 118.207 235.514 118.423 235.928 118.855C236.348 119.281 236.558 119.869 236.558 120.619L236.549 127H237.872L237.881 120.367C237.881 119.341 237.587 118.528 236.999 117.928C236.417 117.322 235.634 117.019 234.65 117.019C234.002 117.019 233.42 117.166 232.904 117.46C232.388 117.748 231.989 118.147 231.707 118.657C231.443 118.123 231.062 117.718 230.564 117.442C230.072 117.16 229.508 117.019 228.872 117.019C228.296 117.019 227.771 117.136 227.297 117.37C226.823 117.598 226.436 117.91 226.136 118.306V117.28H224.948V127ZM244.258 127.27C245.2 127.27 246.043 127.039 246.787 126.577C247.537 126.115 248.104 125.458 248.488 124.606L247.255 124.129C246.637 125.377 245.62 126.001 244.204 126.001C243.232 126.001 242.47 125.698 241.918 125.092C241.372 124.486 241.072 123.625 241.018 122.509H248.677C248.725 120.793 248.35 119.449 247.552 118.477C246.76 117.499 245.644 117.01 244.204 117.01C243.268 117.01 242.455 117.22 241.765 117.64C241.081 118.06 240.55 118.657 240.172 119.431C239.794 120.205 239.605 121.123 239.605 122.185C239.605 123.211 239.794 124.105 240.172 124.867C240.556 125.629 241.096 126.22 241.792 126.64C242.494 127.06 243.316 127.27 244.258 127.27ZM244.24 118.225C246.07 118.225 247.087 119.284 247.291 121.402H241.045C241.147 120.376 241.471 119.59 242.017 119.044C242.563 118.498 243.304 118.225 244.24 118.225ZM254.458 115.435H255.781V113.95H254.458V115.435ZM254.458 127H255.781V117.28H254.458V127ZM258.47 127H259.802V121.816C259.802 120.718 260.048 119.857 260.54 119.233C261.032 118.609 261.746 118.297 262.682 118.297C263.36 118.297 263.906 118.462 264.32 118.792C264.734 119.116 265.034 119.56 265.22 120.124C265.406 120.688 265.499 121.327 265.499 122.041V127H266.831V121.654C266.831 121.108 266.762 120.562 266.624 120.016C266.492 119.47 266.276 118.972 265.976 118.522C265.676 118.072 265.277 117.712 264.779 117.442C264.281 117.172 263.666 117.037 262.934 117.037C262.238 117.037 261.608 117.172 261.044 117.442C260.486 117.706 260.027 118.102 259.667 118.63V117.28H258.47V127ZM69.031 159.27C69.739 159.27 70.36 159.126 70.894 158.838C71.428 158.544 71.869 158.145 72.217 157.641V159H73.405V146.04H72.073V150.423C71.719 149.979 71.281 149.634 70.759 149.388C70.243 149.136 69.649 149.01 68.977 149.01C68.089 149.01 67.327 149.235 66.691 149.685C66.055 150.135 65.566 150.747 65.224 151.521C64.888 152.295 64.72 153.165 64.72 154.131C64.72 155.103 64.888 155.976 65.224 156.75C65.566 157.524 66.058 158.139 66.7 158.595C67.348 159.045 68.125 159.27 69.031 159.27ZM69.166 158.037C68.494 158.037 67.93 157.866 67.474 157.524C67.024 157.176 66.685 156.708 66.457 156.12C66.235 155.532 66.124 154.869 66.124 154.131C66.124 153.399 66.235 152.739 66.457 152.151C66.679 151.563 67.015 151.098 67.465 150.756C67.921 150.414 68.497 150.243 69.193 150.243C70.207 150.243 70.963 150.606 71.461 151.332C71.965 152.052 72.217 152.985 72.217 154.131C72.217 154.881 72.106 155.55 71.884 156.138C71.662 156.726 71.326 157.191 70.876 157.533C70.426 157.869 69.856 158.037 69.166 158.037ZM80.0429 159.27C80.9849 159.27 81.8279 159.039 82.5719 158.577C83.3219 158.115 83.8889 157.458 84.2729 156.606L83.0399 156.129C82.4219 157.377 81.4049 158.001 79.9889 158.001C79.0169 158.001 78.2549 157.698 77.7029 157.092C77.1569 156.486 76.8569 155.625 76.8029 154.509H84.4619C84.5099 152.793 84.1349 151.449 83.3369 150.477C82.5449 149.499 81.4289 149.01 79.9889 149.01C79.0529 149.01 78.2399 149.22 77.5499 149.64C76.8659 150.06 76.3349 150.657 75.9569 151.431C75.5789 152.205 75.3899 153.123 75.3899 154.185C75.3899 155.211 75.5789 156.105 75.9569 156.867C76.3409 157.629 76.8809 158.22 77.5769 158.64C78.2789 159.06 79.1009 159.27 80.0429 159.27ZM80.0249 150.225C81.8549 150.225 82.8719 151.284 83.0759 153.402H76.8299C76.9319 152.376 77.2559 151.59 77.8019 151.044C78.3479 150.498 79.0889 150.225 80.0249 150.225ZM90.0862 159.261C91.2802 159.261 92.2162 159 92.8942 158.478C93.5782 157.95 93.9202 157.227 93.9202 156.309C93.9202 155.805 93.8122 155.382 93.5962 155.04C93.3862 154.698 93.0232 154.401 92.5072 154.149C91.9972 153.897 91.2952 153.657 90.4012 153.429C89.6392 153.237 89.0512 153.06 88.6372 152.898C88.2292 152.736 87.9472 152.565 87.7912 152.385C87.6352 152.199 87.5572 151.977 87.5572 151.719C87.5572 151.257 87.7732 150.888 88.2052 150.612C88.6372 150.336 89.1982 150.204 89.8882 150.216C90.6202 150.228 91.2232 150.402 91.6972 150.738C92.1712 151.068 92.4562 151.518 92.5522 152.088L93.9022 151.845C93.8362 151.281 93.6262 150.786 93.2722 150.36C92.9182 149.934 92.4502 149.604 91.8682 149.37C91.2922 149.13 90.6382 149.01 89.9062 149.01C89.1742 149.01 88.5292 149.127 87.9712 149.361C87.4192 149.589 86.9872 149.913 86.6752 150.333C86.3692 150.747 86.2162 151.23 86.2162 151.782C86.2162 152.232 86.3182 152.616 86.5222 152.934C86.7322 153.246 87.0892 153.525 87.5932 153.771C88.0972 154.011 88.7872 154.251 89.6632 154.491C90.4852 154.713 91.1002 154.905 91.5082 155.067C91.9222 155.229 92.1982 155.406 92.3362 155.598C92.4742 155.784 92.5432 156.027 92.5432 156.327C92.5432 156.855 92.3302 157.275 91.9042 157.587C91.4782 157.899 90.8962 158.055 90.1582 158.055C89.4022 158.055 88.7662 157.893 88.2502 157.569C87.7342 157.239 87.4072 156.798 87.2692 156.246L85.9192 156.471C86.0872 157.347 86.5372 158.031 87.2692 158.523C88.0072 159.015 88.9462 159.261 90.0862 159.261ZM96.0963 147.435H97.4193V145.95H96.0963V147.435ZM96.0963 159H97.4193V149.28H96.0963V159ZM103.888 159.27C104.542 159.27 105.124 159.144 105.634 158.892C106.144 158.64 106.573 158.292 106.921 157.848V158.847C106.927 159.987 106.702 160.848 106.246 161.43C105.79 162.012 105.034 162.303 103.978 162.303C103.468 162.303 102.967 162.183 102.475 161.943C101.983 161.709 101.605 161.322 101.341 160.782L100.144 161.448C100.558 162.204 101.113 162.75 101.809 163.086C102.511 163.422 103.234 163.59 103.978 163.59C105.166 163.59 106.114 163.332 106.822 162.816C107.53 162.3 107.971 161.499 108.145 160.413C108.187 160.167 108.214 159.915 108.226 159.657C108.244 159.405 108.253 159.141 108.253 158.865V149.28H107.074V150.621C106.72 150.117 106.27 149.724 105.724 149.442C105.184 149.154 104.554 149.01 103.834 149.01C102.946 149.01 102.184 149.235 101.548 149.685C100.912 150.135 100.423 150.747 100.081 151.521C99.7454 152.295 99.5774 153.165 99.5774 154.131C99.5774 155.103 99.7454 155.976 100.081 156.75C100.423 157.524 100.915 158.139 101.557 158.595C102.205 159.045 102.982 159.27 103.888 159.27ZM104.023 158.037C103.351 158.037 102.787 157.866 102.331 157.524C101.881 157.176 101.542 156.708 101.314 156.12C101.092 155.532 100.981 154.869 100.981 154.131C100.981 153.399 101.092 152.739 101.314 152.151C101.536 151.563 101.872 151.098 102.322 150.756C102.778 150.414 103.354 150.243 104.05 150.243C105.064 150.243 105.82 150.606 106.318 151.332C106.822 152.052 107.074 152.985 107.074 154.131C107.074 154.881 106.963 155.55 106.741 156.138C106.519 156.726 106.183 157.191 105.733 157.533C105.283 157.869 104.713 158.037 104.023 158.037ZM110.761 159H112.093V153.816C112.093 152.718 112.339 151.857 112.831 151.233C113.323 150.609 114.037 150.297 114.973 150.297C115.651 150.297 116.197 150.462 116.611 150.792C117.025 151.116 117.325 151.56 117.511 152.124C117.697 152.688 117.79 153.327 117.79 154.041V159H119.122V153.654C119.122 153.108 119.053 152.562 118.915 152.016C118.783 151.47 118.567 150.972 118.267 150.522C117.967 150.072 117.568 149.712 117.07 149.442C116.572 149.172 115.957 149.037 115.225 149.037C114.529 149.037 113.899 149.172 113.335 149.442C112.777 149.706 112.318 150.102 111.958 150.63V149.28H110.761V159ZM121.637 147.435H122.96V145.95H121.637V147.435ZM121.637 159H122.96V149.28H121.637V159ZM125.649 159H126.981V153.816C126.981 152.718 127.227 151.857 127.719 151.233C128.211 150.609 128.925 150.297 129.861 150.297C130.539 150.297 131.085 150.462 131.499 150.792C131.913 151.116 132.213 151.56 132.399 152.124C132.585 152.688 132.678 153.327 132.678 154.041V159H134.01V153.654C134.01 153.108 133.941 152.562 133.803 152.016C133.671 151.47 133.455 150.972 133.155 150.522C132.855 150.072 132.456 149.712 131.958 149.442C131.46 149.172 130.845 149.037 130.113 149.037C129.417 149.037 128.787 149.172 128.223 149.442C127.665 149.706 127.206 150.102 126.846 150.63V149.28H125.649V159ZM140.117 159.27C140.771 159.27 141.353 159.144 141.863 158.892C142.373 158.64 142.802 158.292 143.15 157.848V158.847C143.156 159.987 142.931 160.848 142.475 161.43C142.019 162.012 141.263 162.303 140.207 162.303C139.697 162.303 139.196 162.183 138.704 161.943C138.212 161.709 137.834 161.322 137.57 160.782L136.373 161.448C136.787 162.204 137.342 162.75 138.038 163.086C138.74 163.422 139.463 163.59 140.207 163.59C141.395 163.59 142.343 163.332 143.051 162.816C143.759 162.3 144.2 161.499 144.374 160.413C144.416 160.167 144.443 159.915 144.455 159.657C144.473 159.405 144.482 159.141 144.482 158.865V149.28H143.303V150.621C142.949 150.117 142.499 149.724 141.953 149.442C141.413 149.154 140.783 149.01 140.063 149.01C139.175 149.01 138.413 149.235 137.777 149.685C137.141 150.135 136.652 150.747 136.31 151.521C135.974 152.295 135.806 153.165 135.806 154.131C135.806 155.103 135.974 155.976 136.31 156.75C136.652 157.524 137.144 158.139 137.786 158.595C138.434 159.045 139.211 159.27 140.117 159.27ZM140.252 158.037C139.58 158.037 139.016 157.866 138.56 157.524C138.11 157.176 137.771 156.708 137.543 156.12C137.321 155.532 137.21 154.869 137.21 154.131C137.21 153.399 137.321 152.739 137.543 152.151C137.765 151.563 138.101 151.098 138.551 150.756C139.007 150.414 139.583 150.243 140.279 150.243C141.293 150.243 142.049 150.606 142.547 151.332C143.051 152.052 143.303 152.985 143.303 154.131C143.303 154.881 143.192 155.55 142.97 156.138C142.748 156.726 142.412 157.191 141.962 157.533C141.512 157.869 140.942 158.037 140.252 158.037ZM150.593 159H151.925V152.727C151.925 151.965 152.132 151.356 152.546 150.9C152.96 150.438 153.503 150.207 154.175 150.207C154.847 150.207 155.387 150.432 155.795 150.882C156.209 151.326 156.416 151.935 156.416 152.709L156.407 159H157.712L157.721 152.727C157.721 152.121 157.832 151.635 158.054 151.269C158.282 150.897 158.57 150.627 158.918 150.459C159.266 150.291 159.623 150.207 159.989 150.207C160.631 150.207 161.159 150.423 161.573 150.855C161.993 151.281 162.203 151.869 162.203 152.619L162.194 159H163.517L163.526 152.367C163.526 151.341 163.232 150.528 162.644 149.928C162.062 149.322 161.279 149.019 160.295 149.019C159.647 149.019 159.065 149.166 158.549 149.46C158.033 149.748 157.634 150.147 157.352 150.657C157.088 150.123 156.707 149.718 156.209 149.442C155.717 149.16 155.153 149.019 154.517 149.019C153.941 149.019 153.416 149.136 152.942 149.37C152.468 149.598 152.081 149.91 151.781 150.306V149.28H150.593V159ZM166.894 163.32H168.217L173.437 149.28H172.087L169.144 157.272L165.949 149.28H164.545L168.496 158.973L166.894 163.32ZM182.636 159.27C183.602 159.27 184.43 159.045 185.12 158.595C185.816 158.139 186.347 157.479 186.713 156.615L185.381 156.219C184.889 157.407 183.974 158.001 182.636 158.001C181.592 158.001 180.806 157.65 180.278 156.948C179.75 156.24 179.48 155.304 179.468 154.14C179.48 153.006 179.741 152.079 180.251 151.359C180.767 150.639 181.562 150.279 182.636 150.279C183.272 150.279 183.836 150.441 184.328 150.765C184.826 151.083 185.189 151.533 185.417 152.115L186.713 151.701C186.443 150.867 185.942 150.21 185.21 149.73C184.484 149.25 183.629 149.01 182.645 149.01C181.679 149.01 180.857 149.226 180.179 149.658C179.501 150.084 178.982 150.684 178.622 151.458C178.262 152.226 178.076 153.12 178.064 154.14C178.076 155.136 178.256 156.021 178.604 156.795C178.958 157.569 179.474 158.175 180.152 158.613C180.83 159.051 181.658 159.27 182.636 159.27ZM192.366 159.27C193.326 159.27 194.148 159.054 194.832 158.622C195.522 158.19 196.05 157.59 196.416 156.822C196.788 156.048 196.974 155.151 196.974 154.131C196.974 153.129 196.791 152.244 196.425 151.476C196.065 150.702 195.54 150.099 194.85 149.667C194.166 149.229 193.338 149.01 192.366 149.01C191.418 149.01 190.599 149.226 189.909 149.658C189.225 150.084 188.697 150.681 188.325 151.449C187.953 152.217 187.767 153.111 187.767 154.131C187.767 155.133 187.947 156.021 188.307 156.795C188.673 157.569 189.198 158.175 189.882 158.613C190.572 159.051 191.4 159.27 192.366 159.27ZM192.366 158.001C191.316 158.001 190.521 157.65 189.981 156.948C189.441 156.24 189.171 155.301 189.171 154.131C189.171 152.997 189.432 152.073 189.954 151.359C190.476 150.639 191.28 150.279 192.366 150.279C193.44 150.279 194.241 150.63 194.769 151.332C195.303 152.028 195.57 152.961 195.57 154.131C195.57 155.277 195.306 156.21 194.778 156.93C194.25 157.644 193.446 158.001 192.366 158.001ZM198.95 159H200.282V152.727C200.282 151.965 200.489 151.356 200.903 150.9C201.317 150.438 201.86 150.207 202.532 150.207C203.204 150.207 203.744 150.432 204.152 150.882C204.566 151.326 204.773 151.935 204.773 152.709L204.764 159H206.069L206.078 152.727C206.078 152.121 206.189 151.635 206.411 151.269C206.639 150.897 206.927 150.627 207.275 150.459C207.623 150.291 207.98 150.207 208.346 150.207C208.988 150.207 209.516 150.423 209.93 150.855C210.35 151.281 210.56 151.869 210.56 152.619L210.551 159H211.874L211.883 152.367C211.883 151.341 211.589 150.528 211.001 149.928C210.419 149.322 209.636 149.019 208.652 149.019C208.004 149.019 207.422 149.166 206.906 149.46C206.39 149.748 205.991 150.147 205.709 150.657C205.445 150.123 205.064 149.718 204.566 149.442C204.074 149.16 203.51 149.019 202.874 149.019C202.298 149.019 201.773 149.136 201.299 149.37C200.825 149.598 200.438 149.91 200.138 150.306V149.28H198.95V159ZM214.208 163.32H215.54V157.839C215.888 158.283 216.317 158.634 216.827 158.892C217.337 159.144 217.922 159.27 218.582 159.27C219.494 159.27 220.271 159.045 220.913 158.595C221.555 158.139 222.044 157.524 222.38 156.75C222.722 155.976 222.893 155.103 222.893 154.131C222.893 153.165 222.722 152.295 222.38 151.521C222.044 150.747 221.558 150.135 220.922 149.685C220.286 149.235 219.524 149.01 218.636 149.01C217.916 149.01 217.283 149.154 216.737 149.442C216.197 149.724 215.75 150.117 215.396 150.621V149.28H214.208V163.32ZM218.447 158.037C217.757 158.037 217.187 157.869 216.737 157.533C216.287 157.191 215.951 156.726 215.729 156.138C215.507 155.55 215.396 154.881 215.396 154.131C215.396 152.985 215.645 152.052 216.143 151.332C216.647 150.606 217.406 150.243 218.42 150.243C219.116 150.243 219.689 150.414 220.139 150.756C220.595 151.098 220.934 151.563 221.156 152.151C221.378 152.739 221.489 153.399 221.489 154.131C221.489 154.869 221.375 155.532 221.147 156.12C220.925 156.708 220.589 157.176 220.139 157.524C219.689 157.866 219.125 158.037 218.447 158.037ZM227.65 159.27C229.348 159.27 230.581 158.643 231.349 157.389V159H232.528V152.961C232.528 152.601 232.51 152.247 232.474 151.899C232.438 151.551 232.36 151.236 232.24 150.954C231.982 150.324 231.541 149.844 230.917 149.514C230.299 149.178 229.546 149.01 228.658 149.01C227.59 149.01 226.72 149.25 226.048 149.73C225.376 150.21 224.926 150.885 224.698 151.755L225.985 152.133C226.171 151.485 226.492 151.011 226.948 150.711C227.41 150.411 227.974 150.261 228.64 150.261C229.564 150.261 230.224 150.477 230.62 150.909C231.016 151.335 231.22 151.986 231.232 152.862C230.8 152.922 230.323 152.985 229.801 153.051C229.285 153.117 228.766 153.192 228.244 153.276C227.722 153.36 227.242 153.456 226.804 153.564C226.078 153.756 225.484 154.077 225.022 154.527C224.56 154.971 224.329 155.592 224.329 156.39C224.329 156.906 224.452 157.383 224.698 157.821C224.944 158.259 225.313 158.61 225.805 158.874C226.303 159.138 226.918 159.27 227.65 159.27ZM227.803 158.127C227.281 158.127 226.861 158.043 226.543 157.875C226.231 157.701 226.003 157.482 225.859 157.218C225.721 156.948 225.652 156.672 225.652 156.39C225.652 155.862 225.829 155.466 226.183 155.202C226.537 154.938 226.921 154.746 227.335 154.626C227.869 154.482 228.49 154.365 229.198 154.275C229.906 154.185 230.578 154.101 231.214 154.023C231.214 154.245 231.205 154.5 231.187 154.788C231.175 155.07 231.142 155.331 231.088 155.571C230.962 156.303 230.614 156.912 230.044 157.398C229.48 157.884 228.733 158.127 227.803 158.127ZM234.862 159H236.194V153.816C236.194 152.718 236.44 151.857 236.932 151.233C237.424 150.609 238.138 150.297 239.074 150.297C239.752 150.297 240.298 150.462 240.712 150.792C241.126 151.116 241.426 151.56 241.612 152.124C241.798 152.688 241.891 153.327 241.891 154.041V159H243.223V153.654C243.223 153.108 243.154 152.562 243.016 152.016C242.884 151.47 242.668 150.972 242.368 150.522C242.068 150.072 241.669 149.712 241.171 149.442C240.673 149.172 240.058 149.037 239.326 149.037C238.63 149.037 238 149.172 237.436 149.442C236.878 149.706 236.419 150.102 236.059 150.63V149.28H234.862V159ZM246.593 163.32H247.916L253.136 149.28H251.786L248.843 157.272L245.648 149.28H244.244L248.195 158.973L246.593 163.32ZM258.294 163.32H259.626V157.839C259.974 158.283 260.403 158.634 260.913 158.892C261.423 159.144 262.008 159.27 262.668 159.27C263.58 159.27 264.357 159.045 264.999 158.595C265.641 158.139 266.13 157.524 266.466 156.75C266.808 155.976 266.979 155.103 266.979 154.131C266.979 153.165 266.808 152.295 266.466 151.521C266.13 150.747 265.644 150.135 265.008 149.685C264.372 149.235 263.61 149.01 262.722 149.01C262.002 149.01 261.369 149.154 260.823 149.442C260.283 149.724 259.836 150.117 259.482 150.621V149.28H258.294V163.32ZM262.533 158.037C261.843 158.037 261.273 157.869 260.823 157.533C260.373 157.191 260.037 156.726 259.815 156.138C259.593 155.55 259.482 154.881 259.482 154.131C259.482 152.985 259.731 152.052 260.229 151.332C260.733 150.606 261.492 150.243 262.506 150.243C263.202 150.243 263.775 150.414 264.225 150.756C264.681 151.098 265.02 151.563 265.242 152.151C265.464 152.739 265.575 153.399 265.575 154.131C265.575 154.869 265.461 155.532 265.233 156.12C265.011 156.708 264.675 157.176 264.225 157.524C263.775 157.866 263.211 158.037 262.533 158.037ZM271.736 159.27C273.434 159.27 274.667 158.643 275.435 157.389V159H276.614V152.961C276.614 152.601 276.596 152.247 276.56 151.899C276.524 151.551 276.446 151.236 276.326 150.954C276.068 150.324 275.627 149.844 275.003 149.514C274.385 149.178 273.632 149.01 272.744 149.01C271.676 149.01 270.806 149.25 270.134 149.73C269.462 150.21 269.012 150.885 268.784 151.755L270.071 152.133C270.257 151.485 270.578 151.011 271.034 150.711C271.496 150.411 272.06 150.261 272.726 150.261C273.65 150.261 274.31 150.477 274.706 150.909C275.102 151.335 275.306 151.986 275.318 152.862C274.886 152.922 274.409 152.985 273.887 153.051C273.371 153.117 272.852 153.192 272.33 153.276C271.808 153.36 271.328 153.456 270.89 153.564C270.164 153.756 269.57 154.077 269.108 154.527C268.646 154.971 268.415 155.592 268.415 156.39C268.415 156.906 268.538 157.383 268.784 157.821C269.03 158.259 269.399 158.61 269.891 158.874C270.389 159.138 271.004 159.27 271.736 159.27ZM271.889 158.127C271.367 158.127 270.947 158.043 270.629 157.875C270.317 157.701 270.089 157.482 269.945 157.218C269.807 156.948 269.738 156.672 269.738 156.39C269.738 155.862 269.915 155.466 270.269 155.202C270.623 154.938 271.007 154.746 271.421 154.626C271.955 154.482 272.576 154.365 273.284 154.275C273.992 154.185 274.664 154.101 275.3 154.023C275.3 154.245 275.291 154.5 275.273 154.788C275.261 155.07 275.228 155.331 275.174 155.571C275.048 156.303 274.7 156.912 274.13 157.398C273.566 157.884 272.819 158.127 271.889 158.127ZM282.728 159.27C283.382 159.27 283.964 159.144 284.474 158.892C284.984 158.64 285.413 158.292 285.761 157.848V158.847C285.767 159.987 285.542 160.848 285.086 161.43C284.63 162.012 283.874 162.303 282.818 162.303C282.308 162.303 281.807 162.183 281.315 161.943C280.823 161.709 280.445 161.322 280.181 160.782L278.984 161.448C279.398 162.204 279.953 162.75 280.649 163.086C281.351 163.422 282.074 163.59 282.818 163.59C284.006 163.59 284.954 163.332 285.662 162.816C286.37 162.3 286.811 161.499 286.985 160.413C287.027 160.167 287.054 159.915 287.066 159.657C287.084 159.405 287.093 159.141 287.093 158.865V149.28H285.914V150.621C285.56 150.117 285.11 149.724 284.564 149.442C284.024 149.154 283.394 149.01 282.674 149.01C281.786 149.01 281.024 149.235 280.388 149.685C279.752 150.135 279.263 150.747 278.921 151.521C278.585 152.295 278.417 153.165 278.417 154.131C278.417 155.103 278.585 155.976 278.921 156.75C279.263 157.524 279.755 158.139 280.397 158.595C281.045 159.045 281.822 159.27 282.728 159.27ZM282.863 158.037C282.191 158.037 281.627 157.866 281.171 157.524C280.721 157.176 280.382 156.708 280.154 156.12C279.932 155.532 279.821 154.869 279.821 154.131C279.821 153.399 279.932 152.739 280.154 152.151C280.376 151.563 280.712 151.098 281.162 150.756C281.618 150.414 282.194 150.243 282.89 150.243C283.904 150.243 284.66 150.606 285.158 151.332C285.662 152.052 285.914 152.985 285.914 154.131C285.914 154.881 285.803 155.55 285.581 156.138C285.359 156.726 285.023 157.191 284.573 157.533C284.123 157.869 283.553 158.037 282.863 158.037ZM293.723 159.27C294.665 159.27 295.508 159.039 296.252 158.577C297.002 158.115 297.569 157.458 297.953 156.606L296.72 156.129C296.102 157.377 295.085 158.001 293.669 158.001C292.697 158.001 291.935 157.698 291.383 157.092C290.837 156.486 290.537 155.625 290.483 154.509H298.142C298.19 152.793 297.815 151.449 297.017 150.477C296.225 149.499 295.109 149.01 293.669 149.01C292.733 149.01 291.92 149.22 291.23 149.64C290.546 150.06 290.015 150.657 289.637 151.431C289.259 152.205 289.07 153.123 289.07 154.185C289.07 155.211 289.259 156.105 289.637 156.867C290.021 157.629 290.561 158.22 291.257 158.64C291.959 159.06 292.781 159.27 293.723 159.27ZM293.705 150.225C295.535 150.225 296.552 151.284 296.756 153.402H290.51C290.612 152.376 290.936 151.59 291.482 151.044C292.028 150.498 292.769 150.225 293.705 150.225ZM300.039 159H301.578V157.461H300.039V159Z" fill="#18191F"/>
<path d="M65.26 213H67.429V206.952L72.892 213H75.646L69.697 206.394L75.268 200.04H72.604L67.429 206.052V200.04H65.26V213ZM76.9143 213H79.0923V208.059C79.0923 207.495 79.1943 206.994 79.3983 206.556C79.6083 206.118 79.9353 205.779 80.3793 205.539C80.6793 205.365 81.0153 205.263 81.3873 205.233C81.7593 205.197 82.0923 205.221 82.3863 205.305V203.28C81.9483 203.214 81.4983 203.223 81.0363 203.307C80.5743 203.385 80.1633 203.547 79.8033 203.793C79.5993 203.919 79.4163 204.072 79.2543 204.252C79.0923 204.426 78.9513 204.621 78.8313 204.837V203.28H76.9143V213ZM84.2838 201.804H86.4528V199.815H84.2838V201.804ZM84.2838 213H86.4528V203.28H84.2838V213ZM92.9017 213.27C94.1557 213.27 95.1367 212.991 95.8447 212.433C96.5587 211.875 96.9157 211.107 96.9157 210.129C96.9157 209.373 96.6757 208.779 96.1957 208.347C95.7217 207.915 94.9027 207.549 93.7387 207.249C92.9827 207.057 92.4127 206.895 92.0287 206.763C91.6507 206.631 91.3987 206.499 91.2727 206.367C91.1467 206.235 91.0837 206.076 91.0837 205.89C91.0837 205.566 91.2397 205.314 91.5517 205.134C91.8637 204.948 92.2747 204.867 92.7847 204.891C93.3127 204.921 93.7357 205.056 94.0537 205.296C94.3777 205.536 94.5697 205.863 94.6297 206.277L96.8437 205.881C96.7237 205.005 96.2947 204.309 95.5567 203.793C94.8187 203.271 93.8827 203.01 92.7487 203.01C91.5907 203.01 90.6637 203.28 89.9677 203.82C89.2717 204.36 88.9237 205.086 88.9237 205.998C88.9237 206.724 89.1667 207.297 89.6527 207.717C90.1447 208.137 90.9997 208.506 92.2177 208.824C92.9497 209.016 93.4897 209.178 93.8377 209.31C94.1917 209.436 94.4227 209.565 94.5307 209.697C94.6387 209.829 94.6927 210.006 94.6927 210.228C94.6927 210.588 94.5487 210.873 94.2607 211.083C93.9727 211.287 93.5707 211.389 93.0547 211.389C92.4607 211.389 91.9657 211.251 91.5697 210.975C91.1797 210.699 90.9307 210.321 90.8227 209.841L88.6087 210.183C88.7707 211.161 89.2267 211.92 89.9767 212.46C90.7267 213 91.7017 213.27 92.9017 213.27ZM104.584 213V211.182C103.978 211.272 103.438 211.296 102.964 211.254C102.49 211.212 102.145 211.011 101.929 210.651C101.815 210.465 101.752 210.225 101.74 209.931C101.734 209.631 101.731 209.289 101.731 208.905V204.981H104.584V203.28H101.731V200.58H99.571V203.28H97.807V204.981H99.571V209.031C99.571 209.589 99.577 210.087 99.589 210.525C99.601 210.957 99.718 211.383 99.94 211.803C100.192 212.265 100.561 212.604 101.047 212.82C101.533 213.03 102.082 213.141 102.694 213.153C103.312 213.171 103.942 213.12 104.584 213ZM106.854 201.804H109.023V199.815H106.854V201.804ZM106.854 213H109.023V203.28H106.854V213ZM111.701 213H113.897V208.005C113.897 207.219 114.008 206.613 114.23 206.187C114.458 205.755 114.746 205.458 115.094 205.296C115.448 205.128 115.808 205.044 116.174 205.044C116.69 205.044 117.101 205.158 117.407 205.386C117.713 205.608 117.938 205.893 118.082 206.241C118.232 206.583 118.328 206.94 118.37 207.312C118.418 207.684 118.442 208.02 118.442 208.32V213H120.638V207.573C120.638 207.345 120.617 207.042 120.575 206.664C120.539 206.286 120.455 205.887 120.323 205.467C120.191 205.047 119.987 204.651 119.711 204.279C119.435 203.901 119.06 203.595 118.586 203.361C118.118 203.121 117.527 203.001 116.813 203.001C116.111 203.001 115.493 203.124 114.959 203.37C114.431 203.61 113.99 203.94 113.636 204.36V203.28H111.701V213ZM129.326 213H131.468L134.114 203.784L136.76 213H138.902L142.682 200.04H140.405L137.831 209.4L135.248 200.04L132.971 200.058L130.397 209.4L127.814 200.04H125.537L129.326 213ZM146.06 213.27C146.834 213.27 147.491 213.144 148.031 212.892C148.577 212.634 149.057 212.235 149.471 211.695V213H151.37V207.033C151.37 206.613 151.352 206.226 151.316 205.872C151.28 205.512 151.175 205.161 151.001 204.819C150.683 204.177 150.194 203.715 149.534 203.433C148.88 203.151 148.121 203.01 147.257 203.01C146.117 203.01 145.208 203.259 144.53 203.757C143.852 204.255 143.393 204.915 143.153 205.737L145.133 206.358C145.295 205.86 145.58 205.509 145.988 205.305C146.396 205.101 146.819 204.999 147.257 204.999C147.917 204.999 148.403 205.134 148.715 205.404C149.027 205.668 149.204 206.079 149.246 206.637C148.394 206.763 147.602 206.886 146.87 207.006C146.144 207.12 145.526 207.261 145.016 207.429C144.248 207.693 143.687 208.068 143.333 208.554C142.979 209.034 142.802 209.628 142.802 210.336C142.802 210.87 142.925 211.359 143.171 211.803C143.423 212.247 143.792 212.604 144.278 212.874C144.764 213.138 145.358 213.27 146.06 213.27ZM146.492 211.542C145.982 211.542 145.592 211.425 145.322 211.191C145.058 210.957 144.926 210.663 144.926 210.309C144.926 209.991 145.028 209.733 145.232 209.535C145.442 209.337 145.733 209.169 146.105 209.031C146.447 208.917 146.858 208.818 147.338 208.734C147.818 208.644 148.445 208.539 149.219 208.419C149.213 208.647 149.198 208.902 149.174 209.184C149.15 209.46 149.093 209.709 149.003 209.931C148.931 210.153 148.79 210.39 148.58 210.642C148.376 210.894 148.1 211.107 147.752 211.281C147.404 211.455 146.984 211.542 146.492 211.542ZM159.41 213V211.182C158.804 211.272 158.264 211.296 157.79 211.254C157.316 211.212 156.971 211.011 156.755 210.651C156.641 210.465 156.578 210.225 156.566 209.931C156.56 209.631 156.557 209.289 156.557 208.905V204.981H159.41V203.28H156.557V200.58H154.397V203.28H152.633V204.981H154.397V209.031C154.397 209.589 154.403 210.087 154.415 210.525C154.427 210.957 154.544 211.383 154.766 211.803C155.018 212.265 155.387 212.604 155.873 212.82C156.359 213.03 156.908 213.141 157.52 213.153C158.138 213.171 158.768 213.12 159.41 213ZM165.253 213.27C166.507 213.27 167.488 212.991 168.196 212.433C168.91 211.875 169.267 211.107 169.267 210.129C169.267 209.373 169.027 208.779 168.547 208.347C168.073 207.915 167.254 207.549 166.09 207.249C165.334 207.057 164.764 206.895 164.38 206.763C164.002 206.631 163.75 206.499 163.624 206.367C163.498 206.235 163.435 206.076 163.435 205.89C163.435 205.566 163.591 205.314 163.903 205.134C164.215 204.948 164.626 204.867 165.136 204.891C165.664 204.921 166.087 205.056 166.405 205.296C166.729 205.536 166.921 205.863 166.981 206.277L169.195 205.881C169.075 205.005 168.646 204.309 167.908 203.793C167.17 203.271 166.234 203.01 165.1 203.01C163.942 203.01 163.015 203.28 162.319 203.82C161.623 204.36 161.275 205.086 161.275 205.998C161.275 206.724 161.518 207.297 162.004 207.717C162.496 208.137 163.351 208.506 164.569 208.824C165.301 209.016 165.841 209.178 166.189 209.31C166.543 209.436 166.774 209.565 166.882 209.697C166.99 209.829 167.044 210.006 167.044 210.228C167.044 210.588 166.9 210.873 166.612 211.083C166.324 211.287 165.922 211.389 165.406 211.389C164.812 211.389 164.317 211.251 163.921 210.975C163.531 210.699 163.282 210.321 163.174 209.841L160.96 210.183C161.122 211.161 161.578 211.92 162.328 212.46C163.078 213 164.053 213.27 165.253 213.27ZM175.532 213.27C176.504 213.27 177.353 213.054 178.079 212.622C178.805 212.184 179.369 211.581 179.771 210.813C180.179 210.039 180.383 209.148 180.383 208.14C180.383 207.138 180.182 206.253 179.78 205.485C179.378 204.711 178.814 204.105 178.088 203.667C177.362 203.229 176.51 203.01 175.532 203.01C174.578 203.01 173.738 203.226 173.012 203.658C172.286 204.09 171.719 204.69 171.311 205.458C170.903 206.226 170.699 207.12 170.699 208.14C170.699 209.142 170.897 210.03 171.293 210.804C171.695 211.572 172.259 212.175 172.985 212.613C173.711 213.051 174.56 213.27 175.532 213.27ZM175.532 211.236C174.698 211.236 174.065 210.957 173.633 210.399C173.207 209.835 172.994 209.082 172.994 208.14C172.994 207.222 173.198 206.478 173.606 205.908C174.02 205.332 174.662 205.044 175.532 205.044C176.384 205.044 177.023 205.326 177.449 205.89C177.875 206.448 178.088 207.198 178.088 208.14C178.088 209.052 177.875 209.796 177.449 210.372C177.029 210.948 176.39 211.236 175.532 211.236ZM182.347 213H184.543V208.005C184.543 207.219 184.654 206.613 184.876 206.187C185.104 205.755 185.392 205.458 185.74 205.296C186.094 205.128 186.454 205.044 186.82 205.044C187.336 205.044 187.747 205.158 188.053 205.386C188.359 205.608 188.584 205.893 188.728 206.241C188.878 206.583 188.974 206.94 189.016 207.312C189.064 207.684 189.088 208.02 189.088 208.32V213H191.284V207.573C191.284 207.345 191.263 207.042 191.221 206.664C191.185 206.286 191.101 205.887 190.969 205.467C190.837 205.047 190.633 204.651 190.357 204.279C190.081 203.901 189.706 203.595 189.232 203.361C188.764 203.121 188.173 203.001 187.459 203.001C186.757 203.001 186.139 203.124 185.605 203.37C185.077 203.61 184.636 203.94 184.282 204.36V203.28H182.347V213Z" fill="#18191F"/>
<path d="M69.124 237.21C70.2907 237.21 71.2497 236.914 72.001 236.321C72.757 235.724 73.2773 234.926 73.562 233.927L72.295 233.591C72.0897 234.338 71.721 234.93 71.189 235.369C70.6617 235.803 69.9733 236.02 69.124 236.02C68.3727 236.02 67.745 235.85 67.241 235.509C66.737 235.168 66.359 234.692 66.107 234.081C65.855 233.47 65.7313 232.763 65.736 231.96C65.7407 231.153 65.869 230.446 66.121 229.839C66.373 229.228 66.7487 228.752 67.248 228.411C67.7473 228.07 68.3727 227.9 69.124 227.9C69.9733 227.9 70.6617 228.117 71.189 228.551C71.721 228.985 72.0897 229.578 72.295 230.329L73.562 229.993C73.2773 228.99 72.757 228.192 72.001 227.599C71.2497 227.006 70.2907 226.71 69.124 226.71C68.1207 226.71 67.2667 226.932 66.562 227.375C65.862 227.818 65.33 228.434 64.966 229.223C64.602 230.012 64.42 230.924 64.42 231.96C64.42 232.996 64.602 233.908 64.966 234.697C65.33 235.486 65.862 236.102 66.562 236.545C67.2667 236.988 68.1207 237.21 69.124 237.21ZM78.3172 237.21C79.0685 237.21 79.7149 237.042 80.2562 236.706C80.8022 236.37 81.2222 235.901 81.5162 235.299C81.8149 234.697 81.9642 234.002 81.9642 233.213C81.9642 232.434 81.8172 231.745 81.5232 231.148C81.2339 230.546 80.8162 230.077 80.2702 229.741C79.7242 229.4 79.0732 229.23 78.3172 229.23C77.5799 229.23 76.9382 229.398 76.3922 229.734C75.8462 230.065 75.4239 230.53 75.1252 231.127C74.8265 231.724 74.6772 232.42 74.6772 233.213C74.6772 233.992 74.8219 234.683 75.1112 235.285C75.4052 235.887 75.8252 236.358 76.3712 236.699C76.9172 237.04 77.5659 237.21 78.3172 237.21ZM78.3172 236.027C77.5565 236.027 76.9802 235.773 76.5882 235.264C76.1962 234.751 76.0002 234.067 76.0002 233.213C76.0002 232.387 76.1892 231.715 76.5672 231.197C76.9452 230.674 77.5285 230.413 78.3172 230.413C79.0919 230.413 79.6729 230.667 80.0602 231.176C80.4475 231.685 80.6412 232.364 80.6412 233.213C80.6412 234.044 80.4475 234.72 80.0602 235.243C79.6775 235.766 79.0965 236.027 78.3172 236.027ZM83.3654 233.101H87.5654V232.072H83.3654V233.101ZM89.3843 237H90.6303V232.583H94.4243V231.337H90.6303V228.166H95.2643V226.92H89.3843V237ZM99.5359 237.21C100.287 237.21 100.934 237.042 101.475 236.706C102.021 236.37 102.441 235.901 102.735 235.299C103.034 234.697 103.183 234.002 103.183 233.213C103.183 232.434 103.036 231.745 102.742 231.148C102.453 230.546 102.035 230.077 101.489 229.741C100.943 229.4 100.292 229.23 99.5359 229.23C98.7986 229.23 98.1569 229.398 97.6109 229.734C97.0649 230.065 96.6426 230.53 96.3439 231.127C96.0453 231.724 95.8959 232.42 95.8959 233.213C95.8959 233.992 96.0406 234.683 96.3299 235.285C96.6239 235.887 97.0439 236.358 97.5899 236.699C98.1359 237.04 98.7846 237.21 99.5359 237.21ZM99.5359 236.027C98.7753 236.027 98.1989 235.773 97.8069 235.264C97.4149 234.751 97.2189 234.067 97.2189 233.213C97.2189 232.387 97.4079 231.715 97.7859 231.197C98.1639 230.674 98.7473 230.413 99.5359 230.413C100.311 230.413 100.892 230.667 101.279 231.176C101.666 231.685 101.86 232.364 101.86 233.213C101.86 234.044 101.666 234.72 101.279 235.243C100.896 235.766 100.315 236.027 99.5359 236.027ZM107.594 237.196C108.695 237.196 109.535 236.806 110.114 236.027V237H111.227V229.44H109.974V233.423C109.974 234.296 109.783 234.947 109.4 235.376C109.022 235.801 108.52 236.013 107.895 236.013C107.363 236.013 106.948 235.88 106.649 235.614C106.355 235.348 106.147 235.003 106.026 234.578C105.905 234.149 105.844 233.698 105.844 233.227V229.44H104.584V233.619C104.584 233.978 104.626 234.366 104.71 234.781C104.799 235.192 104.953 235.581 105.172 235.95C105.396 236.314 105.704 236.613 106.096 236.846C106.488 237.079 106.987 237.196 107.594 237.196ZM113.18 237H114.44V233.017C114.44 232.14 114.629 231.489 115.007 231.064C115.39 230.639 115.894 230.427 116.519 230.427C117.051 230.427 117.466 230.56 117.765 230.826C118.064 231.092 118.271 231.437 118.388 231.862C118.509 232.287 118.57 232.737 118.57 233.213V237H119.83V232.821C119.83 232.462 119.786 232.077 119.697 231.666C119.613 231.251 119.459 230.861 119.235 230.497C119.016 230.128 118.71 229.827 118.318 229.594C117.931 229.361 117.431 229.244 116.82 229.244C115.719 229.244 114.879 229.634 114.3 230.413V229.44H113.18V237ZM124.55 237.21C125.063 237.21 125.516 237.117 125.908 236.93C126.304 236.739 126.64 236.477 126.916 236.146V237H128.029V226.92H126.776V230.126C126.505 229.846 126.183 229.627 125.81 229.468C125.436 229.309 125.014 229.23 124.543 229.23C123.843 229.23 123.238 229.405 122.73 229.755C122.226 230.1 121.838 230.574 121.568 231.176C121.297 231.778 121.162 232.457 121.162 233.213C121.162 233.969 121.297 234.648 121.568 235.25C121.838 235.852 122.226 236.33 122.73 236.685C123.238 237.035 123.845 237.21 124.55 237.21ZM124.704 236.069C124.209 236.069 123.796 235.943 123.465 235.691C123.138 235.439 122.893 235.098 122.73 234.669C122.566 234.235 122.485 233.75 122.485 233.213C122.485 232.681 122.564 232.2 122.723 231.771C122.886 231.342 123.133 231.001 123.465 230.749C123.801 230.497 124.225 230.371 124.739 230.371C125.476 230.371 126.022 230.637 126.377 231.169C126.736 231.696 126.916 232.378 126.916 233.213C126.916 234.044 126.738 234.727 126.384 235.264C126.029 235.801 125.469 236.069 124.704 236.069ZM133.266 237.21C133.998 237.21 134.659 237.028 135.247 236.664C135.835 236.295 136.278 235.777 136.577 235.11L135.38 234.697C134.946 235.584 134.222 236.027 133.21 236.027C132.514 236.027 131.968 235.815 131.572 235.39C131.18 234.961 130.958 234.354 130.907 233.57H136.703C136.74 232.674 136.623 231.902 136.353 231.253C136.087 230.604 135.685 230.105 135.149 229.755C134.617 229.405 133.97 229.23 133.21 229.23C132.477 229.23 131.838 229.396 131.292 229.727C130.746 230.054 130.321 230.52 130.018 231.127C129.719 231.729 129.57 232.443 129.57 233.269C129.57 234.058 129.721 234.748 130.025 235.341C130.333 235.929 130.764 236.389 131.32 236.72C131.875 237.047 132.524 237.21 133.266 237.21ZM133.252 230.35C134.535 230.35 135.254 231.09 135.408 232.569H130.928C131.016 231.85 131.257 231.302 131.649 230.924C132.041 230.541 132.575 230.35 133.252 230.35ZM138.261 237H139.514V233.206C139.514 232.758 139.575 232.326 139.696 231.911C139.818 231.496 140.063 231.157 140.431 230.896C140.693 230.705 140.98 230.593 141.292 230.56C141.61 230.527 141.899 230.544 142.16 230.609V229.44C141.824 229.365 141.456 229.365 141.054 229.44C140.653 229.515 140.308 229.669 140.018 229.902C139.766 230.079 139.552 230.324 139.374 230.637V229.44H138.261V237ZM142.223 238.568C142.657 238.647 142.993 238.563 143.231 238.316C143.473 238.069 143.595 237.7 143.595 237.21V235.418H142.223V237H142.944C142.967 237.28 142.937 237.518 142.853 237.714C142.773 237.915 142.589 238.006 142.3 237.987L142.223 238.568ZM149.062 237H153.339C154.263 237 154.993 236.741 155.53 236.223C156.067 235.7 156.335 234.998 156.335 234.116C156.335 233.556 156.195 233.064 155.915 232.639C155.635 232.21 155.238 231.885 154.725 231.666C155.075 231.461 155.35 231.176 155.551 230.812C155.752 230.448 155.852 230.035 155.852 229.573C155.852 229.106 155.738 228.672 155.509 228.271C155.285 227.865 154.958 227.538 154.529 227.291C154.104 227.044 153.591 226.92 152.989 226.92H149.062V237ZM150.322 231.127V228.096H152.975C153.446 228.096 153.829 228.234 154.123 228.509C154.422 228.784 154.571 229.139 154.571 229.573C154.571 230.044 154.415 230.422 154.102 230.707C153.794 230.987 153.418 231.127 152.975 231.127H150.322ZM150.322 235.81V232.303H153.241C153.778 232.303 154.214 232.478 154.55 232.828C154.886 233.173 155.054 233.6 155.054 234.109C155.054 234.641 154.867 235.059 154.494 235.362C154.121 235.661 153.656 235.81 153.101 235.81H150.322ZM160.95 237.21C161.701 237.21 162.348 237.042 162.889 236.706C163.435 236.37 163.855 235.901 164.149 235.299C164.448 234.697 164.597 234.002 164.597 233.213C164.597 232.434 164.45 231.745 164.156 231.148C163.867 230.546 163.449 230.077 162.903 229.741C162.357 229.4 161.706 229.23 160.95 229.23C160.213 229.23 159.571 229.398 159.025 229.734C158.479 230.065 158.057 230.53 157.758 231.127C157.459 231.724 157.31 232.42 157.31 233.213C157.31 233.992 157.455 234.683 157.744 235.285C158.038 235.887 158.458 236.358 159.004 236.699C159.55 237.04 160.199 237.21 160.95 237.21ZM160.95 236.027C160.189 236.027 159.613 235.773 159.221 235.264C158.829 234.751 158.633 234.067 158.633 233.213C158.633 232.387 158.822 231.715 159.2 231.197C159.578 230.674 160.161 230.413 160.95 230.413C161.725 230.413 162.306 230.667 162.693 231.176C163.08 231.685 163.274 232.364 163.274 233.213C163.274 234.044 163.08 234.72 162.693 235.243C162.31 235.766 161.729 236.027 160.95 236.027ZM169.358 237.21C170.11 237.21 170.756 237.042 171.297 236.706C171.843 236.37 172.263 235.901 172.557 235.299C172.856 234.697 173.005 234.002 173.005 233.213C173.005 232.434 172.858 231.745 172.564 231.148C172.275 230.546 171.857 230.077 171.311 229.741C170.765 229.4 170.114 229.23 169.358 229.23C168.621 229.23 167.979 229.398 167.433 229.734C166.887 230.065 166.465 230.53 166.166 231.127C165.868 231.724 165.718 232.42 165.718 233.213C165.718 233.992 165.863 234.683 166.152 235.285C166.446 235.887 166.866 236.358 167.412 236.699C167.958 237.04 168.607 237.21 169.358 237.21ZM169.358 236.027C168.598 236.027 168.021 235.773 167.629 235.264C167.237 234.751 167.041 234.067 167.041 233.213C167.041 232.387 167.23 231.715 167.608 231.197C167.986 230.674 168.57 230.413 169.358 230.413C170.133 230.413 170.714 230.667 171.101 231.176C171.489 231.685 171.682 232.364 171.682 233.213C171.682 234.044 171.489 234.72 171.101 235.243C170.719 235.766 170.138 236.027 169.358 236.027ZM174.539 237H175.806V233.36L179.243 237H180.986L177.255 233.22L180.594 229.44H178.977L175.806 233.08V226.92H174.546L174.539 237ZM181.683 237H182.866V229.657L186.289 237H186.954L190.377 229.657V236.993H191.56V226.92H190.412L186.625 234.949L182.817 226.92H181.683V237ZM194.573 240.36H195.784L199.9 229.44H198.633L196.421 235.39L194.062 229.44H192.753L195.819 236.972L194.573 240.36ZM204.633 237.21C205.333 237.21 205.968 237.093 206.537 236.86C207.107 236.627 207.559 236.286 207.895 235.838C208.236 235.385 208.406 234.835 208.406 234.186C208.406 233.701 208.318 233.299 208.14 232.982C207.963 232.66 207.739 232.403 207.468 232.212C207.198 232.016 206.918 231.864 206.628 231.757C206.344 231.65 206.092 231.566 205.872 231.505L203.954 230.952C203.707 230.882 203.453 230.793 203.191 230.686C202.93 230.574 202.711 230.425 202.533 230.238C202.361 230.047 202.274 229.797 202.274 229.489C202.274 229.176 202.37 228.901 202.561 228.663C202.757 228.42 203.021 228.231 203.352 228.096C203.688 227.961 204.062 227.895 204.472 227.9C205.112 227.905 205.669 228.087 206.145 228.446C206.626 228.801 206.918 229.284 207.02 229.895L208.343 229.664C208.157 228.745 207.72 228.026 207.034 227.508C206.353 226.985 205.504 226.722 204.486 226.717C203.819 226.712 203.217 226.822 202.68 227.046C202.148 227.27 201.728 227.594 201.42 228.019C201.112 228.439 200.958 228.948 200.958 229.545C200.958 230.04 201.061 230.45 201.266 230.777C201.476 231.104 201.747 231.365 202.078 231.561C202.414 231.752 202.769 231.904 203.142 232.016L205.711 232.779C206.071 232.886 206.395 233.05 206.684 233.269C206.974 233.484 207.118 233.813 207.118 234.256C207.118 234.62 207.009 234.935 206.789 235.201C206.575 235.467 206.285 235.672 205.921 235.817C205.557 235.957 205.149 236.027 204.696 236.027C203.992 236.027 203.383 235.85 202.869 235.495C202.356 235.136 202.018 234.639 201.854 234.004L200.566 234.207C200.678 234.823 200.919 235.357 201.287 235.81C201.661 236.258 202.132 236.603 202.701 236.846C203.275 237.089 203.919 237.21 204.633 237.21ZM209.868 237H211.128V233.017C211.128 232.14 211.317 231.489 211.695 231.064C212.077 230.639 212.581 230.427 213.207 230.427C213.739 230.427 214.154 230.56 214.453 230.826C214.751 231.092 214.959 231.437 215.076 231.862C215.197 232.287 215.258 232.737 215.258 233.213V237H216.518V232.821C216.518 232.462 216.473 232.077 216.385 231.666C216.301 231.251 216.147 230.861 215.923 230.497C215.703 230.128 215.398 229.827 215.006 229.594C214.618 229.361 214.119 229.244 213.508 229.244C212.406 229.244 211.566 229.634 210.988 230.413V226.92H209.868V237ZM221.557 237.21C222.309 237.21 222.955 237.042 223.496 236.706C224.042 236.37 224.462 235.901 224.756 235.299C225.055 234.697 225.204 234.002 225.204 233.213C225.204 232.434 225.057 231.745 224.763 231.148C224.474 230.546 224.056 230.077 223.51 229.741C222.964 229.4 222.313 229.23 221.557 229.23C220.82 229.23 220.178 229.398 219.632 229.734C219.086 230.065 218.664 230.53 218.365 231.127C218.067 231.724 217.917 232.42 217.917 233.213C217.917 233.992 218.062 234.683 218.351 235.285C218.645 235.887 219.065 236.358 219.611 236.699C220.157 237.04 220.806 237.21 221.557 237.21ZM221.557 236.027C220.797 236.027 220.22 235.773 219.828 235.264C219.436 234.751 219.24 234.067 219.24 233.213C219.24 232.387 219.429 231.715 219.807 231.197C220.185 230.674 220.769 230.413 221.557 230.413C222.332 230.413 222.913 230.667 223.3 231.176C223.688 231.685 223.881 232.364 223.881 233.213C223.881 234.044 223.688 234.72 223.3 235.243C222.918 235.766 222.337 236.027 221.557 236.027ZM228.082 237H229.118L230.945 231.253L232.772 237H233.808L236.118 229.44H234.886L233.192 234.97L231.498 229.44H230.399L228.698 234.97L227.011 229.44L225.772 229.433L228.082 237Z" fill="#969BAB"/>
<defs>
<clipPath id="clip0_2_249">
<rect width="16" height="14" fill="white" transform="translate(32 104)"/>
</clipPath>
</defs>
</svg>
