<svg width="891" height="28" viewBox="0 0 891 28" fill="none" xmlns="http://www.w3.org/2000/svg">
<g clip-path="url(#clip0_2_134)">
<path d="M25.7996 19.8443C25.6584 19.5031 25.526 19.1443 25.3849 18.8381L24.7319 17.3768L24.7054 17.3506C22.7643 13.1506 20.6907 8.88059 18.4937 4.68059L18.4054 4.50559C18.1849 4.09434 17.9643 3.63934 17.7349 3.21934C17.4525 2.72059 17.179 2.18684 16.729 1.67934C16.2903 1.14833 15.7383 0.720506 15.1127 0.426739C14.4871 0.132972 13.8035 -0.0194092 13.1113 -0.0194092C12.4191 -0.0194092 11.7356 0.132972 11.11 0.426739C10.4844 0.720506 9.93232 1.14833 9.49368 1.67934C9.07898 2.18684 8.77015 2.72059 8.4878 3.21934C8.26721 3.67434 8.04663 4.12059 7.81721 4.53184L7.72898 4.70684C5.56721 8.90684 3.45839 13.1768 1.51721 17.3768L1.46427 17.4293C1.27016 17.8843 1.04074 18.3568 0.820155 18.8643C0.678979 19.1706 0.537802 19.5031 0.396626 19.8706C0.0154782 20.8329 -0.106234 21.8771 0.0434838 22.9003C0.193202 23.9234 0.609183 24.8903 1.25043 25.7054C1.89168 26.5206 2.73606 27.1561 3.70035 27.5491C4.66465 27.9421 5.71558 28.0792 6.74957 27.9468C7.74086 27.8174 8.6954 27.49 9.55545 26.9843C10.7025 26.3456 11.8054 25.4181 13.0407 24.0793C14.276 25.4181 15.4054 26.3456 16.526 26.9931C17.6037 27.6203 18.824 27.9665 20.0731 27.9993C21.5196 28.0053 22.9194 27.4921 24.0141 26.5545C25.1088 25.6168 25.8245 24.3181 26.029 22.8981C26.2653 21.8776 26.1853 20.8102 25.7996 19.8356V19.8443ZM13.129 21.2968C11.6113 19.3718 10.6231 17.6043 10.2878 16.0906C10.1489 15.5297 10.1189 14.9476 10.1996 14.3756C10.2613 13.9293 10.429 13.5356 10.6584 13.2031C11.1878 12.4418 12.1143 11.9693 13.129 11.9693C13.6109 11.9547 14.0889 12.059 14.5201 12.2728C14.9513 12.4866 15.3222 12.8033 15.5996 13.1943C15.829 13.5443 15.9966 13.9293 16.0496 14.3756C16.1378 14.8831 16.1025 15.4693 15.9613 16.0906C15.626 17.5781 14.6378 19.3631 13.129 21.2968ZM24.3702 22.5918C24.2699 23.3128 23.9809 23.9951 23.5319 24.5708C23.083 25.1465 22.4898 25.5955 21.8113 25.8731C21.1407 26.1531 20.3996 26.2318 19.676 26.1531C18.9702 26.0656 18.2643 25.8381 17.5407 25.4181C16.3394 24.6818 15.2592 23.767 14.3378 22.7056C16.1907 20.4306 17.3113 18.3568 17.7349 16.5106C17.9378 15.6356 17.9643 14.8481 17.876 14.1218C17.7659 13.4335 17.507 12.7768 17.1172 12.1968C16.6722 11.5679 16.0781 11.0571 15.3873 10.7092C14.6965 10.3614 13.9301 10.1871 13.1554 10.2018C11.5231 10.2018 10.0672 10.9543 9.18486 12.1881C8.78766 12.7666 8.53096 13.4285 8.43486 14.1218C8.32016 14.8568 8.34663 15.6706 8.57604 16.5106C8.99957 18.3568 10.1466 20.4568 11.9731 22.7231C11.0673 23.8047 9.98459 24.7276 8.77015 25.4531C8.0378 25.8731 7.34074 26.0918 6.63486 26.1793C5.53711 26.3188 4.42823 26.0229 3.54924 25.3561C2.67025 24.6892 2.0922 23.7053 1.94074 22.6181C1.85251 21.9181 1.91427 21.2181 2.19663 20.4306C2.28486 20.1506 2.41721 19.8706 2.55839 19.5381C2.75251 19.0831 2.98192 18.6106 3.20251 18.1381L3.2378 18.0768C5.14368 13.9031 7.22604 9.64184 9.3878 5.46809L9.47604 5.29309C9.69663 4.87309 9.91721 4.42684 10.1466 4.00684C10.376 3.56059 10.6231 3.13184 10.9407 2.78184C11.2157 2.45636 11.5593 2.1946 11.9472 2.01501C12.3352 1.83541 12.7582 1.74233 13.1863 1.74233C13.6145 1.74233 14.0375 1.83541 14.4254 2.01501C14.8134 2.1946 15.157 2.45636 15.4319 2.78184C15.7407 3.13184 15.9966 3.56059 16.226 4.00684C16.4466 4.42684 16.6672 4.88184 16.8966 5.29309L16.9849 5.46809C19.1378 9.64184 21.2202 13.9031 23.1613 18.0768L23.1878 18.1031C23.4172 18.5581 23.6113 19.0656 23.8319 19.5031C23.9731 19.8443 24.1143 20.1156 24.2025 20.4043C24.3702 21.1918 24.4584 21.8918 24.3702 22.5918V22.5918ZM36.6525 21.1043C35.9876 21.114 35.3291 20.9751 34.7257 20.6979C34.1224 20.4207 33.5897 20.0123 33.1672 19.5031C32.2179 18.4181 31.714 17.019 31.7554 15.5831C31.7409 14.1159 32.261 12.6928 33.2202 11.5756C33.6638 11.0599 34.2161 10.6469 34.838 10.3657C35.46 10.0845 36.1366 9.94197 36.8202 9.94809C37.4633 9.93063 38.1004 10.0757 38.6715 10.3696C39.2426 10.6634 39.729 11.0965 40.0849 11.6281L40.1731 10.2543H42.7496V20.8243H40.1643L40.076 19.2843C39.7091 19.8519 39.202 20.3171 38.6028 20.6356C38.0036 20.9541 37.3323 21.1155 36.6525 21.1043V21.1043ZM37.3231 18.5843C37.8349 18.5843 38.2849 18.4443 38.7084 18.1906C39.0966 17.9106 39.4143 17.5431 39.6613 17.0968C39.8819 16.6506 39.9966 16.1168 39.9966 15.5218C40.031 15.0051 39.9296 14.4883 39.7022 14.022C39.4749 13.5558 39.1294 13.156 38.6996 12.8618C38.2866 12.6067 37.8097 12.4714 37.3231 12.4714C36.8365 12.4714 36.3596 12.6067 35.9466 12.8618C35.5584 13.1418 35.2407 13.5093 34.9937 13.9556C34.7603 14.4477 34.6456 14.9869 34.6584 15.5306C34.624 16.0474 34.7254 16.5642 34.9528 17.0304C35.1801 17.4967 35.5256 17.8964 35.9554 18.1906C36.3702 18.4443 36.8202 18.5843 37.3231 18.5843ZM47.1613 7.40184C47.1613 7.70809 47.1084 7.98809 46.9672 8.21559C46.826 8.43434 46.6319 8.63559 46.376 8.77559C46.1202 8.91559 45.8466 8.96809 45.5643 8.96809C45.2819 8.96809 44.9996 8.91559 44.7437 8.77559C44.5017 8.64199 44.2982 8.44921 44.1525 8.21559C44.0159 7.96633 43.9488 7.6854 43.9584 7.40184C43.9584 7.08684 44.0202 6.80684 44.1525 6.58809C44.2937 6.32559 44.4966 6.16809 44.7437 6.02809C44.9996 5.88809 45.2731 5.82684 45.5643 5.82684C45.8451 5.82042 46.1229 5.88639 46.3703 6.01829C46.6178 6.15019 46.8265 6.3435 46.976 6.57934C47.1044 6.83445 47.1681 7.1168 47.1613 7.40184V7.40184ZM44.1613 20.7893V10.2368H46.9672V20.8068H44.1525L44.1613 20.7893ZM54.4672 13.0018V13.0368C54.3349 12.9756 54.1584 12.9493 54.026 12.9231C53.8496 12.8881 53.7084 12.8881 53.5407 12.8881C52.7554 12.8881 52.1643 13.1156 51.776 13.5881C51.3525 14.0693 51.1584 14.7431 51.1584 15.6093V20.7981H48.3437V10.2281H50.929L51.0172 11.8293C51.2996 11.2693 51.6349 10.8493 52.1113 10.5343C52.5853 10.2283 53.1432 10.0754 53.7084 10.0968C53.9113 10.0968 54.1054 10.1143 54.2731 10.1493C54.3613 10.1756 54.4143 10.1756 54.4672 10.2018V13.0018V13.0018ZM55.5966 20.7893V5.89684H58.4025V11.5843C58.7996 11.0768 59.2496 10.6831 59.8143 10.3768C60.7083 9.94217 61.7239 9.81887 62.6972 10.0268C63.6705 10.2348 64.5448 10.7619 65.179 11.5231C66.1304 12.6104 66.6344 14.0129 66.5907 15.4518C66.6053 16.919 66.0851 18.3421 65.126 19.4593C64.6824 19.975 64.1301 20.388 63.5081 20.6692C62.8862 20.9504 62.2096 21.093 61.526 21.0868C60.8829 21.1043 60.2458 20.9593 59.6747 20.6654C59.1036 20.3715 58.6172 19.9384 58.2613 19.4068L58.1731 20.7806L55.5966 20.8068V20.7893ZM61.0231 18.5843C61.526 18.5843 61.976 18.4443 62.3996 18.1906C62.7878 17.9106 63.1055 17.5431 63.3525 17.0968C63.5819 16.6506 63.6878 16.1168 63.6878 15.5218C63.6878 14.9356 63.5819 14.4018 63.3525 13.9556C63.1208 13.5253 62.7952 13.1516 62.3996 12.8618C61.9866 12.6067 61.5097 12.4714 61.0231 12.4714C60.5365 12.4714 60.0596 12.6067 59.6466 12.8618C59.2496 13.1418 58.9407 13.5093 58.6849 13.9556C58.4515 14.4477 58.3367 14.9869 58.3496 15.5306C58.3152 16.0474 58.4166 16.5642 58.644 17.0304C58.8713 17.4967 59.2168 17.8964 59.6466 18.1906C60.0613 18.4443 60.5113 18.5843 61.0231 18.5843ZM67.6496 20.7981V10.2281H70.2349L70.3231 11.6018C70.648 11.0753 71.1088 10.6443 71.658 10.3536C72.2071 10.0628 72.8246 9.92283 73.4466 9.94809C74.1579 9.93591 74.857 10.1319 75.4565 10.5117C76.056 10.8914 76.5293 11.438 76.8172 12.0831C77.126 12.7481 77.2937 13.5706 77.2937 14.4893V20.8243H74.479V14.8568C74.479 14.1218 74.3113 13.5443 73.976 13.1156C73.6407 12.6956 73.1819 12.4681 72.5996 12.4681C72.176 12.4681 71.8054 12.5556 71.479 12.7481C71.1702 12.9493 70.9143 13.2031 70.7202 13.5618C70.5239 13.9245 70.4266 14.3317 70.4378 14.7431V20.7981H67.6496V20.7981ZM78.6966 20.7981V5.88809H81.5113V11.5756C81.8926 11.0653 82.3885 10.6501 82.9598 10.363C83.5311 10.0759 84.1621 9.92489 84.8025 9.92184C85.4674 9.91219 86.1259 10.0511 86.7293 10.3283C87.3326 10.6055 87.8653 11.0139 88.2878 11.5231C89.2325 12.6103 89.7329 14.0086 89.6907 15.4431C89.7061 16.9104 89.1858 18.3338 88.226 19.4506C87.7824 19.9663 87.2301 20.3793 86.6081 20.6605C85.9862 20.9417 85.3096 21.0842 84.626 21.0781C83.9829 21.0955 83.3458 20.9505 82.7747 20.6566C82.2036 20.3627 81.7172 19.9297 81.3613 19.3981L81.2819 20.7718L78.6966 20.7981V20.7981ZM84.1496 18.5843C84.6613 18.5843 85.1113 18.4443 85.526 18.1906C85.9231 17.9106 86.2319 17.5431 86.4878 17.0968C86.7084 16.6506 86.8231 16.1168 86.8231 15.5218C86.8575 15.0051 86.7561 14.4883 86.5287 14.022C86.3013 13.5558 85.9559 13.156 85.526 12.8618C85.113 12.6067 84.6362 12.4714 84.1496 12.4714C83.663 12.4714 83.1861 12.6067 82.7731 12.8618C82.3849 13.1418 82.0672 13.5093 81.8202 13.9556C81.5739 14.4433 81.4584 14.9857 81.4849 15.5306C81.4505 16.0474 81.5519 16.5642 81.7793 17.0304C82.0066 17.4967 82.3521 17.8964 82.7819 18.1906C83.1966 18.4443 83.6202 18.5843 84.1496 18.5843Z" fill="#FF385C"/>
</g>
<g clip-path="url(#clip1_2_134)">
<path d="M163.097 5.97278V12.7425H156.928V5.97278H154V22.1328H156.928V15.5829H163.097V22.1328H166.025V5.97278H163.097Z" fill="#33475B"/>
<path d="M175.397 16.909C175.397 17.5567 175.142 18.1778 174.688 18.6357C174.233 19.0937 173.617 19.351 172.975 19.351C172.332 19.351 171.716 19.0937 171.262 18.6357C170.807 18.1778 170.552 17.5567 170.552 16.909V9.98743H167.774V16.909C167.774 18.2979 168.322 19.6299 169.296 20.612C170.27 21.5941 171.592 22.1458 172.97 22.1458C174.348 22.1458 175.669 21.5941 176.643 20.612C177.618 19.6299 178.165 18.2979 178.165 16.909V9.98743H175.397V16.909Z" fill="#33475B"/>
<path d="M195.979 10.7005C195.979 9.28173 196.91 8.83195 197.93 8.83195C198.752 8.83195 199.838 9.4625 200.549 10.2276L202.368 8.0669C201.46 6.82894 199.617 5.97278 198.109 5.97278C195.096 5.97278 192.917 7.75163 192.917 10.7005C192.917 16.1715 199.551 14.4361 199.551 17.4977C199.551 18.4421 198.642 19.2765 197.6 19.2765C195.957 19.2765 195.425 18.4667 194.67 17.6105L192.651 19.7263C193.943 21.3244 195.535 22.1357 197.444 22.1357C200.306 22.1357 202.609 20.3352 202.609 17.5208C202.609 11.4467 195.974 13.334 195.974 10.7005" fill="#33475B"/>
<path d="M237.023 19.5513C235.381 19.5513 234.915 18.8354 234.915 17.7392V12.8871H237.466V10.4286H234.915V7.18469L232.099 8.45881V18.3423C232.099 20.8703 233.829 22.1444 236.202 22.1444C236.574 22.1512 236.946 22.1212 237.313 22.0547L238 19.505C237.69 19.5267 237.334 19.5484 237.023 19.5484" fill="#33475B"/>
<path d="M185.971 10.0685C184.595 10.0685 183.635 10.4705 182.706 11.3889V6.0697H179.924V15.9286C179.924 19.6193 182.572 22.1473 185.546 22.1473C188.846 22.1473 191.749 19.5745 191.749 16.1094C191.749 12.6876 189.077 10.0699 185.971 10.0699V10.0685ZM185.953 19.3257C185.329 19.3257 184.719 19.1391 184.2 18.7895C183.681 18.4399 183.276 17.943 183.037 17.3616C182.798 16.7803 182.736 16.1405 182.857 15.5233C182.979 14.9062 183.28 14.3392 183.721 13.8943C184.163 13.4493 184.725 13.1463 185.338 13.0235C185.95 12.9007 186.585 12.9638 187.161 13.2046C187.738 13.4454 188.231 13.8532 188.578 14.3764C188.925 14.8996 189.11 15.5148 189.11 16.1441C189.11 16.9879 188.777 17.7972 188.185 18.3938C187.593 18.9905 186.791 19.3257 185.953 19.3257Z" fill="#33475B"/>
<path d="M216.179 15.9618C216.179 12.4909 213.282 9.92383 209.976 9.92383C207.002 9.92383 204.355 12.4518 204.355 16.1426V26.0072H207.137V20.6808C208.064 21.5977 209.025 22.0012 210.4 22.0012C213.506 22.0012 216.178 19.385 216.178 15.9618H216.179ZM213.545 15.9271C213.545 16.5564 213.36 17.1715 213.013 17.6947C212.666 18.2179 212.173 18.6258 211.596 18.8666C211.019 19.1074 210.385 19.1704 209.772 19.0476C209.16 18.9249 208.598 18.6218 208.156 18.1769C207.715 17.7319 207.414 17.165 207.292 16.5478C207.171 15.9306 207.233 15.2909 207.472 14.7095C207.711 14.1281 208.115 13.6312 208.635 13.2816C209.154 12.932 209.764 12.7454 210.388 12.7454C211.225 12.7454 212.028 13.0806 212.62 13.6773C213.212 14.274 213.545 15.0832 213.545 15.9271Z" fill="#33475B"/>
<path d="M225.167 9.78787V6.97063C225.536 6.79667 225.849 6.52054 226.069 6.17438C226.289 5.82823 226.406 5.42628 226.408 5.01535V4.95027C226.408 4.37493 226.181 3.82315 225.778 3.41632C225.374 3.00949 224.827 2.78094 224.256 2.78094H224.191C223.621 2.78094 223.073 3.00949 222.67 3.41632C222.266 3.82315 222.039 4.37493 222.039 4.95027V5.01535C222.041 5.42628 222.159 5.82823 222.378 6.17438C222.598 6.52054 222.911 6.79667 223.28 6.97063V9.78787C222.219 9.95157 221.219 10.3951 220.382 11.0736L212.717 5.05584C212.771 4.8574 212.8 4.6528 212.803 4.44698C212.804 3.96352 212.663 3.49067 212.397 3.08823C212.131 2.68579 211.753 2.37185 211.31 2.18611C210.867 2.00037 210.38 1.95118 209.909 2.04476C209.438 2.13834 209.006 2.37049 208.666 2.71184C208.327 3.0532 208.095 3.48842 208.001 3.96245C207.907 4.43649 207.954 4.92805 208.137 5.37496C208.32 5.82186 208.63 6.20404 209.029 6.47314C209.427 6.74224 209.896 6.88618 210.376 6.88675C210.795 6.88486 211.207 6.77217 211.569 6.55991L219.118 12.4793C218.44 13.5118 218.086 14.7264 218.102 15.9647C218.119 17.203 218.505 18.4075 219.211 19.4211L216.915 21.7351C216.73 21.6753 216.536 21.6436 216.341 21.6411C215.948 21.6414 215.563 21.7593 215.236 21.98C214.908 22.2007 214.653 22.5142 214.503 22.8809C214.352 23.2477 214.313 23.6511 214.39 24.0404C214.467 24.4296 214.656 24.7872 214.935 25.0678C215.213 25.3485 215.568 25.5396 215.954 25.6171C216.34 25.6946 216.741 25.655 217.104 25.5033C217.468 25.3515 217.779 25.0944 217.998 24.7646C218.217 24.4347 218.334 24.0468 218.334 23.6499C218.332 23.4535 218.301 23.2585 218.241 23.0714L220.512 20.782C221.253 21.3565 222.114 21.7525 223.03 21.9397C223.946 22.1268 224.892 22.1003 225.797 21.8619C226.701 21.6236 227.539 21.1799 228.246 20.5647C228.954 19.9495 229.513 19.1793 229.88 18.3129C230.246 17.4465 230.412 16.507 230.363 15.5664C230.313 14.6257 230.051 13.7088 229.597 12.886C229.142 12.0631 228.506 11.3561 227.738 10.8191C226.971 10.2821 226.091 9.92936 225.167 9.78787V9.78787ZM224.226 19.0523C223.605 19.0518 222.997 18.8656 222.481 18.5173C221.965 18.169 221.562 17.6742 221.325 17.0955C221.087 16.5168 221.026 15.8801 221.147 15.266C221.268 14.6518 221.568 14.0878 222.007 13.6451C222.447 13.2023 223.006 12.9009 223.616 12.7787C224.225 12.6566 224.857 12.7193 225.431 12.9589C226.005 13.1984 226.496 13.6042 226.841 14.1248C227.186 14.6454 227.371 15.2574 227.371 15.8837C227.371 16.7237 227.04 17.5293 226.451 18.1232C225.861 18.7172 225.062 19.0509 224.229 19.0509" fill="#FF7A59"/>
</g>
<g clip-path="url(#clip2_2_134)">
<path d="M337.746 14.3591C337.746 18.2456 334.661 21.1095 330.875 21.1095C327.089 21.1095 324.004 18.2456 324.004 14.3591C324.004 10.4452 327.089 7.60864 330.875 7.60864C334.661 7.60864 337.746 10.4452 337.746 14.3591ZM334.738 14.3591C334.738 11.9304 332.95 10.2686 330.875 10.2686C328.8 10.2686 327.012 11.9304 327.012 14.3591C327.012 16.7634 328.8 18.4495 330.875 18.4495C332.95 18.4495 334.738 16.7604 334.738 14.3591Z" fill="#EA4335"/>
<path d="M352.57 14.3591C352.57 18.2456 349.485 21.1095 345.698 21.1095C341.912 21.1095 338.827 18.2456 338.827 14.3591C338.827 10.4482 341.912 7.60864 345.698 7.60864C349.485 7.60864 352.57 10.4452 352.57 14.3591ZM349.562 14.3591C349.562 11.9304 347.774 10.2686 345.698 10.2686C343.623 10.2686 341.835 11.9304 341.835 14.3591C341.835 16.7634 343.623 18.4495 345.698 18.4495C347.774 18.4495 349.562 16.7604 349.562 14.3591Z" fill="#FBBC05"/>
<path d="M366.776 8.01647V20.1356C366.776 25.1208 363.792 27.1569 360.266 27.1569C356.946 27.1569 354.948 24.9686 354.194 23.1791L356.813 22.1047C357.279 23.2034 358.422 24.4999 360.263 24.4999C362.52 24.4999 363.919 23.1273 363.919 20.5434V19.5726H363.814C363.141 20.3912 361.844 21.1065 360.207 21.1065C356.782 21.1065 353.645 18.1665 353.645 14.3834C353.645 10.573 356.782 7.60864 360.207 7.60864C361.841 7.60864 363.138 8.32386 363.814 9.11821H363.919V8.01951H366.776V8.01647ZM364.132 14.3834C364.132 12.0065 362.523 10.2686 360.476 10.2686C358.4 10.2686 356.662 12.0065 356.662 14.3834C356.662 16.736 358.4 18.4495 360.476 18.4495C362.523 18.4495 364.132 16.736 364.132 14.3834Z" fill="#4285F4"/>
<path d="M371.485 0.913086V20.6957H368.551V0.913086H371.485Z" fill="#34A853"/>
<path d="M382.918 16.5809L385.253 18.1148C384.499 19.2135 382.683 21.1066 379.546 21.1066C375.655 21.1066 372.748 18.1422 372.748 14.3561C372.748 10.3418 375.679 7.60571 379.209 7.60571C382.764 7.60571 384.502 10.3935 385.071 11.9001L385.382 12.667L376.226 16.4044C376.927 17.7588 378.017 18.4496 379.546 18.4496C381.077 18.4496 382.14 17.707 382.918 16.5809ZM375.732 14.1522L381.853 11.6475C381.516 10.8044 380.503 10.217 379.311 10.217C377.782 10.217 375.655 11.547 375.732 14.1522V14.1522Z" fill="#EA4335"/>
<path d="M312.898 12.6031V9.73915H322.691C322.787 10.2383 322.836 10.8287 322.836 11.4678C322.836 13.6165 322.24 16.2735 320.32 18.1665C318.451 20.0839 316.064 21.1065 312.902 21.1065C307.04 21.1065 302.111 16.4013 302.111 10.6248C302.111 4.84828 307.04 0.143066 312.902 0.143066C316.144 0.143066 318.454 1.39698 320.19 3.03133L318.139 5.0522C316.895 3.90176 315.208 3.00698 312.898 3.00698C308.618 3.00698 305.271 6.40654 305.271 10.6248C305.271 14.8431 308.618 18.2426 312.898 18.2426C315.675 18.2426 317.256 17.1439 318.269 16.1457C319.09 15.3361 319.631 14.1796 319.844 12.6L312.898 12.6031V12.6031Z" fill="#4285F4"/>
</g>
<g clip-path="url(#clip3_2_134)">
<path d="M493.064 15.9752L492.336 18.031H492.276C492.155 17.5674 491.932 16.862 491.569 16.0155L487.671 6.24029H483.853V21.8201H486.378V12.2062C486.378 11.6015 486.378 10.9163 486.358 10.0698C486.337 9.6465 486.297 9.32402 486.277 9.08215H486.337C486.459 9.68681 486.6 10.1302 486.701 10.4124L491.387 21.7798H493.165L497.81 10.3116C497.911 10.0496 498.012 9.52557 498.113 9.08215H498.174C498.113 10.231 498.073 11.2589 498.053 11.8837V21.7597H500.739V6.19998H497.063L493.064 15.9752V15.9752ZM503.284 10.5938H505.91V21.7597H503.284V10.5938ZM504.617 5.8775C504.173 5.8775 503.809 6.03874 503.506 6.32091C503.203 6.60309 503.042 6.96588 503.042 7.40929C503.042 7.83254 503.203 8.19533 503.506 8.4775C503.809 8.75967 504.173 8.90076 504.617 8.90076C505.062 8.90076 505.445 8.73952 505.728 8.4775C506.031 8.19533 506.193 7.83254 506.193 7.40929C506.193 6.98603 506.031 6.62324 505.728 6.32091C505.466 6.03874 505.082 5.8775 504.617 5.8775V5.8775ZM515.222 10.493C514.737 10.3922 514.232 10.3318 513.747 10.3318C512.555 10.3318 511.465 10.5938 510.556 11.1178C509.647 11.6418 508.92 12.3674 508.455 13.2744C507.97 14.2015 507.728 15.2698 507.728 16.4992C507.728 17.5674 507.97 18.5147 508.435 19.3814C508.899 20.2279 509.546 20.9132 510.414 21.3767C511.242 21.8403 512.212 22.0822 513.303 22.0822C514.555 22.0822 515.625 21.8201 516.474 21.3364L516.494 21.3163V18.8977L516.393 18.9783C516.009 19.2604 515.565 19.5023 515.121 19.6434C514.656 19.8046 514.232 19.8853 513.868 19.8853C512.818 19.8853 511.99 19.5829 511.404 18.9178C510.798 18.2729 510.495 17.386 510.495 16.2775C510.495 15.1287 510.798 14.2217 511.424 13.5566C512.05 12.8915 512.878 12.5488 513.888 12.5488C514.737 12.5488 515.605 12.831 516.393 13.3953L516.494 13.476V10.9163L516.474 10.8961C516.13 10.755 515.747 10.5938 515.222 10.493V10.493ZM523.887 10.4124C523.24 10.4124 522.634 10.6139 522.109 11.0372C521.665 11.4 521.362 11.924 521.099 12.5488H521.079V10.5938H518.453V21.7597H521.079V16.0558C521.079 15.0884 521.281 14.2822 521.725 13.6977C522.17 13.093 522.735 12.7907 523.422 12.7907C523.665 12.7907 523.907 12.8511 524.21 12.8915C524.493 12.9721 524.695 13.0527 524.836 13.1535L524.937 13.2341V10.6139L524.876 10.5938C524.695 10.4729 524.331 10.4124 523.887 10.4124V10.4124ZM531.037 10.3519C529.199 10.3519 527.724 10.8961 526.694 11.9643C525.644 13.0325 525.139 14.5039 525.139 16.3581C525.139 18.0915 525.664 19.5023 526.674 20.5302C527.684 21.538 529.058 22.062 530.774 22.062C532.572 22.062 534.006 21.5178 535.036 20.4294C536.087 19.3411 536.592 17.8899 536.592 16.0961C536.592 14.3225 536.107 12.9116 535.117 11.8837C534.168 10.8558 532.774 10.3519 531.037 10.3519V10.3519ZM533.138 18.938C532.653 19.5628 531.885 19.8651 530.936 19.8651C529.987 19.8651 529.219 19.5628 528.674 18.8977C528.128 18.2729 527.866 17.3659 527.866 16.217C527.866 15.0279 528.149 14.1209 528.674 13.476C529.219 12.831 529.967 12.5085 530.916 12.5085C531.845 12.5085 532.572 12.8108 533.097 13.4356C533.622 14.0604 533.905 14.9674 533.905 16.1566C533.865 17.3659 533.643 18.3132 533.138 18.938V18.938ZM542.449 15.2294C541.621 14.8868 541.096 14.6248 540.854 14.4031C540.652 14.2015 540.551 13.9194 540.551 13.5566C540.551 13.2542 540.672 12.9519 540.975 12.7504C541.278 12.5488 541.621 12.448 542.126 12.448C542.571 12.448 543.035 12.5287 543.479 12.6496C543.924 12.7705 544.328 12.9519 544.651 13.1938L544.752 13.2744V10.8155L544.691 10.7953C544.388 10.6744 543.984 10.5535 543.5 10.4527C543.015 10.3721 542.571 10.3318 542.207 10.3318C540.955 10.3318 539.924 10.6341 539.117 11.2992C538.309 11.924 537.925 12.7705 537.925 13.7581C537.925 14.2822 538.006 14.7457 538.187 15.1287C538.369 15.5116 538.632 15.8744 538.995 16.1767C539.359 16.4589 539.884 16.7814 540.611 17.0837C541.217 17.3457 541.682 17.5473 541.965 17.7085C542.247 17.8698 542.429 18.0511 542.571 18.1922C542.671 18.3535 542.732 18.555 542.732 18.817C542.732 19.5628 542.167 19.9256 541.015 19.9256C540.571 19.9256 540.106 19.8449 539.561 19.6636C539.016 19.4822 538.511 19.2201 538.086 18.9178L537.985 18.8372V21.3969L538.046 21.417C538.43 21.5984 538.894 21.7194 539.46 21.8605C540.025 21.9612 540.53 22.0418 540.975 22.0418C542.328 22.0418 543.439 21.7395 544.227 21.0744C545.035 20.4294 545.459 19.6031 545.459 18.5349C545.459 17.7891 545.257 17.124 544.813 16.6201C544.227 16.1364 543.5 15.6325 542.449 15.2294V15.2294ZM552.387 10.3519C550.549 10.3519 549.074 10.8961 548.044 11.9643C547.014 13.0325 546.489 14.5039 546.489 16.3581C546.489 18.0915 547.014 19.5023 548.024 20.5302C549.034 21.538 550.408 22.062 552.124 22.062C553.922 22.062 555.356 21.5178 556.386 20.4294C557.437 19.3411 557.942 17.8899 557.942 16.0961C557.942 14.3225 557.457 12.9116 556.467 11.8837C555.518 10.8558 554.124 10.3519 552.387 10.3519V10.3519ZM554.468 18.938C553.983 19.5628 553.215 19.8651 552.266 19.8651C551.296 19.8651 550.549 19.5628 550.004 18.8977C549.458 18.2729 549.196 17.3659 549.196 16.217C549.196 15.0279 549.478 14.1209 550.004 13.476C550.549 12.831 551.296 12.5085 552.246 12.5085C553.155 12.5085 553.902 12.8108 554.427 13.4356C554.952 14.0604 555.235 14.9674 555.235 16.1566C555.235 17.3659 554.972 18.3132 554.468 18.938V18.938ZM571.98 12.7504V10.5938H569.334V7.28836L569.253 7.30851L566.748 8.05425L566.688 8.0744V10.5938H562.729V9.18293C562.729 8.53797 562.89 8.03409 563.173 7.71161C563.456 7.38913 563.88 7.22789 564.405 7.22789C564.769 7.22789 565.153 7.30851 565.577 7.48991L565.678 7.55037V5.27285L565.617 5.2527C565.254 5.13177 564.769 5.05115 564.143 5.05115C563.355 5.05115 562.668 5.23254 562.042 5.53487C561.416 5.8775 560.951 6.34107 560.608 6.96588C560.265 7.57053 560.083 8.2558 560.083 9.04185V10.5938H558.245V12.7302H560.083V21.7597H562.729V12.7504H566.688V18.4946C566.688 20.8527 567.799 22.0418 570.021 22.0418C570.384 22.0418 570.768 21.9814 571.131 21.9209C571.515 21.8403 571.798 21.7395 571.96 21.6589L571.98 21.6387V19.4822L571.879 19.5628C571.717 19.6636 571.576 19.7442 571.333 19.8046C571.131 19.8651 570.95 19.8853 570.808 19.8853C570.283 19.8853 569.92 19.7643 569.657 19.462C569.415 19.1798 569.293 18.7163 569.293 18.031V12.7504H571.98V12.7504Z" fill="#737373"/>
<path d="M450 1H462.382V13.355H450V1Z" fill="#F25022"/>
<path d="M463.674 1H476.056V13.355H463.674V1Z" fill="#7FBA00"/>
<path d="M450 14.645H462.382V27.0001H450V14.645Z" fill="#00A4EF"/>
<path d="M463.674 14.645H476.056V27.0001H463.674V14.645Z" fill="#FFB900"/>
</g>
<g clip-path="url(#clip4_2_134)">
<path d="M675.502 10.2479V11.7214H675.547C676.077 10.9325 676.957 10.0034 678.908 10.0034C680.426 10.0034 681.591 10.776 682.09 11.943H682.135C682.561 11.353 683.05 10.9064 683.597 10.5902C684.245 10.2153 684.966 10.0001 685.874 10.0001C687.929 10.0001 689.748 11.3367 689.748 14.7074V21.1001H686.615V15.1541C686.615 13.4459 685.999 12.4581 684.716 12.4581C683.777 12.4581 683.095 13.0514 682.835 13.7816C682.745 14.0326 682.703 14.3749 682.703 14.6618V21.1034H679.57V14.9128C679.57 13.4622 678.978 12.4549 677.713 12.4549C676.701 12.4549 676.067 13.2046 675.807 13.8468C675.696 14.1207 675.661 14.4369 675.661 14.7335V21.1001H672.525V10.2479H675.502ZM705.918 10.2479V12.2951H706.004C706.579 10.7304 707.945 10.0034 709.144 10.0034C709.445 10.0034 709.612 10.0262 709.854 10.0719V12.9145C709.567 12.8754 709.3 12.8363 708.926 12.8363C707.567 12.8363 706.621 13.5795 706.382 14.7433C706.33 14.9845 706.313 15.2453 706.313 15.5452V21.1034H703.097V10.2479H705.918ZM714.221 6.65222V10.0686H716.938V12.833H714.221V16.9111C714.221 18.2314 714.578 18.8703 715.638 18.8703C716.137 18.8703 716.504 18.8117 716.823 18.7367L716.865 21.0284C716.438 21.1784 715.531 21.3414 714.609 21.3414C713.524 21.3414 712.62 20.986 712.069 20.4351C711.438 19.8059 711.147 18.7758 711.147 17.3089V6.65222H714.221ZM670.342 21.1001H667.223V6.65222H670.342V21.1001ZM662.025 17.2241C662.025 17.4229 662.008 17.6316 661.949 17.8109C661.706 18.5639 660.878 19.1996 659.845 19.1996C658.982 19.1996 658.296 18.7399 658.296 17.7652C658.296 16.2755 660.043 15.8615 662.028 15.8712V17.2241H662.025ZM665.14 14.6259C665.14 12.1647 664.025 10.0034 660.251 10.0034C658.314 10.0034 656.775 10.5152 655.936 10.9716L656.55 12.9471C657.316 12.4907 658.539 12.1158 659.696 12.1158C661.613 12.1126 661.925 13.1362 661.925 13.7914V13.9479C657.749 13.9414 655.112 15.3007 655.112 18.0717C655.112 19.7636 656.453 21.3479 658.788 21.3479C660.226 21.3479 661.426 20.81 662.146 19.9461H662.216C662.216 19.9461 662.694 21.8206 665.321 21.1034C665.182 20.321 665.137 19.4897 665.137 18.4889V14.6259H665.14ZM639.445 6.65222C639.767 8.18112 640.682 12.6211 640.682 12.6211C641.066 14.4467 641.42 16.3602 641.687 17.8728H641.735C641.995 16.2657 642.404 14.7433 642.841 12.8591L644.383 6.65222H647.796L649.238 13.0188C649.615 14.7889 649.917 16.1548 650.156 17.8011H650.201C650.461 16.1385 650.801 14.7172 651.171 12.8982L652.558 6.65222H655.832L651.774 21.1001C649.189 21.6315 648.198 20.6535 647.845 19.1018C647.491 17.5468 646.798 14.5901 646.798 14.5901C646.441 12.9699 646.164 11.829 645.97 10.1664H645.921C645.644 11.8127 645.353 12.9667 644.923 14.5868L643.222 21.1034C640.581 21.5989 639.666 20.8654 639.16 18.8736C638.724 17.1687 636 6.65548 636 6.65548H639.445V6.65222ZM697.899 17.2241C697.899 17.4229 697.881 17.6316 697.822 17.8109C697.58 18.5639 696.752 19.1996 695.719 19.1996C694.856 19.1996 694.17 18.7399 694.17 17.7652C694.17 16.2755 695.916 15.8615 697.902 15.8712V17.2241H697.899ZM701.014 14.6259C701.014 12.1647 699.898 10.0034 696.124 10.0034C694.187 10.0034 692.649 10.5152 691.81 10.9716L692.423 12.9471C693.189 12.4907 694.413 12.1158 695.57 12.1158C697.483 12.1126 697.798 13.1362 697.798 13.7914V13.9479C693.626 13.9414 690.989 15.3007 690.989 18.0717C690.989 19.7636 692.333 21.3479 694.665 21.3479C696.1 21.3479 697.303 20.81 698.02 19.9461H698.093C698.093 19.9461 698.571 21.8206 701.198 21.1034C701.059 20.321 701.014 19.4897 701.014 18.4889V14.6259Z" fill="#041E42"/>
<path d="M729.58 16.1241C729.888 16.6517 729.867 17.2406 729.539 17.5096L723.867 21.4276C723.276 21.7646 722.392 21.3561 721.891 20.5017C721.387 19.6439 721.477 18.6874 722.067 18.3504L728.347 15.4705C728.741 15.3208 729.273 15.5965 729.58 16.1241ZM737.045 16.1241C737.356 15.5965 737.884 15.3242 738.278 15.4671L744.561 18.3469C745.152 18.6839 745.238 19.6405 744.737 20.4983C744.233 21.3527 743.345 21.7578 742.758 21.4242L737.086 17.5062C736.762 17.2406 736.737 16.6483 737.045 16.1241ZM733.311 18.2482C733.929 18.2482 734.437 18.5614 734.506 18.9733L735.117 25.7745C735.117 26.4485 734.319 27 733.314 27C732.313 27 731.511 26.4485 731.511 25.7745L732.119 18.9733C732.188 18.5614 732.696 18.2482 733.311 18.2482ZM737.086 10.4938L742.758 6.5724C743.345 6.2354 744.233 6.64048 744.737 7.4983C745.238 8.35611 745.152 9.31265 744.561 9.64965L738.278 12.5329C737.884 12.6758 737.352 12.4035 737.045 11.8759C736.737 11.3483 736.762 10.7594 737.086 10.4938ZM728.347 12.5329L722.067 9.64965C721.48 9.31265 721.39 8.35611 721.891 7.4983C722.392 6.64048 723.28 6.2354 723.867 6.5724L729.539 10.4938C729.867 10.756 729.888 11.3483 729.58 11.8759C729.273 12.4035 728.741 12.6758 728.347 12.5329ZM732.119 9.02671L731.511 2.22545C731.511 1.55145 732.309 1 733.314 1C734.319 1 735.117 1.55145 735.117 2.22545L734.506 9.02671C734.437 9.43519 733.929 9.75177 733.311 9.75177C732.696 9.75177 732.188 9.43519 732.119 9.02671ZM746.271 21.4004V21.2302H746.427C746.478 21.2302 746.513 21.2642 746.513 21.3153C746.513 21.3629 746.478 21.4004 746.427 21.4004H746.271ZM746.143 21.7101C746.143 21.7272 746.157 21.7442 746.178 21.7442H746.244C746.261 21.7442 746.278 21.7272 746.278 21.7101V21.5161H746.385L746.472 21.7203C746.478 21.734 746.489 21.7442 746.503 21.7442H746.582C746.606 21.7442 746.624 21.7203 746.613 21.6965C746.582 21.6352 746.551 21.5706 746.52 21.5059C746.572 21.4889 746.651 21.4378 746.651 21.3153C746.651 21.1859 746.544 21.111 746.437 21.111H746.178C746.161 21.111 746.143 21.128 746.143 21.1451V21.7101ZM745.864 21.4276C745.864 21.1519 746.092 20.9272 746.371 20.9272C746.651 20.9272 746.879 21.1485 746.879 21.4276C746.879 21.7033 746.655 21.928 746.371 21.928C746.088 21.928 745.864 21.7033 745.864 21.4276ZM745.743 21.4276C745.743 21.768 746.022 22.0471 746.371 22.0471C746.717 22.0471 747 21.768 747 21.4276C747 21.0872 746.717 20.8081 746.371 20.8081C746.022 20.8081 745.743 21.0872 745.743 21.4276Z" fill="#FFC124"/>
</g>
<g clip-path="url(#clip5_2_134)">
<path d="M870.491 25.2817L877.163 17.8925L870.491 10.5022H877.53L880.835 14.0919L884.017 10.5022H890.81L884.17 17.862L890.902 25.2817H883.833L880.559 21.6625L877.315 25.2817H870.491Z" fill="#FF6600"/>
<path d="M870.491 7.18914H862.935V10.5022H870.491V15.4952H862.935V20.0782H870.491V25.2817H857.381V2H870.491V7.18914Z" fill="#FF6600"/>
<path d="M851.851 2V11.528H851.79C850.566 10.1408 849.036 9.65874 847.261 9.65874C843.625 9.65874 840.886 12.0951 839.925 15.3162C838.829 11.767 836.001 9.59223 831.808 9.59223C828.403 9.59223 825.715 11.0987 824.312 13.5536V10.5025H817.274V7.18983H824.954V2H811V25.2821H817.274V15.4952H823.527C823.341 16.2142 823.241 16.9839 823.241 17.7961C823.241 22.6527 827.005 26.0603 831.808 26.0603C835.848 26.0603 838.51 24.1911 839.918 20.7831H834.541C833.814 21.8069 833.262 22.111 831.808 22.111C830.122 22.111 828.669 20.661 828.669 18.9423H839.616C840.091 22.7998 843.139 26.1265 847.323 26.1265C849.127 26.1265 850.779 25.2515 851.79 23.7742H851.851V25.2814H857.381V2H851.851ZM828.843 15.5648C829.192 14.0861 830.356 13.1195 831.808 13.1195C833.407 13.1195 834.512 14.0562 834.802 15.5648C834.925 15.5648 828.843 15.5648 828.843 15.5648ZM848.495 21.7369C846.456 21.7369 845.189 19.8646 845.189 17.9096C845.189 15.8199 846.291 13.8104 848.495 13.8104C850.779 13.8104 851.69 15.8199 851.69 17.9096C851.689 19.8913 850.725 21.7369 848.495 21.7369Z" fill="#652C8F"/>
</g>
<defs>
<clipPath id="clip0_2_134">
<rect width="90" height="28" fill="white"/>
</clipPath>
<clipPath id="clip1_2_134">
<rect width="84" height="24" fill="white" transform="translate(154 2)"/>
</clipPath>
<clipPath id="clip2_2_134">
<rect width="84" height="28" fill="white" transform="translate(302)"/>
</clipPath>
<clipPath id="clip3_2_134">
<rect width="122" height="26" fill="white" transform="translate(450 1)"/>
</clipPath>
<clipPath id="clip4_2_134">
<rect width="111" height="26" fill="white" transform="translate(636 1)"/>
</clipPath>
<clipPath id="clip5_2_134">
<rect width="80" height="24" fill="white" transform="translate(811 2)"/>
</clipPath>
</defs>
</svg>
