<svg width="647" height="153" viewBox="0 0 647 153" fill="none" xmlns="http://www.w3.org/2000/svg">
<path d="M25.288 54.08C20.104 54.08 15.628 52.952 11.86 50.696C8.116 48.44 5.224 45.284 3.184 41.228C1.168 37.172 0.16 32.456 0.16 27.08C0.16 21.704 1.168 16.988 3.184 12.932C5.224 8.876 8.116 5.72 11.86 3.464C15.628 1.208 20.104 0.079999 25.288 0.079999C30.472 0.079999 34.936 1.208 38.68 3.464C42.448 5.72 45.34 8.876 47.356 12.932C49.396 16.988 50.416 21.704 50.416 27.08C50.416 32.456 49.396 37.172 47.356 41.228C45.34 45.284 42.448 48.44 38.68 50.696C34.936 52.952 30.472 54.08 25.288 54.08ZM25.288 44.864C28.576 44.912 31.312 44.204 33.496 42.74C35.68 41.276 37.312 39.2 38.392 36.512C39.496 33.824 40.048 30.68 40.048 27.08C40.048 23.48 39.496 20.36 38.392 17.72C37.312 15.08 35.68 13.028 33.496 11.564C31.312 10.1 28.576 9.344 25.288 9.296C22 9.248 19.264 9.956 17.08 11.42C14.896 12.884 13.252 14.96 12.148 17.648C11.068 20.336 10.528 23.48 10.528 27.08C10.528 30.68 11.068 33.8 12.148 36.44C13.252 39.08 14.896 41.132 17.08 42.596C19.264 44.06 22 44.816 25.288 44.864ZM57.6025 53V14.12H66.2425V23.624L65.3065 22.4C65.8105 21.056 66.4825 19.832 67.3225 18.728C68.1625 17.624 69.1945 16.712 70.4185 15.992C71.3545 15.416 72.3745 14.972 73.4785 14.66C74.5825 14.324 75.7225 14.12 76.8985 14.048C78.0745 13.952 79.2505 13.976 80.4265 14.12V23.264C79.3465 22.928 78.0865 22.82 76.6465 22.94C75.2305 23.036 73.9465 23.36 72.7945 23.912C71.6425 24.44 70.6705 25.148 69.8785 26.036C69.0865 26.9 68.4865 27.932 68.0785 29.132C67.6705 30.308 67.4665 31.64 67.4665 33.128V53H57.6025ZM102.5 71.36C100.292 71.36 98.1921 71 96.2001 70.28C94.2081 69.584 92.4201 68.6 90.8361 67.328C89.2761 66.08 88.0041 64.616 87.0201 62.936L96.0921 58.544C96.7161 59.696 97.6041 60.572 98.7561 61.172C99.9321 61.772 101.204 62.072 102.572 62.072C104.036 62.072 105.416 61.82 106.712 61.316C108.008 60.836 109.04 60.104 109.808 59.12C110.6 58.16 110.972 56.96 110.924 55.52V44.216H112.148V14.12H120.716V55.664C120.716 56.624 120.668 57.524 120.572 58.364C120.5 59.228 120.356 60.08 120.14 60.92C119.516 63.296 118.352 65.252 116.648 66.788C114.968 68.324 112.904 69.464 110.456 70.208C108.008 70.976 105.356 71.36 102.5 71.36ZM101.636 54.08C98.0601 54.08 94.9281 53.18 92.2401 51.38C89.5521 49.58 87.4521 47.132 85.9401 44.036C84.4521 40.94 83.7081 37.448 83.7081 33.56C83.7081 29.6 84.4641 26.084 85.9761 23.012C87.5121 19.916 89.6601 17.48 92.4201 15.704C95.1801 13.928 98.4201 13.04 102.14 13.04C105.836 13.04 108.944 13.94 111.464 15.74C113.984 17.54 115.892 19.988 117.188 23.084C118.484 26.18 119.132 29.672 119.132 33.56C119.132 37.448 118.472 40.94 117.152 44.036C115.856 47.132 113.912 49.58 111.32 51.38C108.728 53.18 105.5 54.08 101.636 54.08ZM103.22 45.368C105.404 45.368 107.144 44.876 108.44 43.892C109.76 42.908 110.708 41.528 111.284 39.752C111.86 37.976 112.148 35.912 112.148 33.56C112.148 31.208 111.86 29.144 111.284 27.368C110.708 25.592 109.784 24.212 108.512 23.228C107.264 22.244 105.62 21.752 103.58 21.752C101.396 21.752 99.5961 22.292 98.1801 23.372C96.7881 24.428 95.7561 25.856 95.0841 27.656C94.4121 29.432 94.0761 31.4 94.0761 33.56C94.0761 35.744 94.4001 37.736 95.0481 39.536C95.6961 41.312 96.6921 42.728 98.0361 43.784C99.3801 44.84 101.108 45.368 103.22 45.368ZM141.598 54.08C138.814 54.08 136.45 53.552 134.506 52.496C132.586 51.416 131.122 49.988 130.114 48.212C129.13 46.412 128.638 44.432 128.638 42.272C128.638 40.472 128.914 38.828 129.466 37.34C130.018 35.852 130.906 34.544 132.13 33.416C133.378 32.264 135.046 31.304 137.134 30.536C138.574 30.008 140.29 29.54 142.282 29.132C144.274 28.724 146.53 28.34 149.05 27.98C151.57 27.596 154.342 27.176 157.366 26.72L153.838 28.664C153.838 26.36 153.286 24.668 152.182 23.588C151.078 22.508 149.23 21.968 146.638 21.968C145.198 21.968 143.698 22.316 142.138 23.012C140.578 23.708 139.486 24.944 138.862 26.72L130.006 23.912C130.99 20.696 132.838 18.08 135.55 16.064C138.262 14.048 141.958 13.04 146.638 13.04C150.07 13.04 153.118 13.568 155.782 14.624C158.446 15.68 160.462 17.504 161.83 20.096C162.598 21.536 163.054 22.976 163.198 24.416C163.342 25.856 163.414 27.464 163.414 29.24V53H154.846V45.008L156.07 46.664C154.174 49.28 152.122 51.176 149.914 52.352C147.73 53.504 144.958 54.08 141.598 54.08ZM143.686 46.376C145.486 46.376 146.998 46.064 148.222 45.44C149.47 44.792 150.454 44.06 151.174 43.244C151.918 42.428 152.422 41.744 152.686 41.192C153.19 40.136 153.478 38.912 153.55 37.52C153.646 36.104 153.694 34.928 153.694 33.992L156.574 34.712C153.67 35.192 151.318 35.6 149.518 35.936C147.718 36.248 146.266 36.536 145.162 36.8C144.058 37.064 143.086 37.352 142.246 37.664C141.286 38.048 140.506 38.468 139.906 38.924C139.33 39.356 138.898 39.836 138.61 40.364C138.346 40.892 138.214 41.48 138.214 42.128C138.214 43.016 138.43 43.784 138.862 44.432C139.318 45.056 139.954 45.536 140.77 45.872C141.586 46.208 142.558 46.376 143.686 46.376ZM199.27 53V34.64C199.27 33.752 199.222 32.624 199.126 31.256C199.03 29.864 198.73 28.472 198.226 27.08C197.722 25.688 196.894 24.524 195.742 23.588C194.614 22.652 193.006 22.184 190.918 22.184C190.078 22.184 189.178 22.316 188.218 22.58C187.258 22.844 186.358 23.36 185.518 24.128C184.678 24.872 183.982 25.976 183.43 27.44C182.902 28.904 182.638 30.848 182.638 33.272L177.022 30.608C177.022 27.536 177.646 24.656 178.894 21.968C180.142 19.28 182.014 17.108 184.51 15.452C187.03 13.796 190.198 12.968 194.014 12.968C197.062 12.968 199.546 13.484 201.466 14.516C203.386 15.548 204.874 16.856 205.93 18.44C207.01 20.024 207.778 21.68 208.234 23.408C208.69 25.112 208.966 26.672 209.062 28.088C209.158 29.504 209.206 30.536 209.206 31.184V53H199.27ZM172.702 53V14.12H181.414V27.008H182.638V53H172.702ZM219.268 8.72V0.079999H229.06V8.72H219.268ZM219.268 53V14.12H229.06V53H219.268ZM255.045 54.08C250.149 54.08 246.189 52.976 243.165 50.768C240.165 48.536 238.341 45.392 237.693 41.336L247.701 39.824C248.109 41.648 249.009 43.076 250.401 44.108C251.817 45.14 253.605 45.656 255.765 45.656C257.541 45.656 258.909 45.32 259.869 44.648C260.829 43.952 261.309 42.992 261.309 41.768C261.309 41 261.117 40.388 260.733 39.932C260.349 39.452 259.485 38.984 258.141 38.528C256.821 38.072 254.757 37.472 251.949 36.728C248.781 35.912 246.249 35 244.353 33.992C242.457 32.984 241.089 31.784 240.249 30.392C239.409 28.976 238.989 27.272 238.989 25.28C238.989 22.784 239.625 20.624 240.897 18.8C242.169 16.952 243.957 15.536 246.261 14.552C248.589 13.544 251.325 13.04 254.469 13.04C257.517 13.04 260.217 13.508 262.569 14.444C264.921 15.38 266.817 16.712 268.257 18.44C269.721 20.168 270.621 22.208 270.957 24.56L260.949 26.36C260.781 24.92 260.157 23.78 259.077 22.94C257.997 22.1 256.533 21.608 254.685 21.464C252.885 21.344 251.433 21.584 250.329 22.184C249.249 22.784 248.709 23.648 248.709 24.776C248.709 25.448 248.937 26.012 249.393 26.468C249.873 26.924 250.845 27.392 252.309 27.872C253.797 28.352 256.053 28.976 259.077 29.744C262.029 30.512 264.393 31.412 266.169 32.444C267.969 33.452 269.277 34.676 270.093 36.116C270.909 37.532 271.317 39.248 271.317 41.264C271.317 45.248 269.877 48.38 266.997 50.66C264.117 52.94 260.133 54.08 255.045 54.08ZM297.3 54.08C293.316 54.08 289.8 53.228 286.752 51.524C283.728 49.796 281.352 47.432 279.624 44.432C277.92 41.408 277.068 37.952 277.068 34.064C277.068 29.816 277.908 26.12 279.588 22.976C281.268 19.832 283.584 17.396 286.536 15.668C289.488 13.916 292.884 13.04 296.724 13.04C300.804 13.04 304.272 14 307.128 15.92C309.984 17.84 312.096 20.54 313.464 24.02C314.832 27.5 315.312 31.592 314.904 36.296H305.22V32.696C305.22 28.736 304.584 25.892 303.312 24.164C302.064 22.412 300.012 21.536 297.156 21.536C293.82 21.536 291.36 22.556 289.776 24.596C288.216 26.612 287.436 29.6 287.436 33.56C287.436 37.184 288.216 39.992 289.776 41.984C291.36 43.952 293.676 44.936 296.724 44.936C298.644 44.936 300.288 44.516 301.656 43.676C303.024 42.836 304.068 41.624 304.788 40.04L314.58 42.848C313.116 46.4 310.8 49.16 307.632 51.128C304.488 53.096 301.044 54.08 297.3 54.08ZM284.412 36.296V29.024H310.188V36.296H284.412ZM356.526 54.08C352.662 54.08 349.434 53.18 346.842 51.38C344.25 49.58 342.294 47.132 340.974 44.036C339.678 40.94 339.03 37.448 339.03 33.56C339.03 29.672 339.678 26.18 340.974 23.084C342.27 19.988 344.178 17.54 346.698 15.74C349.218 13.94 352.326 13.04 356.022 13.04C359.742 13.04 362.982 13.928 365.742 15.704C368.502 17.48 370.638 19.916 372.15 23.012C373.686 26.084 374.454 29.6 374.454 33.56C374.454 37.448 373.698 40.94 372.186 44.036C370.698 47.132 368.61 49.58 365.922 51.38C363.234 53.18 360.102 54.08 356.526 54.08ZM337.374 70.28V14.12H346.014V40.76H347.238V70.28H337.374ZM354.942 45.368C357.054 45.368 358.782 44.84 360.126 43.784C361.47 42.728 362.466 41.312 363.114 39.536C363.762 37.736 364.086 35.744 364.086 33.56C364.086 31.4 363.75 29.432 363.078 27.656C362.406 25.856 361.362 24.428 359.946 23.372C358.554 22.292 356.766 21.752 354.582 21.752C352.542 21.752 350.886 22.244 349.614 23.228C348.366 24.212 347.454 25.592 346.878 27.368C346.302 29.144 346.014 31.208 346.014 33.56C346.014 35.912 346.302 37.976 346.878 39.752C347.454 41.528 348.39 42.908 349.686 43.892C351.006 44.876 352.758 45.368 354.942 45.368ZM382.376 53V14.12H391.016V23.624L390.08 22.4C390.584 21.056 391.256 19.832 392.096 18.728C392.936 17.624 393.968 16.712 395.192 15.992C396.128 15.416 397.148 14.972 398.252 14.66C399.356 14.324 400.496 14.12 401.672 14.048C402.848 13.952 404.024 13.976 405.2 14.12V23.264C404.12 22.928 402.86 22.82 401.42 22.94C400.004 23.036 398.72 23.36 397.568 23.912C396.416 24.44 395.444 25.148 394.652 26.036C393.86 26.9 393.26 27.932 392.852 29.132C392.444 30.308 392.24 31.64 392.24 33.128V53H382.376ZM428.841 54.08C424.929 54.08 421.497 53.204 418.545 51.452C415.593 49.7 413.289 47.288 411.633 44.216C410.001 41.12 409.185 37.568 409.185 33.56C409.185 29.504 410.025 25.94 411.705 22.868C413.385 19.772 415.701 17.36 418.653 15.632C421.605 13.904 425.001 13.04 428.841 13.04C432.753 13.04 436.185 13.916 439.137 15.668C442.113 17.42 444.429 19.844 446.085 22.94C447.741 26.012 448.569 29.552 448.569 33.56C448.569 37.592 447.729 41.156 446.049 44.252C444.393 47.324 442.077 49.736 439.101 51.488C436.149 53.216 432.729 54.08 428.841 54.08ZM428.841 44.936C431.985 44.936 434.325 43.88 435.861 41.768C437.421 39.632 438.201 36.896 438.201 33.56C438.201 30.104 437.409 27.344 435.825 25.28C434.265 23.216 431.937 22.184 428.841 22.184C426.705 22.184 424.953 22.664 423.585 23.624C422.217 24.584 421.197 25.916 420.525 27.62C419.877 29.324 419.553 31.304 419.553 33.56C419.553 37.04 420.333 39.812 421.893 41.876C423.477 43.916 425.793 44.936 428.841 44.936ZM450.725 70.28V61.136H452.453C454.685 61.136 456.209 60.632 457.025 59.624C457.865 58.616 458.285 57.176 458.285 55.304V14.12H468.077V60.056C468.077 63.152 467.105 65.624 465.161 67.472C463.241 69.344 460.637 70.28 457.349 70.28H450.725ZM458.285 8.72V0.079999H468.077V8.72H458.285ZM496.214 54.08C492.23 54.08 488.714 53.228 485.666 51.524C482.642 49.796 480.266 47.432 478.538 44.432C476.834 41.408 475.982 37.952 475.982 34.064C475.982 29.816 476.822 26.12 478.502 22.976C480.182 19.832 482.498 17.396 485.45 15.668C488.402 13.916 491.798 13.04 495.638 13.04C499.718 13.04 503.186 14 506.042 15.92C508.898 17.84 511.01 20.54 512.378 24.02C513.746 27.5 514.226 31.592 513.818 36.296H504.134V32.696C504.134 28.736 503.498 25.892 502.226 24.164C500.978 22.412 498.926 21.536 496.07 21.536C492.734 21.536 490.274 22.556 488.69 24.596C487.13 26.612 486.35 29.6 486.35 33.56C486.35 37.184 487.13 39.992 488.69 41.984C490.274 43.952 492.59 44.936 495.638 44.936C497.558 44.936 499.202 44.516 500.57 43.676C501.938 42.836 502.982 41.624 503.702 40.04L513.494 42.848C512.03 46.4 509.714 49.16 506.546 51.128C503.402 53.096 499.958 54.08 496.214 54.08ZM483.326 36.296V29.024H509.102V36.296H483.326ZM539.082 54.08C535.05 54.08 531.594 53.18 528.714 51.38C525.834 49.58 523.626 47.132 522.09 44.036C520.554 40.94 519.786 37.448 519.786 33.56C519.786 29.624 520.578 26.108 522.162 23.012C523.77 19.916 526.026 17.48 528.93 15.704C531.834 13.928 535.266 13.04 539.226 13.04C543.81 13.04 547.65 14.204 550.746 16.532C553.866 18.836 555.858 21.992 556.722 26L546.93 28.592C546.354 26.576 545.346 25.004 543.906 23.876C542.49 22.748 540.882 22.184 539.082 22.184C537.018 22.184 535.326 22.688 534.006 23.696C532.686 24.68 531.714 26.036 531.09 27.764C530.466 29.468 530.154 31.4 530.154 33.56C530.154 36.944 530.898 39.692 532.386 41.804C533.898 43.892 536.13 44.936 539.082 44.936C541.29 44.936 542.97 44.432 544.122 43.424C545.274 42.416 546.138 40.976 546.714 39.104L556.722 41.192C555.618 45.32 553.53 48.5 550.458 50.732C547.386 52.964 543.594 54.08 539.082 54.08ZM587.251 53C584.563 53.504 581.923 53.72 579.331 53.648C576.763 53.6 574.459 53.156 572.419 52.316C570.403 51.452 568.867 50.072 567.811 48.176C566.851 46.4 566.347 44.6 566.299 42.776C566.251 40.928 566.227 38.84 566.227 36.512V3.32H576.019V35.936C576.019 37.448 576.031 38.816 576.055 40.04C576.103 41.24 576.355 42.2 576.811 42.92C577.675 44.288 579.055 45.032 580.951 45.152C582.847 45.272 584.947 45.176 587.251 44.864V53ZM559.603 21.68V14.12H587.251V21.68H559.603ZM611.107 54.08C606.211 54.08 602.251 52.976 599.227 50.768C596.227 48.536 594.403 45.392 593.755 41.336L603.763 39.824C604.171 41.648 605.071 43.076 606.463 44.108C607.879 45.14 609.667 45.656 611.827 45.656C613.603 45.656 614.971 45.32 615.931 44.648C616.891 43.952 617.371 42.992 617.371 41.768C617.371 41 617.179 40.388 616.795 39.932C616.411 39.452 615.547 38.984 614.203 38.528C612.883 38.072 610.819 37.472 608.011 36.728C604.843 35.912 602.311 35 600.415 33.992C598.519 32.984 597.151 31.784 596.311 30.392C595.471 28.976 595.051 27.272 595.051 25.28C595.051 22.784 595.687 20.624 596.959 18.8C598.231 16.952 600.019 15.536 602.323 14.552C604.651 13.544 607.387 13.04 610.531 13.04C613.579 13.04 616.279 13.508 618.631 14.444C620.983 15.38 622.879 16.712 624.319 18.44C625.783 20.168 626.683 22.208 627.019 24.56L617.011 26.36C616.843 24.92 616.219 23.78 615.139 22.94C614.059 22.1 612.595 21.608 610.747 21.464C608.947 21.344 607.495 21.584 606.391 22.184C605.311 22.784 604.771 23.648 604.771 24.776C604.771 25.448 604.999 26.012 605.455 26.468C605.935 26.924 606.907 27.392 608.371 27.872C609.859 28.352 612.115 28.976 615.139 29.744C618.091 30.512 620.455 31.412 622.231 32.444C624.031 33.452 625.339 34.676 626.155 36.116C626.971 37.532 627.379 39.248 627.379 41.264C627.379 45.248 625.939 48.38 623.059 50.66C620.179 52.94 616.195 54.08 611.107 54.08ZM636.874 53V43.208H646.666V53H636.874ZM24.64 152.08C21.376 152.08 18.268 151.504 15.316 150.352C12.364 149.176 9.748 147.448 7.468 145.168C5.212 142.888 3.424 140.068 2.104 136.708C0.808 133.348 0.16 129.472 0.16 125.08C0.16 119.344 1.252 114.472 3.436 110.464C5.644 106.432 8.596 103.36 12.292 101.248C16.012 99.136 20.128 98.08 24.64 98.08C31.312 98.08 36.556 99.628 40.372 102.724C44.188 105.82 46.744 110.2 48.04 115.864L38.032 117.304C37.096 114.28 35.56 111.868 33.424 110.068C31.312 108.244 28.6 107.32 25.288 107.296C22 107.248 19.264 107.956 17.08 109.42C14.896 110.884 13.252 112.96 12.148 115.648C11.068 118.336 10.528 121.48 10.528 125.08C10.528 128.68 11.068 131.8 12.148 134.44C13.252 137.08 14.896 139.132 17.08 140.596C19.264 142.06 22 142.816 25.288 142.864C27.52 142.912 29.536 142.528 31.336 141.712C33.16 140.896 34.696 139.612 35.944 137.86C37.192 136.108 38.08 133.864 38.608 131.128H30.4V123.568H49.048C49.096 123.88 49.132 124.432 49.156 125.224C49.18 126.016 49.192 126.472 49.192 126.592C49.192 131.56 48.184 135.964 46.168 139.804C44.152 143.644 41.308 146.656 37.636 148.84C33.964 151 29.632 152.08 24.64 152.08ZM74.4792 152.08C70.4952 152.08 66.9792 151.228 63.9312 149.524C60.9072 147.796 58.5312 145.432 56.8032 142.432C55.0992 139.408 54.2472 135.952 54.2472 132.064C54.2472 127.816 55.0872 124.12 56.7672 120.976C58.4472 117.832 60.7632 115.396 63.7152 113.668C66.6672 111.916 70.0632 111.04 73.9032 111.04C77.9832 111.04 81.4512 112 84.3072 113.92C87.1632 115.84 89.2752 118.54 90.6432 122.02C92.0112 125.5 92.4912 129.592 92.0832 134.296H82.3992V130.696C82.3992 126.736 81.7632 123.892 80.4912 122.164C79.2432 120.412 77.1912 119.536 74.3352 119.536C70.9992 119.536 68.5392 120.556 66.9552 122.596C65.3952 124.612 64.6152 127.6 64.6152 131.56C64.6152 135.184 65.3952 137.992 66.9552 139.984C68.5392 141.952 70.8552 142.936 73.9032 142.936C75.8232 142.936 77.4672 142.516 78.8352 141.676C80.2032 140.836 81.2472 139.624 81.9672 138.04L91.7592 140.848C90.2952 144.4 87.9792 147.16 84.8112 149.128C81.6672 151.096 78.2232 152.08 74.4792 152.08ZM61.5912 134.296V127.024H87.3672V134.296H61.5912ZM123.54 151C120.852 151.504 118.212 151.72 115.62 151.648C113.052 151.6 110.748 151.156 108.708 150.316C106.692 149.452 105.156 148.072 104.1 146.176C103.14 144.4 102.636 142.6 102.588 140.776C102.54 138.928 102.516 136.84 102.516 134.512V101.32H112.308V133.936C112.308 135.448 112.32 136.816 112.344 138.04C112.392 139.24 112.644 140.2 113.1 140.92C113.964 142.288 115.344 143.032 117.24 143.152C119.136 143.272 121.236 143.176 123.54 142.864V151ZM95.8919 119.68V112.12H123.54V119.68H95.8919ZM193.418 151V128.032C193.418 125.464 192.806 123.472 191.582 122.056C190.382 120.616 188.714 119.896 186.578 119.896C185.21 119.896 184.022 120.22 183.014 120.868C182.006 121.492 181.214 122.38 180.638 123.532C180.086 124.66 179.81 125.968 179.81 127.456L175.706 124.72C175.706 122.056 176.33 119.704 177.578 117.664C178.85 115.624 180.542 114.04 182.654 112.912C184.79 111.76 187.154 111.184 189.746 111.184C194.186 111.184 197.534 112.504 199.79 115.144C202.07 117.76 203.21 121.192 203.21 125.44V151H193.418ZM146.546 151V112.12H155.186V125.008H156.41V151H146.546ZM170.018 151V128.032C170.018 125.464 169.406 123.472 168.182 122.056C166.982 120.616 165.314 119.896 163.178 119.896C161.138 119.896 159.494 120.604 158.246 122.02C157.022 123.412 156.41 125.224 156.41 127.456L152.306 124.576C152.306 122.032 152.942 119.752 154.214 117.736C155.486 115.72 157.19 114.124 159.326 112.948C161.486 111.772 163.898 111.184 166.562 111.184C169.61 111.184 172.106 111.832 174.05 113.128C176.018 114.424 177.47 116.152 178.406 118.312C179.342 120.472 179.81 122.848 179.81 125.44V151H170.018ZM229.364 152.08C225.452 152.08 222.02 151.204 219.068 149.452C216.116 147.7 213.812 145.288 212.156 142.216C210.524 139.12 209.708 135.568 209.708 131.56C209.708 127.504 210.548 123.94 212.228 120.868C213.908 117.772 216.224 115.36 219.176 113.632C222.128 111.904 225.524 111.04 229.364 111.04C233.276 111.04 236.708 111.916 239.66 113.668C242.636 115.42 244.952 117.844 246.608 120.94C248.264 124.012 249.092 127.552 249.092 131.56C249.092 135.592 248.252 139.156 246.572 142.252C244.916 145.324 242.6 147.736 239.624 149.488C236.672 151.216 233.252 152.08 229.364 152.08ZM229.364 142.936C232.508 142.936 234.848 141.88 236.384 139.768C237.944 137.632 238.724 134.896 238.724 131.56C238.724 128.104 237.932 125.344 236.348 123.28C234.788 121.216 232.46 120.184 229.364 120.184C227.228 120.184 225.476 120.664 224.108 121.624C222.74 122.584 221.72 123.916 221.048 125.62C220.4 127.324 220.076 129.304 220.076 131.56C220.076 135.04 220.856 137.812 222.416 139.876C224 141.916 226.316 142.936 229.364 142.936ZM257.009 151V112.12H265.649V121.624L264.713 120.4C265.217 119.056 265.889 117.832 266.729 116.728C267.569 115.624 268.601 114.712 269.825 113.992C270.761 113.416 271.781 112.972 272.885 112.66C273.989 112.324 275.129 112.12 276.305 112.048C277.481 111.952 278.657 111.976 279.833 112.12V121.264C278.753 120.928 277.493 120.82 276.053 120.94C274.637 121.036 273.353 121.36 272.201 121.912C271.049 122.44 270.077 123.148 269.285 124.036C268.493 124.9 267.893 125.932 267.485 127.132C267.077 128.308 266.873 129.64 266.873 131.128V151H257.009ZM304.05 152.08C300.066 152.08 296.55 151.228 293.502 149.524C290.478 147.796 288.102 145.432 286.374 142.432C284.67 139.408 283.818 135.952 283.818 132.064C283.818 127.816 284.658 124.12 286.338 120.976C288.018 117.832 290.334 115.396 293.286 113.668C296.238 111.916 299.634 111.04 303.474 111.04C307.554 111.04 311.022 112 313.878 113.92C316.734 115.84 318.846 118.54 320.214 122.02C321.582 125.5 322.062 129.592 321.654 134.296H311.97V130.696C311.97 126.736 311.334 123.892 310.062 122.164C308.814 120.412 306.762 119.536 303.906 119.536C300.57 119.536 298.11 120.556 296.526 122.596C294.966 124.612 294.186 127.6 294.186 131.56C294.186 135.184 294.966 137.992 296.526 139.984C298.11 141.952 300.426 142.936 303.474 142.936C305.394 142.936 307.038 142.516 308.406 141.676C309.774 140.836 310.818 139.624 311.538 138.04L321.33 140.848C319.866 144.4 317.55 147.16 314.382 149.128C311.238 151.096 307.794 152.08 304.05 152.08ZM291.162 134.296V127.024H316.938V134.296H291.162ZM359.964 152.08C356.388 152.08 353.256 151.18 350.568 149.38C347.88 147.58 345.78 145.132 344.268 142.036C342.78 138.94 342.036 135.448 342.036 131.56C342.036 127.6 342.792 124.084 344.304 121.012C345.84 117.916 347.988 115.48 350.748 113.704C353.508 111.928 356.748 111.04 360.468 111.04C364.164 111.04 367.272 111.94 369.792 113.74C372.312 115.54 374.22 117.988 375.516 121.084C376.812 124.18 377.46 127.672 377.46 131.56C377.46 135.448 376.8 138.94 375.48 142.036C374.184 145.132 372.24 147.58 369.648 149.38C367.056 151.18 363.828 152.08 359.964 152.08ZM361.548 143.368C363.732 143.368 365.472 142.876 366.768 141.892C368.088 140.908 369.036 139.528 369.612 137.752C370.188 135.976 370.476 133.912 370.476 131.56C370.476 129.208 370.188 127.144 369.612 125.368C369.036 123.592 368.112 122.212 366.84 121.228C365.592 120.244 363.948 119.752 361.908 119.752C359.724 119.752 357.924 120.292 356.508 121.372C355.116 122.428 354.084 123.856 353.412 125.656C352.74 127.432 352.404 129.4 352.404 131.56C352.404 133.744 352.728 135.736 353.376 137.536C354.024 139.312 355.02 140.728 356.364 141.784C357.708 142.84 359.436 143.368 361.548 143.368ZM370.476 151V124.36H369.252V99.16H379.116V151H370.476ZM406.692 152.08C402.78 152.08 399.348 151.204 396.396 149.452C393.444 147.7 391.14 145.288 389.484 142.216C387.852 139.12 387.036 135.568 387.036 131.56C387.036 127.504 387.876 123.94 389.556 120.868C391.236 117.772 393.552 115.36 396.504 113.632C399.456 111.904 402.852 111.04 406.692 111.04C410.604 111.04 414.036 111.916 416.988 113.668C419.964 115.42 422.28 117.844 423.936 120.94C425.592 124.012 426.42 127.552 426.42 131.56C426.42 135.592 425.58 139.156 423.9 142.252C422.244 145.324 419.928 147.736 416.952 149.488C414 151.216 410.58 152.08 406.692 152.08ZM406.692 142.936C409.836 142.936 412.176 141.88 413.712 139.768C415.272 137.632 416.052 134.896 416.052 131.56C416.052 128.104 415.26 125.344 413.676 123.28C412.116 121.216 409.788 120.184 406.692 120.184C404.556 120.184 402.804 120.664 401.436 121.624C400.068 122.584 399.048 123.916 398.376 125.62C397.728 127.324 397.404 129.304 397.404 131.56C397.404 135.04 398.184 137.812 399.744 139.876C401.328 141.916 403.644 142.936 406.692 142.936ZM460.833 151V132.64C460.833 131.752 460.785 130.624 460.689 129.256C460.593 127.864 460.293 126.472 459.789 125.08C459.285 123.688 458.457 122.524 457.305 121.588C456.177 120.652 454.569 120.184 452.481 120.184C451.641 120.184 450.741 120.316 449.781 120.58C448.821 120.844 447.921 121.36 447.081 122.128C446.241 122.872 445.545 123.976 444.993 125.44C444.465 126.904 444.201 128.848 444.201 131.272L438.585 128.608C438.585 125.536 439.209 122.656 440.457 119.968C441.705 117.28 443.577 115.108 446.073 113.452C448.593 111.796 451.761 110.968 455.577 110.968C458.625 110.968 461.109 111.484 463.029 112.516C464.949 113.548 466.437 114.856 467.493 116.44C468.573 118.024 469.341 119.68 469.797 121.408C470.253 123.112 470.529 124.672 470.625 126.088C470.721 127.504 470.769 128.536 470.769 129.184V151H460.833ZM434.265 151V112.12H442.977V125.008H444.201V151H434.265ZM497.479 152.08C493.495 152.08 489.979 151.228 486.931 149.524C483.907 147.796 481.531 145.432 479.803 142.432C478.099 139.408 477.247 135.952 477.247 132.064C477.247 127.816 478.087 124.12 479.767 120.976C481.447 117.832 483.763 115.396 486.715 113.668C489.667 111.916 493.063 111.04 496.903 111.04C500.983 111.04 504.451 112 507.307 113.92C510.163 115.84 512.275 118.54 513.643 122.02C515.011 125.5 515.491 129.592 515.083 134.296H505.399V130.696C505.399 126.736 504.763 123.892 503.491 122.164C502.243 120.412 500.191 119.536 497.335 119.536C493.999 119.536 491.539 120.556 489.955 122.596C488.395 124.612 487.615 127.6 487.615 131.56C487.615 135.184 488.395 137.992 489.955 139.984C491.539 141.952 493.855 142.936 496.903 142.936C498.823 142.936 500.467 142.516 501.835 141.676C503.203 140.836 504.247 139.624 504.967 138.04L514.759 140.848C513.295 144.4 510.979 147.16 507.811 149.128C504.667 151.096 501.223 152.08 497.479 152.08ZM484.591 134.296V127.024H510.367V134.296H484.591ZM523.39 151V141.208H533.182V151H523.39Z" fill="#18191F"/>
</svg>
